<?xml version="1.0" encoding="UTF-8" standalone="no"?>
<!DOCTYPE svg PUBLIC "-//W3C//DTD SVG 1.1//EN"
 "http://www.w3.org/Graphics/SVG/1.1/DTD/svg11.dtd">
<!-- Generated by graphviz version 2.28.0 (20130122.0304)
 -->
<!-- Title: controllers_diagram Pages: 1 -->
<svg width="1373pt" height="1578pt"
 viewBox="0.00 0.00 1373.15 1578.25" xmlns="http://www.w3.org/2000/svg" xmlns:xlink="http://www.w3.org/1999/xlink">
<g id="graph1" class="graph" transform="scale(1 1) rotate(0) translate(4 1574.25)">
<title>controllers_diagram</title>
<polygon fill="white" stroke="white" points="-4,5 -4,-1574.25 1370.15,-1574.25 1370.15,5 -4,5"/>
<!-- _diagram_info -->
<g id="node1" class="node"><title>_diagram_info</title>
<text text-anchor="start" x="1033.82" y="-183" font-family="Times,serif" font-size="13.00">Controllers diagram</text>
<text text-anchor="start" x="1033.82" y="-167.4" font-family="Times,serif" font-size="13.00">Date: Jun 16 2014 &#45; 20:19</text>
<text text-anchor="start" x="1033.82" y="-151.8" font-family="Times,serif" font-size="13.00">Migration version: 20140616212824</text>
<text text-anchor="start" x="1033.82" y="-136.2" font-family="Times,serif" font-size="13.00">Generated by RailRoady 1.1.0</text>
<text text-anchor="start" x="1033.82" y="-120.6" font-family="Times,serif" font-size="13.00">http://railroady.prestonlee.com</text>
</g>
<!-- AnswersController -->
<g id="node2" class="node"><title>AnswersController</title>
<polyline fill="none" stroke="black" points="11.8171,-749.877 144.549,-749.877 "/>
<path fill="none" stroke="black" d="M144.549,-749.877C150.549,-749.877 156.549,-755.877 156.549,-761.877"/>
<polyline fill="none" stroke="black" points="156.549,-761.877 156.549,-1121.88 "/>
<path fill="none" stroke="black" d="M156.549,-1121.88C156.549,-1127.88 150.549,-1133.88 144.549,-1133.88"/>
<polyline fill="none" stroke="black" points="144.549,-1133.88 11.8171,-1133.88 "/>
<path fill="none" stroke="black" d="M11.8171,-1133.88C5.81714,-1133.88 -0.182861,-1127.88 -0.182861,-1121.88"/>
<polyline fill="none" stroke="black" points="-0.182861,-1121.88 -0.182861,-761.877 "/>
<path fill="none" stroke="black" d="M-0.182861,-761.877C-0.182861,-755.877 5.81714,-749.877 11.8171,-749.877"/>
<text text-anchor="middle" x="78.1829" y="-1115.88" font-family="Times,serif" font-size="14.00">AnswersController</text>
<polyline fill="none" stroke="black" points="-0.182861,-1109.08 156.549,-1109.08 "/>
<polyline fill="none" stroke="black" points="-0.182861,-1085.08 156.549,-1085.08 "/>
<text text-anchor="start" x="7.81714" y="-1067.08" font-family="Times,serif" font-size="14.00">collection_path</text>
<text text-anchor="start" x="7.81714" y="-1050.28" font-family="Times,serif" font-size="14.00">collection_url</text>
<text text-anchor="start" x="7.81714" y="-1033.48" font-family="Times,serif" font-size="14.00">edit_parent_path</text>
<text text-anchor="start" x="7.81714" y="-1016.68" font-family="Times,serif" font-size="14.00">edit_parent_url</text>
<text text-anchor="start" x="7.81714" y="-999.877" font-family="Times,serif" font-size="14.00">edit_resource_path</text>
<text text-anchor="start" x="7.81714" y="-983.077" font-family="Times,serif" font-size="14.00">edit_resource_url</text>
<text text-anchor="start" x="7.81714" y="-966.277" font-family="Times,serif" font-size="14.00">new_resource_path</text>
<text text-anchor="start" x="7.81714" y="-949.477" font-family="Times,serif" font-size="14.00">new_resource_url</text>
<text text-anchor="start" x="7.81714" y="-932.677" font-family="Times,serif" font-size="14.00">parent_path</text>
<text text-anchor="start" x="7.81714" y="-915.877" font-family="Times,serif" font-size="14.00">parent_url</text>
<text text-anchor="start" x="7.81714" y="-899.077" font-family="Times,serif" font-size="14.00">parents_symbols</text>
<text text-anchor="start" x="7.81714" y="-882.277" font-family="Times,serif" font-size="14.00">parents_symbols?</text>
<text text-anchor="start" x="7.81714" y="-865.477" font-family="Times,serif" font-size="14.00">resource_class</text>
<text text-anchor="start" x="7.81714" y="-848.677" font-family="Times,serif" font-size="14.00">resource_class?</text>
<text text-anchor="start" x="7.81714" y="-831.877" font-family="Times,serif" font-size="14.00">resource_path</text>
<text text-anchor="start" x="7.81714" y="-815.077" font-family="Times,serif" font-size="14.00">resource_url</text>
<text text-anchor="start" x="7.81714" y="-798.277" font-family="Times,serif" font-size="14.00">resources_configuration</text>
<text text-anchor="start" x="7.81714" y="-781.477" font-family="Times,serif" font-size="14.00">resources_configuration?</text>
<polyline fill="none" stroke="black" points="-0.182861,-774.677 156.549,-774.677 "/>
<text text-anchor="start" x="7.81714" y="-756.677" font-family="Times,serif" font-size="14.00">_layout</text>
</g>
<!-- ApplicationController -->
<g id="node3" class="node"><title>ApplicationController</title>
<polyline fill="none" stroke="black" points="580.631,-698.337 759.266,-698.337 "/>
<path fill="none" stroke="black" d="M759.266,-698.337C765.266,-698.337 771.266,-704.337 771.266,-710.337"/>
<polyline fill="none" stroke="black" points="771.266,-710.337 771.266,-818.337 "/>
<path fill="none" stroke="black" d="M771.266,-818.337C771.266,-824.337 765.266,-830.337 759.266,-830.337"/>
<polyline fill="none" stroke="black" points="759.266,-830.337 580.631,-830.337 "/>
<path fill="none" stroke="black" d="M580.631,-830.337C574.631,-830.337 568.631,-824.337 568.631,-818.337"/>
<polyline fill="none" stroke="black" points="568.631,-818.337 568.631,-710.337 "/>
<path fill="none" stroke="black" d="M568.631,-710.337C568.631,-704.337 574.631,-698.337 580.631,-698.337"/>
<text text-anchor="middle" x="669.949" y="-812.337" font-family="Times,serif" font-size="14.00">ApplicationController</text>
<polyline fill="none" stroke="black" points="568.631,-805.537 771.266,-805.537 "/>
<text text-anchor="start" x="576.631" y="-787.537" font-family="Times,serif" font-size="14.00">_one_time_conditions_valid_62?</text>
<text text-anchor="start" x="576.631" y="-770.737" font-family="Times,serif" font-size="14.00">_one_time_conditions_valid_66?</text>
<text text-anchor="start" x="576.631" y="-753.937" font-family="Times,serif" font-size="14.00">set_access_control_headers</text>
<polyline fill="none" stroke="black" points="568.631,-747.137 771.266,-747.137 "/>
<polyline fill="none" stroke="black" points="568.631,-723.137 771.266,-723.137 "/>
<text text-anchor="start" x="576.631" y="-705.137" font-family="Times,serif" font-size="14.00">_layout</text>
</g>
<!-- ApplicationController&#45;&gt;AnswersController -->
<g id="edge2" class="edge"><title>ApplicationController&#45;&gt;AnswersController</title>
<path fill="none" stroke="black" d="M568.557,-794.757C451.967,-829.736 263.046,-886.415 156.953,-918.245"/>
</g>
<!-- EditionsController -->
<g id="node4" class="node"><title>EditionsController</title>
<polyline fill="none" stroke="black" points="739.24,-0.5 871.972,-0.5 "/>
<path fill="none" stroke="black" d="M871.972,-0.5C877.972,-0.5 883.972,-6.5 883.972,-12.5"/>
<polyline fill="none" stroke="black" points="883.972,-12.5 883.972,-305.3 "/>
<path fill="none" stroke="black" d="M883.972,-305.3C883.972,-311.3 877.972,-317.3 871.972,-317.3"/>
<polyline fill="none" stroke="black" points="871.972,-317.3 739.24,-317.3 "/>
<path fill="none" stroke="black" d="M739.24,-317.3C733.24,-317.3 727.24,-311.3 727.24,-305.3"/>
<polyline fill="none" stroke="black" points="727.24,-305.3 727.24,-12.5 "/>
<path fill="none" stroke="black" d="M727.24,-12.5C727.24,-6.5 733.24,-0.5 739.24,-0.5"/>
<text text-anchor="middle" x="805.606" y="-299.3" font-family="Times,serif" font-size="14.00">EditionsController</text>
<polyline fill="none" stroke="black" points="727.24,-292.5 883.972,-292.5 "/>
<polyline fill="none" stroke="black" points="727.24,-268.5 883.972,-268.5 "/>
<text text-anchor="start" x="735.24" y="-250.5" font-family="Times,serif" font-size="14.00">collection_path</text>
<text text-anchor="start" x="735.24" y="-233.7" font-family="Times,serif" font-size="14.00">collection_url</text>
<text text-anchor="start" x="735.24" y="-216.9" font-family="Times,serif" font-size="14.00">edit_resource_path</text>
<text text-anchor="start" x="735.24" y="-200.1" font-family="Times,serif" font-size="14.00">edit_resource_url</text>
<text text-anchor="start" x="735.24" y="-183.3" font-family="Times,serif" font-size="14.00">new_resource_path</text>
<text text-anchor="start" x="735.24" y="-166.5" font-family="Times,serif" font-size="14.00">new_resource_url</text>
<text text-anchor="start" x="735.24" y="-149.7" font-family="Times,serif" font-size="14.00">parents_symbols</text>
<text text-anchor="start" x="735.24" y="-132.9" font-family="Times,serif" font-size="14.00">parents_symbols?</text>
<text text-anchor="start" x="735.24" y="-116.1" font-family="Times,serif" font-size="14.00">resource_class</text>
<text text-anchor="start" x="735.24" y="-99.3" font-family="Times,serif" font-size="14.00">resource_class?</text>
<text text-anchor="start" x="735.24" y="-82.5" font-family="Times,serif" font-size="14.00">resource_path</text>
<text text-anchor="start" x="735.24" y="-65.7" font-family="Times,serif" font-size="14.00">resource_url</text>
<text text-anchor="start" x="735.24" y="-48.9" font-family="Times,serif" font-size="14.00">resources_configuration</text>
<text text-anchor="start" x="735.24" y="-32.1" font-family="Times,serif" font-size="14.00">resources_configuration?</text>
<polyline fill="none" stroke="black" points="727.24,-25.3 883.972,-25.3 "/>
<text text-anchor="start" x="735.24" y="-7.3" font-family="Times,serif" font-size="14.00">_layout</text>
</g>
<!-- ApplicationController&#45;&gt;EditionsController -->
<g id="edge4" class="edge"><title>ApplicationController&#45;&gt;EditionsController</title>
<path fill="none" stroke="black" d="M684.79,-698.103C705.139,-607.282 742.34,-441.255 770.106,-317.335"/>
</g>
<!-- JournalEntriesController -->
<g id="node5" class="node"><title>JournalEntriesController</title>
<polyline fill="none" stroke="black" points="676.345,-1185.75 809.076,-1185.75 "/>
<path fill="none" stroke="black" d="M809.076,-1185.75C815.076,-1185.75 821.076,-1191.75 821.076,-1197.75"/>
<polyline fill="none" stroke="black" points="821.076,-1197.75 821.076,-1557.75 "/>
<path fill="none" stroke="black" d="M821.076,-1557.75C821.076,-1563.75 815.076,-1569.75 809.076,-1569.75"/>
<polyline fill="none" stroke="black" points="809.076,-1569.75 676.345,-1569.75 "/>
<path fill="none" stroke="black" d="M676.345,-1569.75C670.345,-1569.75 664.345,-1563.75 664.345,-1557.75"/>
<polyline fill="none" stroke="black" points="664.345,-1557.75 664.345,-1197.75 "/>
<path fill="none" stroke="black" d="M664.345,-1197.75C664.345,-1191.75 670.345,-1185.75 676.345,-1185.75"/>
<text text-anchor="middle" x="742.71" y="-1551.75" font-family="Times,serif" font-size="14.00">JournalEntriesController</text>
<polyline fill="none" stroke="black" points="664.345,-1544.95 821.076,-1544.95 "/>
<polyline fill="none" stroke="black" points="664.345,-1520.95 821.076,-1520.95 "/>
<text text-anchor="start" x="672.345" y="-1502.95" font-family="Times,serif" font-size="14.00">collection_path</text>
<text text-anchor="start" x="672.345" y="-1486.15" font-family="Times,serif" font-size="14.00">collection_url</text>
<text text-anchor="start" x="672.345" y="-1469.35" font-family="Times,serif" font-size="14.00">edit_parent_path</text>
<text text-anchor="start" x="672.345" y="-1452.55" font-family="Times,serif" font-size="14.00">edit_parent_url</text>
<text text-anchor="start" x="672.345" y="-1435.75" font-family="Times,serif" font-size="14.00">edit_resource_path</text>
<text text-anchor="start" x="672.345" y="-1418.95" font-family="Times,serif" font-size="14.00">edit_resource_url</text>
<text text-anchor="start" x="672.345" y="-1402.15" font-family="Times,serif" font-size="14.00">new_resource_path</text>
<text text-anchor="start" x="672.345" y="-1385.35" font-family="Times,serif" font-size="14.00">new_resource_url</text>
<text text-anchor="start" x="672.345" y="-1368.55" font-family="Times,serif" font-size="14.00">parent_path</text>
<text text-anchor="start" x="672.345" y="-1351.75" font-family="Times,serif" font-size="14.00">parent_url</text>
<text text-anchor="start" x="672.345" y="-1334.95" font-family="Times,serif" font-size="14.00">parents_symbols</text>
<text text-anchor="start" x="672.345" y="-1318.15" font-family="Times,serif" font-size="14.00">parents_symbols?</text>
<text text-anchor="start" x="672.345" y="-1301.35" font-family="Times,serif" font-size="14.00">resource_class</text>
<text text-anchor="start" x="672.345" y="-1284.55" font-family="Times,serif" font-size="14.00">resource_class?</text>
<text text-anchor="start" x="672.345" y="-1267.75" font-family="Times,serif" font-size="14.00">resource_path</text>
<text text-anchor="start" x="672.345" y="-1250.95" font-family="Times,serif" font-size="14.00">resource_url</text>
<text text-anchor="start" x="672.345" y="-1234.15" font-family="Times,serif" font-size="14.00">resources_configuration</text>
<text text-anchor="start" x="672.345" y="-1217.35" font-family="Times,serif" font-size="14.00">resources_configuration?</text>
<polyline fill="none" stroke="black" points="664.345,-1210.55 821.076,-1210.55 "/>
<text text-anchor="start" x="672.345" y="-1192.55" font-family="Times,serif" font-size="14.00">_layout</text>
</g>
<!-- ApplicationController&#45;&gt;JournalEntriesController -->
<g id="edge6" class="edge"><title>ApplicationController&#45;&gt;JournalEntriesController</title>
<path fill="none" stroke="black" d="M677.805,-830.565C687.809,-914.907 705.526,-1064.27 719.924,-1185.65"/>
</g>
<!-- MenteeProfilesController -->
<g id="node6" class="node"><title>MenteeProfilesController</title>
<polyline fill="none" stroke="black" points="1054.29,-993.384 1188.6,-993.384 "/>
<path fill="none" stroke="black" d="M1188.6,-993.384C1194.6,-993.384 1200.6,-999.384 1200.6,-1005.38"/>
<polyline fill="none" stroke="black" points="1200.6,-1005.38 1200.6,-1365.38 "/>
<path fill="none" stroke="black" d="M1200.6,-1365.38C1200.6,-1371.38 1194.6,-1377.38 1188.6,-1377.38"/>
<polyline fill="none" stroke="black" points="1188.6,-1377.38 1054.29,-1377.38 "/>
<path fill="none" stroke="black" d="M1054.29,-1377.38C1048.29,-1377.38 1042.29,-1371.38 1042.29,-1365.38"/>
<polyline fill="none" stroke="black" points="1042.29,-1365.38 1042.29,-1005.38 "/>
<path fill="none" stroke="black" d="M1042.29,-1005.38C1042.29,-999.384 1048.29,-993.384 1054.29,-993.384"/>
<text text-anchor="middle" x="1121.44" y="-1359.38" font-family="Times,serif" font-size="14.00">MenteeProfilesController</text>
<polyline fill="none" stroke="black" points="1042.29,-1352.58 1200.6,-1352.58 "/>
<polyline fill="none" stroke="black" points="1042.29,-1328.58 1200.6,-1328.58 "/>
<text text-anchor="start" x="1050.29" y="-1310.58" font-family="Times,serif" font-size="14.00">collection_path</text>
<text text-anchor="start" x="1050.29" y="-1293.78" font-family="Times,serif" font-size="14.00">collection_url</text>
<text text-anchor="start" x="1050.29" y="-1276.98" font-family="Times,serif" font-size="14.00">edit_parent_path</text>
<text text-anchor="start" x="1050.29" y="-1260.18" font-family="Times,serif" font-size="14.00">edit_parent_url</text>
<text text-anchor="start" x="1050.29" y="-1243.38" font-family="Times,serif" font-size="14.00">edit_resource_path</text>
<text text-anchor="start" x="1050.29" y="-1226.58" font-family="Times,serif" font-size="14.00">edit_resource_url</text>
<text text-anchor="start" x="1050.29" y="-1209.78" font-family="Times,serif" font-size="14.00">new_resource_path</text>
<text text-anchor="start" x="1050.29" y="-1192.98" font-family="Times,serif" font-size="14.00">new_resource_url</text>
<text text-anchor="start" x="1050.29" y="-1176.18" font-family="Times,serif" font-size="14.00">parent_path</text>
<text text-anchor="start" x="1050.29" y="-1159.38" font-family="Times,serif" font-size="14.00">parent_url</text>
<text text-anchor="start" x="1050.29" y="-1142.58" font-family="Times,serif" font-size="14.00">parents_symbols</text>
<text text-anchor="start" x="1050.29" y="-1125.78" font-family="Times,serif" font-size="14.00">parents_symbols?</text>
<text text-anchor="start" x="1050.29" y="-1108.98" font-family="Times,serif" font-size="14.00">resource_class</text>
<text text-anchor="start" x="1050.29" y="-1092.18" font-family="Times,serif" font-size="14.00">resource_class?</text>
<text text-anchor="start" x="1050.29" y="-1075.38" font-family="Times,serif" font-size="14.00">resource_path</text>
<text text-anchor="start" x="1050.29" y="-1058.58" font-family="Times,serif" font-size="14.00">resource_url</text>
<text text-anchor="start" x="1050.29" y="-1041.78" font-family="Times,serif" font-size="14.00">resources_configuration</text>
<text text-anchor="start" x="1050.29" y="-1024.98" font-family="Times,serif" font-size="14.00">resources_configuration?</text>
<polyline fill="none" stroke="black" points="1042.29,-1018.18 1200.6,-1018.18 "/>
<text text-anchor="start" x="1050.29" y="-1000.18" font-family="Times,serif" font-size="14.00">_layout</text>
</g>
<!-- ApplicationController&#45;&gt;MenteeProfilesController -->
<g id="edge8" class="edge"><title>ApplicationController&#45;&gt;MenteeProfilesController</title>
<path fill="none" stroke="black" d="M740.992,-830.589C822.818,-906.897 956.894,-1031.93 1042.08,-1111.37"/>
</g>
<!-- MenteesController -->
<g id="node7" class="node"><title>MenteesController</title>
<polyline fill="none" stroke="black" points="264.187,-1121.8 396.918,-1121.8 "/>
<path fill="none" stroke="black" d="M396.918,-1121.8C402.918,-1121.8 408.918,-1127.8 408.918,-1133.8"/>
<polyline fill="none" stroke="black" points="408.918,-1133.8 408.918,-1426.6 "/>
<path fill="none" stroke="black" d="M408.918,-1426.6C408.918,-1432.6 402.918,-1438.6 396.918,-1438.6"/>
<polyline fill="none" stroke="black" points="396.918,-1438.6 264.187,-1438.6 "/>
<path fill="none" stroke="black" d="M264.187,-1438.6C258.187,-1438.6 252.187,-1432.6 252.187,-1426.6"/>
<polyline fill="none" stroke="black" points="252.187,-1426.6 252.187,-1133.8 "/>
<path fill="none" stroke="black" d="M252.187,-1133.8C252.187,-1127.8 258.187,-1121.8 264.187,-1121.8"/>
<text text-anchor="middle" x="330.553" y="-1420.6" font-family="Times,serif" font-size="14.00">MenteesController</text>
<polyline fill="none" stroke="black" points="252.187,-1413.8 408.918,-1413.8 "/>
<polyline fill="none" stroke="black" points="252.187,-1389.8 408.918,-1389.8 "/>
<text text-anchor="start" x="260.187" y="-1371.8" font-family="Times,serif" font-size="14.00">collection_path</text>
<text text-anchor="start" x="260.187" y="-1355" font-family="Times,serif" font-size="14.00">collection_url</text>
<text text-anchor="start" x="260.187" y="-1338.2" font-family="Times,serif" font-size="14.00">edit_resource_path</text>
<text text-anchor="start" x="260.187" y="-1321.4" font-family="Times,serif" font-size="14.00">edit_resource_url</text>
<text text-anchor="start" x="260.187" y="-1304.6" font-family="Times,serif" font-size="14.00">new_resource_path</text>
<text text-anchor="start" x="260.187" y="-1287.8" font-family="Times,serif" font-size="14.00">new_resource_url</text>
<text text-anchor="start" x="260.187" y="-1271" font-family="Times,serif" font-size="14.00">parents_symbols</text>
<text text-anchor="start" x="260.187" y="-1254.2" font-family="Times,serif" font-size="14.00">parents_symbols?</text>
<text text-anchor="start" x="260.187" y="-1237.4" font-family="Times,serif" font-size="14.00">resource_class</text>
<text text-anchor="start" x="260.187" y="-1220.6" font-family="Times,serif" font-size="14.00">resource_class?</text>
<text text-anchor="start" x="260.187" y="-1203.8" font-family="Times,serif" font-size="14.00">resource_path</text>
<text text-anchor="start" x="260.187" y="-1187" font-family="Times,serif" font-size="14.00">resource_url</text>
<text text-anchor="start" x="260.187" y="-1170.2" font-family="Times,serif" font-size="14.00">resources_configuration</text>
<text text-anchor="start" x="260.187" y="-1153.4" font-family="Times,serif" font-size="14.00">resources_configuration?</text>
<polyline fill="none" stroke="black" points="252.187,-1146.6 408.918,-1146.6 "/>
<text text-anchor="start" x="260.187" y="-1128.6" font-family="Times,serif" font-size="14.00">_layout</text>
</g>
<!-- ApplicationController&#45;&gt;MenteesController -->
<g id="edge10" class="edge"><title>ApplicationController&#45;&gt;MenteesController</title>
<path fill="none" stroke="black" d="M626.447,-830.458C571.668,-913.718 476.556,-1058.28 408.96,-1161.02"/>
</g>
<!-- QuestionGroupsController -->
<g id="node8" class="node"><title>QuestionGroupsController</title>
<polyline fill="none" stroke="black" points="29.1659,-327.111 170.483,-327.111 "/>
<path fill="none" stroke="black" d="M170.483,-327.111C176.483,-327.111 182.483,-333.111 182.483,-339.111"/>
<polyline fill="none" stroke="black" points="182.483,-339.111 182.483,-699.111 "/>
<path fill="none" stroke="black" d="M182.483,-699.111C182.483,-705.111 176.483,-711.111 170.483,-711.111"/>
<polyline fill="none" stroke="black" points="170.483,-711.111 29.1659,-711.111 "/>
<path fill="none" stroke="black" d="M29.1659,-711.111C23.1659,-711.111 17.1659,-705.111 17.1659,-699.111"/>
<polyline fill="none" stroke="black" points="17.1659,-699.111 17.1659,-339.111 "/>
<path fill="none" stroke="black" d="M17.1659,-339.111C17.1659,-333.111 23.1659,-327.111 29.1659,-327.111"/>
<text text-anchor="middle" x="99.8246" y="-693.111" font-family="Times,serif" font-size="14.00">QuestionGroupsController</text>
<polyline fill="none" stroke="black" points="17.1659,-686.311 182.483,-686.311 "/>
<polyline fill="none" stroke="black" points="17.1659,-662.311 182.483,-662.311 "/>
<text text-anchor="start" x="25.1659" y="-644.311" font-family="Times,serif" font-size="14.00">collection_path</text>
<text text-anchor="start" x="25.1659" y="-627.511" font-family="Times,serif" font-size="14.00">collection_url</text>
<text text-anchor="start" x="25.1659" y="-610.711" font-family="Times,serif" font-size="14.00">edit_parent_path</text>
<text text-anchor="start" x="25.1659" y="-593.911" font-family="Times,serif" font-size="14.00">edit_parent_url</text>
<text text-anchor="start" x="25.1659" y="-577.111" font-family="Times,serif" font-size="14.00">edit_resource_path</text>
<text text-anchor="start" x="25.1659" y="-560.311" font-family="Times,serif" font-size="14.00">edit_resource_url</text>
<text text-anchor="start" x="25.1659" y="-543.511" font-family="Times,serif" font-size="14.00">new_resource_path</text>
<text text-anchor="start" x="25.1659" y="-526.711" font-family="Times,serif" font-size="14.00">new_resource_url</text>
<text text-anchor="start" x="25.1659" y="-509.911" font-family="Times,serif" font-size="14.00">parent_path</text>
<text text-anchor="start" x="25.1659" y="-493.111" font-family="Times,serif" font-size="14.00">parent_url</text>
<text text-anchor="start" x="25.1659" y="-476.311" font-family="Times,serif" font-size="14.00">parents_symbols</text>
<text text-anchor="start" x="25.1659" y="-459.511" font-family="Times,serif" font-size="14.00">parents_symbols?</text>
<text text-anchor="start" x="25.1659" y="-442.711" font-family="Times,serif" font-size="14.00">resource_class</text>
<text text-anchor="start" x="25.1659" y="-425.911" font-family="Times,serif" font-size="14.00">resource_class?</text>
<text text-anchor="start" x="25.1659" y="-409.111" font-family="Times,serif" font-size="14.00">resource_path</text>
<text text-anchor="start" x="25.1659" y="-392.311" font-family="Times,serif" font-size="14.00">resource_url</text>
<text text-anchor="start" x="25.1659" y="-375.511" font-family="Times,serif" font-size="14.00">resources_configuration</text>
<text text-anchor="start" x="25.1659" y="-358.711" font-family="Times,serif" font-size="14.00">resources_configuration?</text>
<polyline fill="none" stroke="black" points="17.1659,-351.911 182.483,-351.911 "/>
<text text-anchor="start" x="25.1659" y="-333.911" font-family="Times,serif" font-size="14.00">_layout</text>
</g>
<!-- ApplicationController&#45;&gt;QuestionGroupsController -->
<g id="edge12" class="edge"><title>ApplicationController&#45;&gt;QuestionGroupsController</title>
<path fill="none" stroke="black" d="M568.351,-720.637C458.384,-673.337 285.084,-598.797 182.928,-554.856"/>
</g>
<!-- QuestionsController -->
<g id="node9" class="node"><title>QuestionsController</title>
<polyline fill="none" stroke="black" points="1220.6,-602.367 1353.33,-602.367 "/>
<path fill="none" stroke="black" d="M1353.33,-602.367C1359.33,-602.367 1365.33,-608.367 1365.33,-614.367"/>
<polyline fill="none" stroke="black" points="1365.33,-614.367 1365.33,-974.367 "/>
<path fill="none" stroke="black" d="M1365.33,-974.367C1365.33,-980.367 1359.33,-986.367 1353.33,-986.367"/>
<polyline fill="none" stroke="black" points="1353.33,-986.367 1220.6,-986.367 "/>
<path fill="none" stroke="black" d="M1220.6,-986.367C1214.6,-986.367 1208.6,-980.367 1208.6,-974.367"/>
<polyline fill="none" stroke="black" points="1208.6,-974.367 1208.6,-614.367 "/>
<path fill="none" stroke="black" d="M1208.6,-614.367C1208.6,-608.367 1214.6,-602.367 1220.6,-602.367"/>
<text text-anchor="middle" x="1286.97" y="-968.367" font-family="Times,serif" font-size="14.00">QuestionsController</text>
<polyline fill="none" stroke="black" points="1208.6,-961.567 1365.33,-961.567 "/>
<polyline fill="none" stroke="black" points="1208.6,-937.567 1365.33,-937.567 "/>
<text text-anchor="start" x="1216.6" y="-919.567" font-family="Times,serif" font-size="14.00">collection_path</text>
<text text-anchor="start" x="1216.6" y="-902.767" font-family="Times,serif" font-size="14.00">collection_url</text>
<text text-anchor="start" x="1216.6" y="-885.967" font-family="Times,serif" font-size="14.00">edit_parent_path</text>
<text text-anchor="start" x="1216.6" y="-869.167" font-family="Times,serif" font-size="14.00">edit_parent_url</text>
<text text-anchor="start" x="1216.6" y="-852.367" font-family="Times,serif" font-size="14.00">edit_resource_path</text>
<text text-anchor="start" x="1216.6" y="-835.567" font-family="Times,serif" font-size="14.00">edit_resource_url</text>
<text text-anchor="start" x="1216.6" y="-818.767" font-family="Times,serif" font-size="14.00">new_resource_path</text>
<text text-anchor="start" x="1216.6" y="-801.967" font-family="Times,serif" font-size="14.00">new_resource_url</text>
<text text-anchor="start" x="1216.6" y="-785.167" font-family="Times,serif" font-size="14.00">parent_path</text>
<text text-anchor="start" x="1216.6" y="-768.367" font-family="Times,serif" font-size="14.00">parent_url</text>
<text text-anchor="start" x="1216.6" y="-751.567" font-family="Times,serif" font-size="14.00">parents_symbols</text>
<text text-anchor="start" x="1216.6" y="-734.767" font-family="Times,serif" font-size="14.00">parents_symbols?</text>
<text text-anchor="start" x="1216.6" y="-717.967" font-family="Times,serif" font-size="14.00">resource_class</text>
<text text-anchor="start" x="1216.6" y="-701.167" font-family="Times,serif" font-size="14.00">resource_class?</text>
<text text-anchor="start" x="1216.6" y="-684.367" font-family="Times,serif" font-size="14.00">resource_path</text>
<text text-anchor="start" x="1216.6" y="-667.567" font-family="Times,serif" font-size="14.00">resource_url</text>
<text text-anchor="start" x="1216.6" y="-650.767" font-family="Times,serif" font-size="14.00">resources_configuration</text>
<text text-anchor="start" x="1216.6" y="-633.967" font-family="Times,serif" font-size="14.00">resources_configuration?</text>
<polyline fill="none" stroke="black" points="1208.6,-627.167 1365.33,-627.167 "/>
<text text-anchor="start" x="1216.6" y="-609.167" font-family="Times,serif" font-size="14.00">_layout</text>
</g>
<!-- ApplicationController&#45;&gt;QuestionsController -->
<g id="edge14" class="edge"><title>ApplicationController&#45;&gt;QuestionsController</title>
<path fill="none" stroke="black" d="M771.491,-769.279C893.958,-775.239 1097.18,-785.13 1208.35,-790.541"/>
</g>
<!-- SurveysController -->
<g id="node10" class="node"><title>SurveysController</title>
<polyline fill="none" stroke="black" points="323.925,-25.0952 456.657,-25.0952 "/>
<path fill="none" stroke="black" d="M456.657,-25.0952C462.657,-25.0952 468.657,-31.0952 468.657,-37.0952"/>
<polyline fill="none" stroke="black" points="468.657,-37.0952 468.657,-397.095 "/>
<path fill="none" stroke="black" d="M468.657,-397.095C468.657,-403.095 462.657,-409.095 456.657,-409.095"/>
<polyline fill="none" stroke="black" points="456.657,-409.095 323.925,-409.095 "/>
<path fill="none" stroke="black" d="M323.925,-409.095C317.925,-409.095 311.925,-403.095 311.925,-397.095"/>
<polyline fill="none" stroke="black" points="311.925,-397.095 311.925,-37.0952 "/>
<path fill="none" stroke="black" d="M311.925,-37.0952C311.925,-31.0952 317.925,-25.0952 323.925,-25.0952"/>
<text text-anchor="middle" x="390.291" y="-391.095" font-family="Times,serif" font-size="14.00">SurveysController</text>
<polyline fill="none" stroke="black" points="311.925,-384.295 468.657,-384.295 "/>
<polyline fill="none" stroke="black" points="311.925,-360.295 468.657,-360.295 "/>
<text text-anchor="start" x="319.925" y="-342.295" font-family="Times,serif" font-size="14.00">collection_path</text>
<text text-anchor="start" x="319.925" y="-325.495" font-family="Times,serif" font-size="14.00">collection_url</text>
<text text-anchor="start" x="319.925" y="-308.695" font-family="Times,serif" font-size="14.00">edit_parent_path</text>
<text text-anchor="start" x="319.925" y="-291.895" font-family="Times,serif" font-size="14.00">edit_parent_url</text>
<text text-anchor="start" x="319.925" y="-275.095" font-family="Times,serif" font-size="14.00">edit_resource_path</text>
<text text-anchor="start" x="319.925" y="-258.295" font-family="Times,serif" font-size="14.00">edit_resource_url</text>
<text text-anchor="start" x="319.925" y="-241.495" font-family="Times,serif" font-size="14.00">new_resource_path</text>
<text text-anchor="start" x="319.925" y="-224.695" font-family="Times,serif" font-size="14.00">new_resource_url</text>
<text text-anchor="start" x="319.925" y="-207.895" font-family="Times,serif" font-size="14.00">parent_path</text>
<text text-anchor="start" x="319.925" y="-191.095" font-family="Times,serif" font-size="14.00">parent_url</text>
<text text-anchor="start" x="319.925" y="-174.295" font-family="Times,serif" font-size="14.00">parents_symbols</text>
<text text-anchor="start" x="319.925" y="-157.495" font-family="Times,serif" font-size="14.00">parents_symbols?</text>
<text text-anchor="start" x="319.925" y="-140.695" font-family="Times,serif" font-size="14.00">resource_class</text>
<text text-anchor="start" x="319.925" y="-123.895" font-family="Times,serif" font-size="14.00">resource_class?</text>
<text text-anchor="start" x="319.925" y="-107.095" font-family="Times,serif" font-size="14.00">resource_path</text>
<text text-anchor="start" x="319.925" y="-90.2952" font-family="Times,serif" font-size="14.00">resource_url</text>
<text text-anchor="start" x="319.925" y="-73.4952" font-family="Times,serif" font-size="14.00">resources_configuration</text>
<text text-anchor="start" x="319.925" y="-56.6952" font-family="Times,serif" font-size="14.00">resources_configuration?</text>
<polyline fill="none" stroke="black" points="311.925,-49.8952 468.657,-49.8952 "/>
<text text-anchor="start" x="319.925" y="-31.8952" font-family="Times,serif" font-size="14.00">_layout</text>
</g>
<!-- ApplicationController&#45;&gt;SurveysController -->
<g id="edge16" class="edge"><title>ApplicationController&#45;&gt;SurveysController</title>
<path fill="none" stroke="black" d="M636.216,-698.327C594.994,-617.664 523.93,-478.603 468.761,-370.648"/>
</g>
<!-- UsersController -->
<g id="node11" class="node"><title>UsersController</title>
<polyline fill="none" stroke="black" points="1120.28,-340.947 1201.71,-340.947 "/>
<path fill="none" stroke="black" d="M1201.71,-340.947C1207.71,-340.947 1213.71,-346.947 1213.71,-352.947"/>
<polyline fill="none" stroke="black" points="1213.71,-352.947 1213.71,-427.347 "/>
<path fill="none" stroke="black" d="M1213.71,-427.347C1213.71,-433.347 1207.71,-439.347 1201.71,-439.347"/>
<polyline fill="none" stroke="black" points="1201.71,-439.347 1120.28,-439.347 "/>
<path fill="none" stroke="black" d="M1120.28,-439.347C1114.28,-439.347 1108.28,-433.347 1108.28,-427.347"/>
<polyline fill="none" stroke="black" points="1108.28,-427.347 1108.28,-352.947 "/>
<path fill="none" stroke="black" d="M1108.28,-352.947C1108.28,-346.947 1114.28,-340.947 1120.28,-340.947"/>
<text text-anchor="middle" x="1161" y="-421.347" font-family="Times,serif" font-size="14.00">UsersController</text>
<polyline fill="none" stroke="black" points="1108.28,-414.547 1213.71,-414.547 "/>
<text text-anchor="start" x="1116.28" y="-396.547" font-family="Times,serif" font-size="14.00">data</text>
<polyline fill="none" stroke="black" points="1108.28,-389.747 1213.71,-389.747 "/>
<polyline fill="none" stroke="black" points="1108.28,-365.747 1213.71,-365.747 "/>
<text text-anchor="start" x="1116.28" y="-347.747" font-family="Times,serif" font-size="14.00">_layout</text>
</g>
<!-- ApplicationController&#45;&gt;UsersController -->
<g id="edge18" class="edge"><title>ApplicationController&#45;&gt;UsersController</title>
<path fill="none" stroke="black" d="M756.608,-698.301C858.343,-620.776 1023.85,-494.654 1108.1,-430.455"/>
</g>
</g>
</svg>
