<?xml version="1.0" encoding="UTF-8" standalone="no"?>
<!DOCTYPE svg PUBLIC "-//W3C//DTD SVG 1.1//EN"
 "http://www.w3.org/Graphics/SVG/1.1/DTD/svg11.dtd">
<!-- Generated by graphviz version 2.28.0 (20130122.0304)
 -->
<!-- Title: controllers_diagram Pages: 1 -->
<svg width="815pt" height="864pt"
 viewBox="0.00 0.00 815.19 864.31" xmlns="http://www.w3.org/2000/svg" xmlns:xlink="http://www.w3.org/1999/xlink">
<g id="graph1" class="graph" transform="scale(1 1) rotate(0) translate(4 860.313)">
<title>controllers_diagram</title>
<polygon fill="white" stroke="white" points="-4,5 -4,-860.313 812.193,-860.313 812.193,5 -4,5"/>
<!-- _diagram_info -->
<g id="node1" class="node"><title>_diagram_info</title>
<text text-anchor="start" x="607.817" y="-249" font-family="Times,serif" font-size="13.00">Controllers diagram</text>
<text text-anchor="start" x="607.817" y="-233.4" font-family="Times,serif" font-size="13.00">Date: Jun 02 2013 &#45; 17:32</text>
<text text-anchor="start" x="607.817" y="-217.8" font-family="Times,serif" font-size="13.00">Migration version: 20130310054420</text>
<text text-anchor="start" x="607.817" y="-202.2" font-family="Times,serif" font-size="13.00">Generated by RailRoady 1.1.0</text>
<text text-anchor="start" x="607.817" y="-186.6" font-family="Times,serif" font-size="13.00">http://railroady.prestonlee.com</text>
</g>
<!-- AnswersController -->
<g id="node2" class="node"><title>AnswersController</title>
<polyline fill="none" stroke="black" points="11.8171,-146.013 144.549,-146.013 "/>
<path fill="none" stroke="black" d="M144.549,-146.013C150.549,-146.013 156.549,-152.013 156.549,-158.013"/>
<polyline fill="none" stroke="black" points="156.549,-158.013 156.549,-518.013 "/>
<path fill="none" stroke="black" d="M156.549,-518.013C156.549,-524.013 150.549,-530.013 144.549,-530.013"/>
<polyline fill="none" stroke="black" points="144.549,-530.013 11.8171,-530.013 "/>
<path fill="none" stroke="black" d="M11.8171,-530.013C5.81714,-530.013 -0.182861,-524.013 -0.182861,-518.013"/>
<polyline fill="none" stroke="black" points="-0.182861,-518.013 -0.182861,-158.013 "/>
<path fill="none" stroke="black" d="M-0.182861,-158.013C-0.182861,-152.013 5.81714,-146.013 11.8171,-146.013"/>
<text text-anchor="middle" x="78.1829" y="-512.013" font-family="Times,serif" font-size="14.00">AnswersController</text>
<polyline fill="none" stroke="black" points="-0.182861,-505.213 156.549,-505.213 "/>
<polyline fill="none" stroke="black" points="-0.182861,-481.213 156.549,-481.213 "/>
<text text-anchor="start" x="7.81714" y="-463.213" font-family="Times,serif" font-size="14.00">collection_path</text>
<text text-anchor="start" x="7.81714" y="-446.413" font-family="Times,serif" font-size="14.00">collection_url</text>
<text text-anchor="start" x="7.81714" y="-429.613" font-family="Times,serif" font-size="14.00">edit_parent_path</text>
<text text-anchor="start" x="7.81714" y="-412.813" font-family="Times,serif" font-size="14.00">edit_parent_url</text>
<text text-anchor="start" x="7.81714" y="-396.013" font-family="Times,serif" font-size="14.00">edit_resource_path</text>
<text text-anchor="start" x="7.81714" y="-379.213" font-family="Times,serif" font-size="14.00">edit_resource_url</text>
<text text-anchor="start" x="7.81714" y="-362.413" font-family="Times,serif" font-size="14.00">new_resource_path</text>
<text text-anchor="start" x="7.81714" y="-345.613" font-family="Times,serif" font-size="14.00">new_resource_url</text>
<text text-anchor="start" x="7.81714" y="-328.813" font-family="Times,serif" font-size="14.00">parent_path</text>
<text text-anchor="start" x="7.81714" y="-312.013" font-family="Times,serif" font-size="14.00">parent_url</text>
<text text-anchor="start" x="7.81714" y="-295.213" font-family="Times,serif" font-size="14.00">parents_symbols</text>
<text text-anchor="start" x="7.81714" y="-278.413" font-family="Times,serif" font-size="14.00">parents_symbols?</text>
<text text-anchor="start" x="7.81714" y="-261.613" font-family="Times,serif" font-size="14.00">resource_class</text>
<text text-anchor="start" x="7.81714" y="-244.813" font-family="Times,serif" font-size="14.00">resource_class?</text>
<text text-anchor="start" x="7.81714" y="-228.013" font-family="Times,serif" font-size="14.00">resource_path</text>
<text text-anchor="start" x="7.81714" y="-211.213" font-family="Times,serif" font-size="14.00">resource_url</text>
<text text-anchor="start" x="7.81714" y="-194.413" font-family="Times,serif" font-size="14.00">resources_configuration</text>
<text text-anchor="start" x="7.81714" y="-177.613" font-family="Times,serif" font-size="14.00">resources_configuration?</text>
<polyline fill="none" stroke="black" points="-0.182861,-170.813 156.549,-170.813 "/>
<text text-anchor="start" x="7.81714" y="-152.813" font-family="Times,serif" font-size="14.00">_layout</text>
</g>
<!-- ApplicationController -->
<g id="node3" class="node"><title>ApplicationController</title>
<polyline fill="none" stroke="black" points="241.902,-396.036 420.537,-396.036 "/>
<path fill="none" stroke="black" d="M420.537,-396.036C426.537,-396.036 432.537,-402.036 432.537,-408.036"/>
<polyline fill="none" stroke="black" points="432.537,-408.036 432.537,-482.436 "/>
<path fill="none" stroke="black" d="M432.537,-482.436C432.537,-488.436 426.537,-494.436 420.537,-494.436"/>
<polyline fill="none" stroke="black" points="420.537,-494.436 241.902,-494.436 "/>
<path fill="none" stroke="black" d="M241.902,-494.436C235.902,-494.436 229.902,-488.436 229.902,-482.436"/>
<polyline fill="none" stroke="black" points="229.902,-482.436 229.902,-408.036 "/>
<path fill="none" stroke="black" d="M229.902,-408.036C229.902,-402.036 235.902,-396.036 241.902,-396.036"/>
<text text-anchor="middle" x="331.219" y="-476.436" font-family="Times,serif" font-size="14.00">ApplicationController</text>
<polyline fill="none" stroke="black" points="229.902,-469.636 432.537,-469.636 "/>
<text text-anchor="start" x="237.902" y="-451.636" font-family="Times,serif" font-size="14.00">_one_time_conditions_valid_62?</text>
<polyline fill="none" stroke="black" points="229.902,-444.836 432.537,-444.836 "/>
<polyline fill="none" stroke="black" points="229.902,-420.836 432.537,-420.836 "/>
<text text-anchor="start" x="237.902" y="-402.836" font-family="Times,serif" font-size="14.00">_layout</text>
</g>
<!-- ApplicationController&#45;&gt;AnswersController -->
<g id="edge2" class="edge"><title>ApplicationController&#45;&gt;AnswersController</title>
<path fill="none" stroke="black" d="M229.758,-402.242C205.421,-391.929 179.797,-381.071 156.683,-371.277"/>
</g>
<!-- JournalEntriesController -->
<g id="node4" class="node"><title>JournalEntriesController</title>
<polyline fill="none" stroke="black" points="372.257,-0.5 504.989,-0.5 "/>
<path fill="none" stroke="black" d="M504.989,-0.5C510.989,-0.5 516.989,-6.5 516.989,-12.5"/>
<polyline fill="none" stroke="black" points="516.989,-12.5 516.989,-372.5 "/>
<path fill="none" stroke="black" d="M516.989,-372.5C516.989,-378.5 510.989,-384.5 504.989,-384.5"/>
<polyline fill="none" stroke="black" points="504.989,-384.5 372.257,-384.5 "/>
<path fill="none" stroke="black" d="M372.257,-384.5C366.257,-384.5 360.257,-378.5 360.257,-372.5"/>
<polyline fill="none" stroke="black" points="360.257,-372.5 360.257,-12.5 "/>
<path fill="none" stroke="black" d="M360.257,-12.5C360.257,-6.5 366.257,-0.5 372.257,-0.5"/>
<text text-anchor="middle" x="438.623" y="-366.5" font-family="Times,serif" font-size="14.00">JournalEntriesController</text>
<polyline fill="none" stroke="black" points="360.257,-359.7 516.989,-359.7 "/>
<polyline fill="none" stroke="black" points="360.257,-335.7 516.989,-335.7 "/>
<text text-anchor="start" x="368.257" y="-317.7" font-family="Times,serif" font-size="14.00">collection_path</text>
<text text-anchor="start" x="368.257" y="-300.9" font-family="Times,serif" font-size="14.00">collection_url</text>
<text text-anchor="start" x="368.257" y="-284.1" font-family="Times,serif" font-size="14.00">edit_parent_path</text>
<text text-anchor="start" x="368.257" y="-267.3" font-family="Times,serif" font-size="14.00">edit_parent_url</text>
<text text-anchor="start" x="368.257" y="-250.5" font-family="Times,serif" font-size="14.00">edit_resource_path</text>
<text text-anchor="start" x="368.257" y="-233.7" font-family="Times,serif" font-size="14.00">edit_resource_url</text>
<text text-anchor="start" x="368.257" y="-216.9" font-family="Times,serif" font-size="14.00">new_resource_path</text>
<text text-anchor="start" x="368.257" y="-200.1" font-family="Times,serif" font-size="14.00">new_resource_url</text>
<text text-anchor="start" x="368.257" y="-183.3" font-family="Times,serif" font-size="14.00">parent_path</text>
<text text-anchor="start" x="368.257" y="-166.5" font-family="Times,serif" font-size="14.00">parent_url</text>
<text text-anchor="start" x="368.257" y="-149.7" font-family="Times,serif" font-size="14.00">parents_symbols</text>
<text text-anchor="start" x="368.257" y="-132.9" font-family="Times,serif" font-size="14.00">parents_symbols?</text>
<text text-anchor="start" x="368.257" y="-116.1" font-family="Times,serif" font-size="14.00">resource_class</text>
<text text-anchor="start" x="368.257" y="-99.3" font-family="Times,serif" font-size="14.00">resource_class?</text>
<text text-anchor="start" x="368.257" y="-82.5" font-family="Times,serif" font-size="14.00">resource_path</text>
<text text-anchor="start" x="368.257" y="-65.7" font-family="Times,serif" font-size="14.00">resource_url</text>
<text text-anchor="start" x="368.257" y="-48.9" font-family="Times,serif" font-size="14.00">resources_configuration</text>
<text text-anchor="start" x="368.257" y="-32.1" font-family="Times,serif" font-size="14.00">resources_configuration?</text>
<polyline fill="none" stroke="black" points="360.257,-25.3 516.989,-25.3 "/>
<text text-anchor="start" x="368.257" y="-7.3" font-family="Times,serif" font-size="14.00">_layout</text>
</g>
<!-- ApplicationController&#45;&gt;JournalEntriesController -->
<g id="edge4" class="edge"><title>ApplicationController&#45;&gt;JournalEntriesController</title>
<path fill="none" stroke="black" d="M352.183,-395.906C354.686,-390.016 357.342,-383.765 360.111,-377.249"/>
</g>
<!-- MenteesController -->
<g id="node5" class="node"><title>MenteesController</title>
<polyline fill="none" stroke="black" points="155.301,-539.013 288.032,-539.013 "/>
<path fill="none" stroke="black" d="M288.032,-539.013C294.032,-539.013 300.032,-545.013 300.032,-551.013"/>
<polyline fill="none" stroke="black" points="300.032,-551.013 300.032,-843.813 "/>
<path fill="none" stroke="black" d="M300.032,-843.813C300.032,-849.813 294.032,-855.813 288.032,-855.813"/>
<polyline fill="none" stroke="black" points="288.032,-855.813 155.301,-855.813 "/>
<path fill="none" stroke="black" d="M155.301,-855.813C149.301,-855.813 143.301,-849.813 143.301,-843.813"/>
<polyline fill="none" stroke="black" points="143.301,-843.813 143.301,-551.013 "/>
<path fill="none" stroke="black" d="M143.301,-551.013C143.301,-545.013 149.301,-539.013 155.301,-539.013"/>
<text text-anchor="middle" x="221.666" y="-837.813" font-family="Times,serif" font-size="14.00">MenteesController</text>
<polyline fill="none" stroke="black" points="143.301,-831.013 300.032,-831.013 "/>
<polyline fill="none" stroke="black" points="143.301,-807.013 300.032,-807.013 "/>
<text text-anchor="start" x="151.301" y="-789.013" font-family="Times,serif" font-size="14.00">collection_path</text>
<text text-anchor="start" x="151.301" y="-772.213" font-family="Times,serif" font-size="14.00">collection_url</text>
<text text-anchor="start" x="151.301" y="-755.413" font-family="Times,serif" font-size="14.00">edit_resource_path</text>
<text text-anchor="start" x="151.301" y="-738.613" font-family="Times,serif" font-size="14.00">edit_resource_url</text>
<text text-anchor="start" x="151.301" y="-721.813" font-family="Times,serif" font-size="14.00">new_resource_path</text>
<text text-anchor="start" x="151.301" y="-705.013" font-family="Times,serif" font-size="14.00">new_resource_url</text>
<text text-anchor="start" x="151.301" y="-688.213" font-family="Times,serif" font-size="14.00">parents_symbols</text>
<text text-anchor="start" x="151.301" y="-671.413" font-family="Times,serif" font-size="14.00">parents_symbols?</text>
<text text-anchor="start" x="151.301" y="-654.613" font-family="Times,serif" font-size="14.00">resource_class</text>
<text text-anchor="start" x="151.301" y="-637.813" font-family="Times,serif" font-size="14.00">resource_class?</text>
<text text-anchor="start" x="151.301" y="-621.013" font-family="Times,serif" font-size="14.00">resource_path</text>
<text text-anchor="start" x="151.301" y="-604.213" font-family="Times,serif" font-size="14.00">resource_url</text>
<text text-anchor="start" x="151.301" y="-587.413" font-family="Times,serif" font-size="14.00">resources_configuration</text>
<text text-anchor="start" x="151.301" y="-570.613" font-family="Times,serif" font-size="14.00">resources_configuration?</text>
<polyline fill="none" stroke="black" points="143.301,-563.813 300.032,-563.813 "/>
<text text-anchor="start" x="151.301" y="-545.813" font-family="Times,serif" font-size="14.00">_layout</text>
</g>
<!-- ApplicationController&#45;&gt;MenteesController -->
<g id="edge6" class="edge"><title>ApplicationController&#45;&gt;MenteesController</title>
<path fill="none" stroke="black" d="M309.836,-494.456C304.045,-507.787 297.449,-522.971 290.531,-538.895"/>
</g>
<!-- QuestionsController -->
<g id="node6" class="node"><title>QuestionsController</title>
<polyline fill="none" stroke="black" points="516.543,-396.888 649.275,-396.888 "/>
<path fill="none" stroke="black" d="M649.275,-396.888C655.275,-396.888 661.275,-402.888 661.275,-408.888"/>
<polyline fill="none" stroke="black" points="661.275,-408.888 661.275,-701.688 "/>
<path fill="none" stroke="black" d="M661.275,-701.688C661.275,-707.688 655.275,-713.688 649.275,-713.688"/>
<polyline fill="none" stroke="black" points="649.275,-713.688 516.543,-713.688 "/>
<path fill="none" stroke="black" d="M516.543,-713.688C510.543,-713.688 504.543,-707.688 504.543,-701.688"/>
<polyline fill="none" stroke="black" points="504.543,-701.688 504.543,-408.888 "/>
<path fill="none" stroke="black" d="M504.543,-408.888C504.543,-402.888 510.543,-396.888 516.543,-396.888"/>
<text text-anchor="middle" x="582.909" y="-695.688" font-family="Times,serif" font-size="14.00">QuestionsController</text>
<polyline fill="none" stroke="black" points="504.543,-688.888 661.275,-688.888 "/>
<polyline fill="none" stroke="black" points="504.543,-664.888 661.275,-664.888 "/>
<text text-anchor="start" x="512.543" y="-646.888" font-family="Times,serif" font-size="14.00">collection_path</text>
<text text-anchor="start" x="512.543" y="-630.088" font-family="Times,serif" font-size="14.00">collection_url</text>
<text text-anchor="start" x="512.543" y="-613.288" font-family="Times,serif" font-size="14.00">edit_resource_path</text>
<text text-anchor="start" x="512.543" y="-596.488" font-family="Times,serif" font-size="14.00">edit_resource_url</text>
<text text-anchor="start" x="512.543" y="-579.688" font-family="Times,serif" font-size="14.00">new_resource_path</text>
<text text-anchor="start" x="512.543" y="-562.888" font-family="Times,serif" font-size="14.00">new_resource_url</text>
<text text-anchor="start" x="512.543" y="-546.088" font-family="Times,serif" font-size="14.00">parents_symbols</text>
<text text-anchor="start" x="512.543" y="-529.288" font-family="Times,serif" font-size="14.00">parents_symbols?</text>
<text text-anchor="start" x="512.543" y="-512.488" font-family="Times,serif" font-size="14.00">resource_class</text>
<text text-anchor="start" x="512.543" y="-495.688" font-family="Times,serif" font-size="14.00">resource_class?</text>
<text text-anchor="start" x="512.543" y="-478.888" font-family="Times,serif" font-size="14.00">resource_path</text>
<text text-anchor="start" x="512.543" y="-462.088" font-family="Times,serif" font-size="14.00">resource_url</text>
<text text-anchor="start" x="512.543" y="-445.288" font-family="Times,serif" font-size="14.00">resources_configuration</text>
<text text-anchor="start" x="512.543" y="-428.488" font-family="Times,serif" font-size="14.00">resources_configuration?</text>
<polyline fill="none" stroke="black" points="504.543,-421.688 661.275,-421.688 "/>
<text text-anchor="start" x="512.543" y="-403.688" font-family="Times,serif" font-size="14.00">_layout</text>
</g>
<!-- ApplicationController&#45;&gt;QuestionsController -->
<g id="edge8" class="edge"><title>ApplicationController&#45;&gt;QuestionsController</title>
<path fill="none" stroke="black" d="M432.866,-489.681C456.741,-500.121 481.824,-511.089 504.501,-521.004"/>
</g>
</g>
</svg>
