<?xml version="1.0" encoding="UTF-8" standalone="no"?>
<!DOCTYPE svg PUBLIC "-//W3C//DTD SVG 1.1//EN"
 "http://www.w3.org/Graphics/SVG/1.1/DTD/svg11.dtd">
<!-- Generated by graphviz version 2.28.0 (20130122.0304)
 -->
<!-- Title: controllers_diagram Pages: 1 -->
<svg width="503pt" height="334pt"
 viewBox="0.00 0.00 502.97 334.00" xmlns="http://www.w3.org/2000/svg" xmlns:xlink="http://www.w3.org/1999/xlink">
<g id="graph1" class="graph" transform="scale(1 1) rotate(0) translate(4 330)">
<title>controllers_diagram</title>
<polygon fill="white" stroke="white" points="-4,5 -4,-330 499.967,-330 499.967,5 -4,5"/>
<!-- _diagram_info -->
<g id="node1" class="node"><title>_diagram_info</title>
<text text-anchor="start" x="295.591" y="-309" font-family="Times,serif" font-size="13.00">Controllers diagram</text>
<text text-anchor="start" x="295.591" y="-293.4" font-family="Times,serif" font-size="13.00">Date: Jan 21 2013 &#45; 21:07</text>
<text text-anchor="start" x="295.591" y="-277.8" font-family="Times,serif" font-size="13.00">Migration version: 20121224042924</text>
<text text-anchor="start" x="295.591" y="-262.2" font-family="Times,serif" font-size="13.00">Generated by RailRoady 1.1.0</text>
<text text-anchor="start" x="295.591" y="-246.6" font-family="Times,serif" font-size="13.00">http://railroady.prestonlee.com</text>
</g>
<!-- ApplicationController -->
<g id="node2" class="node"><title>ApplicationController</title>
<polyline fill="none" stroke="black" points="11.5913,-75.7467 183.226,-75.7467 "/>
<path fill="none" stroke="black" d="M183.226,-75.7467C189.226,-75.7467 195.226,-81.7467 195.226,-87.7467"/>
<polyline fill="none" stroke="black" points="195.226,-87.7467 195.226,-162.147 "/>
<path fill="none" stroke="black" d="M195.226,-162.147C195.226,-168.147 189.226,-174.147 183.226,-174.147"/>
<polyline fill="none" stroke="black" points="183.226,-174.147 11.5913,-174.147 "/>
<path fill="none" stroke="black" d="M11.5913,-174.147C5.59131,-174.147 -0.408691,-168.147 -0.408691,-162.147"/>
<polyline fill="none" stroke="black" points="-0.408691,-162.147 -0.408691,-87.7467 "/>
<path fill="none" stroke="black" d="M-0.408691,-87.7467C-0.408691,-81.7467 5.59131,-75.7467 11.5913,-75.7467"/>
<text text-anchor="middle" x="97.4087" y="-156.147" font-family="Times,serif" font-size="14.00">ApplicationController</text>
<polyline fill="none" stroke="black" points="-0.408691,-149.347 195.226,-149.347 "/>
<text text-anchor="start" x="7.59131" y="-131.347" font-family="Times,serif" font-size="14.00">_one_time_conditions_valid_8?</text>
<polyline fill="none" stroke="black" points="-0.408691,-124.547 195.226,-124.547 "/>
<polyline fill="none" stroke="black" points="-0.408691,-100.547 195.226,-100.547 "/>
<text text-anchor="start" x="7.59131" y="-82.5467" font-family="Times,serif" font-size="14.00">_layout</text>
</g>
<!-- MenteesController -->
<g id="node3" class="node"><title>MenteesController</title>
<polyline fill="none" stroke="black" points="215.226,-0.5 312.199,-0.5 "/>
<path fill="none" stroke="black" d="M312.199,-0.5C318.199,-0.5 324.199,-6.5 324.199,-12.5"/>
<polyline fill="none" stroke="black" points="324.199,-12.5 324.199,-187.7 "/>
<path fill="none" stroke="black" d="M324.199,-187.7C324.199,-193.7 318.199,-199.7 312.199,-199.7"/>
<polyline fill="none" stroke="black" points="312.199,-199.7 215.226,-199.7 "/>
<path fill="none" stroke="black" d="M215.226,-199.7C209.226,-199.7 203.226,-193.7 203.226,-187.7"/>
<polyline fill="none" stroke="black" points="203.226,-187.7 203.226,-12.5 "/>
<path fill="none" stroke="black" d="M203.226,-12.5C203.226,-6.5 209.226,-0.5 215.226,-0.5"/>
<text text-anchor="middle" x="263.712" y="-181.7" font-family="Times,serif" font-size="14.00">MenteesController</text>
<polyline fill="none" stroke="black" points="203.226,-174.9 324.199,-174.9 "/>
<text text-anchor="start" x="211.226" y="-156.9" font-family="Times,serif" font-size="14.00">create</text>
<text text-anchor="start" x="211.226" y="-140.1" font-family="Times,serif" font-size="14.00">destroy</text>
<text text-anchor="start" x="211.226" y="-123.3" font-family="Times,serif" font-size="14.00">edit</text>
<text text-anchor="start" x="211.226" y="-106.5" font-family="Times,serif" font-size="14.00">index</text>
<text text-anchor="start" x="211.226" y="-89.7" font-family="Times,serif" font-size="14.00">new</text>
<text text-anchor="start" x="211.226" y="-72.9" font-family="Times,serif" font-size="14.00">show</text>
<text text-anchor="start" x="211.226" y="-56.1" font-family="Times,serif" font-size="14.00">update</text>
<polyline fill="none" stroke="black" points="203.226,-49.3 324.199,-49.3 "/>
<polyline fill="none" stroke="black" points="203.226,-25.3 324.199,-25.3 "/>
<text text-anchor="start" x="211.226" y="-7.3" font-family="Times,serif" font-size="14.00">_layout</text>
</g>
<!-- ApplicationController&#45;&gt;MenteesController -->
<g id="edge2" class="edge"><title>ApplicationController&#45;&gt;MenteesController</title>
<path fill="none" stroke="black" d="M195.59,-110.278C198.122,-109.9 200.635,-109.524 203.118,-109.153"/>
</g>
</g>
</svg>
