<?xml version="1.0" encoding="UTF-8" standalone="no"?>
<!DOCTYPE svg PUBLIC "-//W3C//DTD SVG 1.1//EN"
 "http://www.w3.org/Graphics/SVG/1.1/DTD/svg11.dtd">
<!-- Generated by graphviz version 2.28.0 (20130122.0304)
 -->
<!-- Title: controllers_diagram Pages: 1 -->
<svg width="1551pt" height="1751pt"
 viewBox="0.00 0.00 1550.84 1750.92" xmlns="http://www.w3.org/2000/svg" xmlns:xlink="http://www.w3.org/1999/xlink">
<g id="graph1" class="graph" transform="scale(1 1) rotate(0) translate(4 1746.92)">
<title>controllers_diagram</title>
<polygon fill="white" stroke="white" points="-4,5 -4,-1746.92 1547.84,-1746.92 1547.84,5 -4,5"/>
<!-- _diagram_info -->
<g id="node1" class="node"><title>_diagram_info</title>
<text text-anchor="start" x="261.817" y="-1593" font-family="Times,serif" font-size="13.00">Controllers diagram</text>
<text text-anchor="start" x="261.817" y="-1577.4" font-family="Times,serif" font-size="13.00">Date: Jun 10 2014 &#45; 13:05</text>
<text text-anchor="start" x="261.817" y="-1561.8" font-family="Times,serif" font-size="13.00">Migration version: 20131030191750</text>
<text text-anchor="start" x="261.817" y="-1546.2" font-family="Times,serif" font-size="13.00">Generated by RailRoady 1.1.0</text>
<text text-anchor="start" x="261.817" y="-1530.6" font-family="Times,serif" font-size="13.00">http://railroady.prestonlee.com</text>
</g>
<!-- AnswersController -->
<g id="node2" class="node"><title>AnswersController</title>
<polyline fill="none" stroke="black" points="11.8171,-795.125 144.549,-795.125 "/>
<path fill="none" stroke="black" d="M144.549,-795.125C150.549,-795.125 156.549,-801.125 156.549,-807.125"/>
<polyline fill="none" stroke="black" points="156.549,-807.125 156.549,-1167.13 "/>
<path fill="none" stroke="black" d="M156.549,-1167.13C156.549,-1173.13 150.549,-1179.13 144.549,-1179.13"/>
<polyline fill="none" stroke="black" points="144.549,-1179.13 11.8171,-1179.13 "/>
<path fill="none" stroke="black" d="M11.8171,-1179.13C5.81714,-1179.13 -0.182861,-1173.13 -0.182861,-1167.13"/>
<polyline fill="none" stroke="black" points="-0.182861,-1167.13 -0.182861,-807.125 "/>
<path fill="none" stroke="black" d="M-0.182861,-807.125C-0.182861,-801.125 5.81714,-795.125 11.8171,-795.125"/>
<text text-anchor="middle" x="78.1829" y="-1161.13" font-family="Times,serif" font-size="14.00">AnswersController</text>
<polyline fill="none" stroke="black" points="-0.182861,-1154.33 156.549,-1154.33 "/>
<polyline fill="none" stroke="black" points="-0.182861,-1130.33 156.549,-1130.33 "/>
<text text-anchor="start" x="7.81714" y="-1112.33" font-family="Times,serif" font-size="14.00">collection_path</text>
<text text-anchor="start" x="7.81714" y="-1095.53" font-family="Times,serif" font-size="14.00">collection_url</text>
<text text-anchor="start" x="7.81714" y="-1078.73" font-family="Times,serif" font-size="14.00">edit_parent_path</text>
<text text-anchor="start" x="7.81714" y="-1061.93" font-family="Times,serif" font-size="14.00">edit_parent_url</text>
<text text-anchor="start" x="7.81714" y="-1045.13" font-family="Times,serif" font-size="14.00">edit_resource_path</text>
<text text-anchor="start" x="7.81714" y="-1028.33" font-family="Times,serif" font-size="14.00">edit_resource_url</text>
<text text-anchor="start" x="7.81714" y="-1011.53" font-family="Times,serif" font-size="14.00">new_resource_path</text>
<text text-anchor="start" x="7.81714" y="-994.725" font-family="Times,serif" font-size="14.00">new_resource_url</text>
<text text-anchor="start" x="7.81714" y="-977.925" font-family="Times,serif" font-size="14.00">parent_path</text>
<text text-anchor="start" x="7.81714" y="-961.125" font-family="Times,serif" font-size="14.00">parent_url</text>
<text text-anchor="start" x="7.81714" y="-944.325" font-family="Times,serif" font-size="14.00">parents_symbols</text>
<text text-anchor="start" x="7.81714" y="-927.525" font-family="Times,serif" font-size="14.00">parents_symbols?</text>
<text text-anchor="start" x="7.81714" y="-910.725" font-family="Times,serif" font-size="14.00">resource_class</text>
<text text-anchor="start" x="7.81714" y="-893.925" font-family="Times,serif" font-size="14.00">resource_class?</text>
<text text-anchor="start" x="7.81714" y="-877.125" font-family="Times,serif" font-size="14.00">resource_path</text>
<text text-anchor="start" x="7.81714" y="-860.325" font-family="Times,serif" font-size="14.00">resource_url</text>
<text text-anchor="start" x="7.81714" y="-843.525" font-family="Times,serif" font-size="14.00">resources_configuration</text>
<text text-anchor="start" x="7.81714" y="-826.725" font-family="Times,serif" font-size="14.00">resources_configuration?</text>
<polyline fill="none" stroke="black" points="-0.182861,-819.925 156.549,-819.925 "/>
<text text-anchor="start" x="7.81714" y="-801.925" font-family="Times,serif" font-size="14.00">_layout</text>
</g>
<!-- ApplicationController -->
<g id="node3" class="node"><title>ApplicationController</title>
<polyline fill="none" stroke="black" points="680.506,-792.294 859.14,-792.294 "/>
<path fill="none" stroke="black" d="M859.14,-792.294C865.14,-792.294 871.14,-798.294 871.14,-804.294"/>
<polyline fill="none" stroke="black" points="871.14,-804.294 871.14,-912.294 "/>
<path fill="none" stroke="black" d="M871.14,-912.294C871.14,-918.294 865.14,-924.294 859.14,-924.294"/>
<polyline fill="none" stroke="black" points="859.14,-924.294 680.506,-924.294 "/>
<path fill="none" stroke="black" d="M680.506,-924.294C674.506,-924.294 668.506,-918.294 668.506,-912.294"/>
<polyline fill="none" stroke="black" points="668.506,-912.294 668.506,-804.294 "/>
<path fill="none" stroke="black" d="M668.506,-804.294C668.506,-798.294 674.506,-792.294 680.506,-792.294"/>
<text text-anchor="middle" x="769.823" y="-906.294" font-family="Times,serif" font-size="14.00">ApplicationController</text>
<polyline fill="none" stroke="black" points="668.506,-899.494 871.14,-899.494 "/>
<text text-anchor="start" x="676.506" y="-881.494" font-family="Times,serif" font-size="14.00">_one_time_conditions_valid_62?</text>
<text text-anchor="start" x="676.506" y="-864.694" font-family="Times,serif" font-size="14.00">_one_time_conditions_valid_66?</text>
<text text-anchor="start" x="676.506" y="-847.894" font-family="Times,serif" font-size="14.00">set_access_control_headers</text>
<polyline fill="none" stroke="black" points="668.506,-841.094 871.14,-841.094 "/>
<polyline fill="none" stroke="black" points="668.506,-817.094 871.14,-817.094 "/>
<text text-anchor="start" x="676.506" y="-799.094" font-family="Times,serif" font-size="14.00">_layout</text>
</g>
<!-- ApplicationController&#45;&gt;AnswersController -->
<g id="edge2" class="edge"><title>ApplicationController&#45;&gt;AnswersController</title>
<path fill="none" stroke="black" d="M668.141,-877.234C529.022,-903.148 282.317,-949.101 156.58,-972.522"/>
</g>
<!-- EditionsController -->
<g id="node4" class="node"><title>EditionsController</title>
<polyline fill="none" stroke="black" points="677.399,-0.5 810.131,-0.5 "/>
<path fill="none" stroke="black" d="M810.131,-0.5C816.131,-0.5 822.131,-6.5 822.131,-12.5"/>
<polyline fill="none" stroke="black" points="822.131,-12.5 822.131,-305.3 "/>
<path fill="none" stroke="black" d="M822.131,-305.3C822.131,-311.3 816.131,-317.3 810.131,-317.3"/>
<polyline fill="none" stroke="black" points="810.131,-317.3 677.399,-317.3 "/>
<path fill="none" stroke="black" d="M677.399,-317.3C671.399,-317.3 665.399,-311.3 665.399,-305.3"/>
<polyline fill="none" stroke="black" points="665.399,-305.3 665.399,-12.5 "/>
<path fill="none" stroke="black" d="M665.399,-12.5C665.399,-6.5 671.399,-0.5 677.399,-0.5"/>
<text text-anchor="middle" x="743.765" y="-299.3" font-family="Times,serif" font-size="14.00">EditionsController</text>
<polyline fill="none" stroke="black" points="665.399,-292.5 822.131,-292.5 "/>
<polyline fill="none" stroke="black" points="665.399,-268.5 822.131,-268.5 "/>
<text text-anchor="start" x="673.399" y="-250.5" font-family="Times,serif" font-size="14.00">collection_path</text>
<text text-anchor="start" x="673.399" y="-233.7" font-family="Times,serif" font-size="14.00">collection_url</text>
<text text-anchor="start" x="673.399" y="-216.9" font-family="Times,serif" font-size="14.00">edit_resource_path</text>
<text text-anchor="start" x="673.399" y="-200.1" font-family="Times,serif" font-size="14.00">edit_resource_url</text>
<text text-anchor="start" x="673.399" y="-183.3" font-family="Times,serif" font-size="14.00">new_resource_path</text>
<text text-anchor="start" x="673.399" y="-166.5" font-family="Times,serif" font-size="14.00">new_resource_url</text>
<text text-anchor="start" x="673.399" y="-149.7" font-family="Times,serif" font-size="14.00">parents_symbols</text>
<text text-anchor="start" x="673.399" y="-132.9" font-family="Times,serif" font-size="14.00">parents_symbols?</text>
<text text-anchor="start" x="673.399" y="-116.1" font-family="Times,serif" font-size="14.00">resource_class</text>
<text text-anchor="start" x="673.399" y="-99.3" font-family="Times,serif" font-size="14.00">resource_class?</text>
<text text-anchor="start" x="673.399" y="-82.5" font-family="Times,serif" font-size="14.00">resource_path</text>
<text text-anchor="start" x="673.399" y="-65.7" font-family="Times,serif" font-size="14.00">resource_url</text>
<text text-anchor="start" x="673.399" y="-48.9" font-family="Times,serif" font-size="14.00">resources_configuration</text>
<text text-anchor="start" x="673.399" y="-32.1" font-family="Times,serif" font-size="14.00">resources_configuration?</text>
<polyline fill="none" stroke="black" points="665.399,-25.3 822.131,-25.3 "/>
<text text-anchor="start" x="673.399" y="-7.3" font-family="Times,serif" font-size="14.00">_layout</text>
</g>
<!-- ApplicationController&#45;&gt;EditionsController -->
<g id="edge4" class="edge"><title>ApplicationController&#45;&gt;EditionsController</title>
<path fill="none" stroke="black" d="M767.36,-792.182C763.338,-684.239 755.252,-467.201 749.676,-317.536"/>
</g>
<!-- JournalEntriesController -->
<g id="node5" class="node"><title>JournalEntriesController</title>
<polyline fill="none" stroke="black" points="533.243,-1358.42 665.975,-1358.42 "/>
<path fill="none" stroke="black" d="M665.975,-1358.42C671.975,-1358.42 677.975,-1364.42 677.975,-1370.42"/>
<polyline fill="none" stroke="black" points="677.975,-1370.42 677.975,-1730.42 "/>
<path fill="none" stroke="black" d="M677.975,-1730.42C677.975,-1736.42 671.975,-1742.42 665.975,-1742.42"/>
<polyline fill="none" stroke="black" points="665.975,-1742.42 533.243,-1742.42 "/>
<path fill="none" stroke="black" d="M533.243,-1742.42C527.243,-1742.42 521.243,-1736.42 521.243,-1730.42"/>
<polyline fill="none" stroke="black" points="521.243,-1730.42 521.243,-1370.42 "/>
<path fill="none" stroke="black" d="M521.243,-1370.42C521.243,-1364.42 527.243,-1358.42 533.243,-1358.42"/>
<text text-anchor="middle" x="599.609" y="-1724.42" font-family="Times,serif" font-size="14.00">JournalEntriesController</text>
<polyline fill="none" stroke="black" points="521.243,-1717.62 677.975,-1717.62 "/>
<polyline fill="none" stroke="black" points="521.243,-1693.62 677.975,-1693.62 "/>
<text text-anchor="start" x="529.243" y="-1675.62" font-family="Times,serif" font-size="14.00">collection_path</text>
<text text-anchor="start" x="529.243" y="-1658.82" font-family="Times,serif" font-size="14.00">collection_url</text>
<text text-anchor="start" x="529.243" y="-1642.02" font-family="Times,serif" font-size="14.00">edit_parent_path</text>
<text text-anchor="start" x="529.243" y="-1625.22" font-family="Times,serif" font-size="14.00">edit_parent_url</text>
<text text-anchor="start" x="529.243" y="-1608.42" font-family="Times,serif" font-size="14.00">edit_resource_path</text>
<text text-anchor="start" x="529.243" y="-1591.62" font-family="Times,serif" font-size="14.00">edit_resource_url</text>
<text text-anchor="start" x="529.243" y="-1574.82" font-family="Times,serif" font-size="14.00">new_resource_path</text>
<text text-anchor="start" x="529.243" y="-1558.02" font-family="Times,serif" font-size="14.00">new_resource_url</text>
<text text-anchor="start" x="529.243" y="-1541.22" font-family="Times,serif" font-size="14.00">parent_path</text>
<text text-anchor="start" x="529.243" y="-1524.42" font-family="Times,serif" font-size="14.00">parent_url</text>
<text text-anchor="start" x="529.243" y="-1507.62" font-family="Times,serif" font-size="14.00">parents_symbols</text>
<text text-anchor="start" x="529.243" y="-1490.82" font-family="Times,serif" font-size="14.00">parents_symbols?</text>
<text text-anchor="start" x="529.243" y="-1474.02" font-family="Times,serif" font-size="14.00">resource_class</text>
<text text-anchor="start" x="529.243" y="-1457.22" font-family="Times,serif" font-size="14.00">resource_class?</text>
<text text-anchor="start" x="529.243" y="-1440.42" font-family="Times,serif" font-size="14.00">resource_path</text>
<text text-anchor="start" x="529.243" y="-1423.62" font-family="Times,serif" font-size="14.00">resource_url</text>
<text text-anchor="start" x="529.243" y="-1406.82" font-family="Times,serif" font-size="14.00">resources_configuration</text>
<text text-anchor="start" x="529.243" y="-1390.02" font-family="Times,serif" font-size="14.00">resources_configuration?</text>
<polyline fill="none" stroke="black" points="521.243,-1383.22 677.975,-1383.22 "/>
<text text-anchor="start" x="529.243" y="-1365.22" font-family="Times,serif" font-size="14.00">_layout</text>
</g>
<!-- ApplicationController&#45;&gt;JournalEntriesController -->
<g id="edge6" class="edge"><title>ApplicationController&#45;&gt;JournalEntriesController</title>
<path fill="none" stroke="black" d="M753.579,-924.344C729.273,-1023.18 682.487,-1213.42 646.839,-1358.37"/>
</g>
<!-- LifelistPicksController -->
<g id="node6" class="node"><title>LifelistPicksController</title>
<polyline fill="none" stroke="black" points="1256.33,-1114.92 1389.06,-1114.92 "/>
<path fill="none" stroke="black" d="M1389.06,-1114.92C1395.06,-1114.92 1401.06,-1120.92 1401.06,-1126.92"/>
<polyline fill="none" stroke="black" points="1401.06,-1126.92 1401.06,-1486.92 "/>
<path fill="none" stroke="black" d="M1401.06,-1486.92C1401.06,-1492.92 1395.06,-1498.92 1389.06,-1498.92"/>
<polyline fill="none" stroke="black" points="1389.06,-1498.92 1256.33,-1498.92 "/>
<path fill="none" stroke="black" d="M1256.33,-1498.92C1250.33,-1498.92 1244.33,-1492.92 1244.33,-1486.92"/>
<polyline fill="none" stroke="black" points="1244.33,-1486.92 1244.33,-1126.92 "/>
<path fill="none" stroke="black" d="M1244.33,-1126.92C1244.33,-1120.92 1250.33,-1114.92 1256.33,-1114.92"/>
<text text-anchor="middle" x="1322.7" y="-1480.92" font-family="Times,serif" font-size="14.00">LifelistPicksController</text>
<polyline fill="none" stroke="black" points="1244.33,-1474.12 1401.06,-1474.12 "/>
<polyline fill="none" stroke="black" points="1244.33,-1450.12 1401.06,-1450.12 "/>
<text text-anchor="start" x="1252.33" y="-1432.12" font-family="Times,serif" font-size="14.00">collection_path</text>
<text text-anchor="start" x="1252.33" y="-1415.32" font-family="Times,serif" font-size="14.00">collection_url</text>
<text text-anchor="start" x="1252.33" y="-1398.52" font-family="Times,serif" font-size="14.00">edit_parent_path</text>
<text text-anchor="start" x="1252.33" y="-1381.72" font-family="Times,serif" font-size="14.00">edit_parent_url</text>
<text text-anchor="start" x="1252.33" y="-1364.92" font-family="Times,serif" font-size="14.00">edit_resource_path</text>
<text text-anchor="start" x="1252.33" y="-1348.12" font-family="Times,serif" font-size="14.00">edit_resource_url</text>
<text text-anchor="start" x="1252.33" y="-1331.32" font-family="Times,serif" font-size="14.00">new_resource_path</text>
<text text-anchor="start" x="1252.33" y="-1314.52" font-family="Times,serif" font-size="14.00">new_resource_url</text>
<text text-anchor="start" x="1252.33" y="-1297.72" font-family="Times,serif" font-size="14.00">parent_path</text>
<text text-anchor="start" x="1252.33" y="-1280.92" font-family="Times,serif" font-size="14.00">parent_url</text>
<text text-anchor="start" x="1252.33" y="-1264.12" font-family="Times,serif" font-size="14.00">parents_symbols</text>
<text text-anchor="start" x="1252.33" y="-1247.32" font-family="Times,serif" font-size="14.00">parents_symbols?</text>
<text text-anchor="start" x="1252.33" y="-1230.52" font-family="Times,serif" font-size="14.00">resource_class</text>
<text text-anchor="start" x="1252.33" y="-1213.72" font-family="Times,serif" font-size="14.00">resource_class?</text>
<text text-anchor="start" x="1252.33" y="-1196.92" font-family="Times,serif" font-size="14.00">resource_path</text>
<text text-anchor="start" x="1252.33" y="-1180.12" font-family="Times,serif" font-size="14.00">resource_url</text>
<text text-anchor="start" x="1252.33" y="-1163.32" font-family="Times,serif" font-size="14.00">resources_configuration</text>
<text text-anchor="start" x="1252.33" y="-1146.52" font-family="Times,serif" font-size="14.00">resources_configuration?</text>
<polyline fill="none" stroke="black" points="1244.33,-1139.72 1401.06,-1139.72 "/>
<text text-anchor="start" x="1252.33" y="-1121.72" font-family="Times,serif" font-size="14.00">_layout</text>
</g>
<!-- ApplicationController&#45;&gt;LifelistPicksController -->
<g id="edge8" class="edge"><title>ApplicationController&#45;&gt;LifelistPicksController</title>
<path fill="none" stroke="black" d="M851.402,-924.491C956.983,-1010.17 1139.72,-1158.45 1243.92,-1243"/>
</g>
<!-- LifelistsController -->
<g id="node7" class="node"><title>LifelistsController</title>
<polyline fill="none" stroke="black" points="921.107,-1348.48 1053.84,-1348.48 "/>
<path fill="none" stroke="black" d="M1053.84,-1348.48C1059.84,-1348.48 1065.84,-1354.48 1065.84,-1360.48"/>
<polyline fill="none" stroke="black" points="1065.84,-1360.48 1065.84,-1653.28 "/>
<path fill="none" stroke="black" d="M1065.84,-1653.28C1065.84,-1659.28 1059.84,-1665.28 1053.84,-1665.28"/>
<polyline fill="none" stroke="black" points="1053.84,-1665.28 921.107,-1665.28 "/>
<path fill="none" stroke="black" d="M921.107,-1665.28C915.107,-1665.28 909.107,-1659.28 909.107,-1653.28"/>
<polyline fill="none" stroke="black" points="909.107,-1653.28 909.107,-1360.48 "/>
<path fill="none" stroke="black" d="M909.107,-1360.48C909.107,-1354.48 915.107,-1348.48 921.107,-1348.48"/>
<text text-anchor="middle" x="987.473" y="-1647.28" font-family="Times,serif" font-size="14.00">LifelistsController</text>
<polyline fill="none" stroke="black" points="909.107,-1640.48 1065.84,-1640.48 "/>
<polyline fill="none" stroke="black" points="909.107,-1616.48 1065.84,-1616.48 "/>
<text text-anchor="start" x="917.107" y="-1598.48" font-family="Times,serif" font-size="14.00">collection_path</text>
<text text-anchor="start" x="917.107" y="-1581.68" font-family="Times,serif" font-size="14.00">collection_url</text>
<text text-anchor="start" x="917.107" y="-1564.88" font-family="Times,serif" font-size="14.00">edit_resource_path</text>
<text text-anchor="start" x="917.107" y="-1548.08" font-family="Times,serif" font-size="14.00">edit_resource_url</text>
<text text-anchor="start" x="917.107" y="-1531.28" font-family="Times,serif" font-size="14.00">new_resource_path</text>
<text text-anchor="start" x="917.107" y="-1514.48" font-family="Times,serif" font-size="14.00">new_resource_url</text>
<text text-anchor="start" x="917.107" y="-1497.68" font-family="Times,serif" font-size="14.00">parents_symbols</text>
<text text-anchor="start" x="917.107" y="-1480.88" font-family="Times,serif" font-size="14.00">parents_symbols?</text>
<text text-anchor="start" x="917.107" y="-1464.08" font-family="Times,serif" font-size="14.00">resource_class</text>
<text text-anchor="start" x="917.107" y="-1447.28" font-family="Times,serif" font-size="14.00">resource_class?</text>
<text text-anchor="start" x="917.107" y="-1430.48" font-family="Times,serif" font-size="14.00">resource_path</text>
<text text-anchor="start" x="917.107" y="-1413.68" font-family="Times,serif" font-size="14.00">resource_url</text>
<text text-anchor="start" x="917.107" y="-1396.88" font-family="Times,serif" font-size="14.00">resources_configuration</text>
<text text-anchor="start" x="917.107" y="-1380.08" font-family="Times,serif" font-size="14.00">resources_configuration?</text>
<polyline fill="none" stroke="black" points="909.107,-1373.28 1065.84,-1373.28 "/>
<text text-anchor="start" x="917.107" y="-1355.28" font-family="Times,serif" font-size="14.00">_layout</text>
</g>
<!-- ApplicationController&#45;&gt;LifelistsController -->
<g id="edge10" class="edge"><title>ApplicationController&#45;&gt;LifelistsController</title>
<path fill="none" stroke="black" d="M791.991,-924.354C825.157,-1023.19 888.668,-1212.44 934.307,-1348.45"/>
</g>
<!-- MenteeProfilesController -->
<g id="node8" class="node"><title>MenteeProfilesController</title>
<polyline fill="none" stroke="black" points="299.912,-90.7641 434.222,-90.7641 "/>
<path fill="none" stroke="black" d="M434.222,-90.7641C440.222,-90.7641 446.222,-96.7641 446.222,-102.764"/>
<polyline fill="none" stroke="black" points="446.222,-102.764 446.222,-462.764 "/>
<path fill="none" stroke="black" d="M446.222,-462.764C446.222,-468.764 440.222,-474.764 434.222,-474.764"/>
<polyline fill="none" stroke="black" points="434.222,-474.764 299.912,-474.764 "/>
<path fill="none" stroke="black" d="M299.912,-474.764C293.912,-474.764 287.912,-468.764 287.912,-462.764"/>
<polyline fill="none" stroke="black" points="287.912,-462.764 287.912,-102.764 "/>
<path fill="none" stroke="black" d="M287.912,-102.764C287.912,-96.7641 293.912,-90.7641 299.912,-90.7641"/>
<text text-anchor="middle" x="367.067" y="-456.764" font-family="Times,serif" font-size="14.00">MenteeProfilesController</text>
<polyline fill="none" stroke="black" points="287.912,-449.964 446.222,-449.964 "/>
<polyline fill="none" stroke="black" points="287.912,-425.964 446.222,-425.964 "/>
<text text-anchor="start" x="295.912" y="-407.964" font-family="Times,serif" font-size="14.00">collection_path</text>
<text text-anchor="start" x="295.912" y="-391.164" font-family="Times,serif" font-size="14.00">collection_url</text>
<text text-anchor="start" x="295.912" y="-374.364" font-family="Times,serif" font-size="14.00">edit_parent_path</text>
<text text-anchor="start" x="295.912" y="-357.564" font-family="Times,serif" font-size="14.00">edit_parent_url</text>
<text text-anchor="start" x="295.912" y="-340.764" font-family="Times,serif" font-size="14.00">edit_resource_path</text>
<text text-anchor="start" x="295.912" y="-323.964" font-family="Times,serif" font-size="14.00">edit_resource_url</text>
<text text-anchor="start" x="295.912" y="-307.164" font-family="Times,serif" font-size="14.00">new_resource_path</text>
<text text-anchor="start" x="295.912" y="-290.364" font-family="Times,serif" font-size="14.00">new_resource_url</text>
<text text-anchor="start" x="295.912" y="-273.564" font-family="Times,serif" font-size="14.00">parent_path</text>
<text text-anchor="start" x="295.912" y="-256.764" font-family="Times,serif" font-size="14.00">parent_url</text>
<text text-anchor="start" x="295.912" y="-239.964" font-family="Times,serif" font-size="14.00">parents_symbols</text>
<text text-anchor="start" x="295.912" y="-223.164" font-family="Times,serif" font-size="14.00">parents_symbols?</text>
<text text-anchor="start" x="295.912" y="-206.364" font-family="Times,serif" font-size="14.00">resource_class</text>
<text text-anchor="start" x="295.912" y="-189.564" font-family="Times,serif" font-size="14.00">resource_class?</text>
<text text-anchor="start" x="295.912" y="-172.764" font-family="Times,serif" font-size="14.00">resource_path</text>
<text text-anchor="start" x="295.912" y="-155.964" font-family="Times,serif" font-size="14.00">resource_url</text>
<text text-anchor="start" x="295.912" y="-139.164" font-family="Times,serif" font-size="14.00">resources_configuration</text>
<text text-anchor="start" x="295.912" y="-122.364" font-family="Times,serif" font-size="14.00">resources_configuration?</text>
<polyline fill="none" stroke="black" points="287.912,-115.564 446.222,-115.564 "/>
<text text-anchor="start" x="295.912" y="-97.5641" font-family="Times,serif" font-size="14.00">_layout</text>
</g>
<!-- ApplicationController&#45;&gt;MenteeProfilesController -->
<g id="edge12" class="edge"><title>ApplicationController&#45;&gt;MenteeProfilesController</title>
<path fill="none" stroke="black" d="M723.622,-792.274C655.953,-695.576 528.968,-514.117 446.237,-395.896"/>
</g>
<!-- MenteesController -->
<g id="node9" class="node"><title>MenteesController</title>
<polyline fill="none" stroke="black" points="1398.29,-774.942 1531.02,-774.942 "/>
<path fill="none" stroke="black" d="M1531.02,-774.942C1537.02,-774.942 1543.02,-780.942 1543.02,-786.942"/>
<polyline fill="none" stroke="black" points="1543.02,-786.942 1543.02,-1079.74 "/>
<path fill="none" stroke="black" d="M1543.02,-1079.74C1543.02,-1085.74 1537.02,-1091.74 1531.02,-1091.74"/>
<polyline fill="none" stroke="black" points="1531.02,-1091.74 1398.29,-1091.74 "/>
<path fill="none" stroke="black" d="M1398.29,-1091.74C1392.29,-1091.74 1386.29,-1085.74 1386.29,-1079.74"/>
<polyline fill="none" stroke="black" points="1386.29,-1079.74 1386.29,-786.942 "/>
<path fill="none" stroke="black" d="M1386.29,-786.942C1386.29,-780.942 1392.29,-774.942 1398.29,-774.942"/>
<text text-anchor="middle" x="1464.66" y="-1073.74" font-family="Times,serif" font-size="14.00">MenteesController</text>
<polyline fill="none" stroke="black" points="1386.29,-1066.94 1543.02,-1066.94 "/>
<polyline fill="none" stroke="black" points="1386.29,-1042.94 1543.02,-1042.94 "/>
<text text-anchor="start" x="1394.29" y="-1024.94" font-family="Times,serif" font-size="14.00">collection_path</text>
<text text-anchor="start" x="1394.29" y="-1008.14" font-family="Times,serif" font-size="14.00">collection_url</text>
<text text-anchor="start" x="1394.29" y="-991.342" font-family="Times,serif" font-size="14.00">edit_resource_path</text>
<text text-anchor="start" x="1394.29" y="-974.542" font-family="Times,serif" font-size="14.00">edit_resource_url</text>
<text text-anchor="start" x="1394.29" y="-957.742" font-family="Times,serif" font-size="14.00">new_resource_path</text>
<text text-anchor="start" x="1394.29" y="-940.942" font-family="Times,serif" font-size="14.00">new_resource_url</text>
<text text-anchor="start" x="1394.29" y="-924.142" font-family="Times,serif" font-size="14.00">parents_symbols</text>
<text text-anchor="start" x="1394.29" y="-907.342" font-family="Times,serif" font-size="14.00">parents_symbols?</text>
<text text-anchor="start" x="1394.29" y="-890.542" font-family="Times,serif" font-size="14.00">resource_class</text>
<text text-anchor="start" x="1394.29" y="-873.742" font-family="Times,serif" font-size="14.00">resource_class?</text>
<text text-anchor="start" x="1394.29" y="-856.942" font-family="Times,serif" font-size="14.00">resource_path</text>
<text text-anchor="start" x="1394.29" y="-840.142" font-family="Times,serif" font-size="14.00">resource_url</text>
<text text-anchor="start" x="1394.29" y="-823.342" font-family="Times,serif" font-size="14.00">resources_configuration</text>
<text text-anchor="start" x="1394.29" y="-806.542" font-family="Times,serif" font-size="14.00">resources_configuration?</text>
<polyline fill="none" stroke="black" points="1386.29,-799.742 1543.02,-799.742 "/>
<text text-anchor="start" x="1394.29" y="-781.742" font-family="Times,serif" font-size="14.00">_layout</text>
</g>
<!-- ApplicationController&#45;&gt;MenteesController -->
<g id="edge14" class="edge"><title>ApplicationController&#45;&gt;MenteesController</title>
<path fill="none" stroke="black" d="M871.229,-869.247C1010.97,-884.341 1259.78,-911.214 1386.22,-924.871"/>
</g>
<!-- QuestionGroupsController -->
<g id="node10" class="node"><title>QuestionGroupsController</title>
<polyline fill="none" stroke="black" points="52.3639,-402.125 193.681,-402.125 "/>
<path fill="none" stroke="black" d="M193.681,-402.125C199.681,-402.125 205.681,-408.125 205.681,-414.125"/>
<polyline fill="none" stroke="black" points="205.681,-414.125 205.681,-774.125 "/>
<path fill="none" stroke="black" d="M205.681,-774.125C205.681,-780.125 199.681,-786.125 193.681,-786.125"/>
<polyline fill="none" stroke="black" points="193.681,-786.125 52.3639,-786.125 "/>
<path fill="none" stroke="black" d="M52.3639,-786.125C46.3639,-786.125 40.3639,-780.125 40.3639,-774.125"/>
<polyline fill="none" stroke="black" points="40.3639,-774.125 40.3639,-414.125 "/>
<path fill="none" stroke="black" d="M40.3639,-414.125C40.3639,-408.125 46.3639,-402.125 52.3639,-402.125"/>
<text text-anchor="middle" x="123.023" y="-768.125" font-family="Times,serif" font-size="14.00">QuestionGroupsController</text>
<polyline fill="none" stroke="black" points="40.3639,-761.325 205.681,-761.325 "/>
<polyline fill="none" stroke="black" points="40.3639,-737.325 205.681,-737.325 "/>
<text text-anchor="start" x="48.3639" y="-719.325" font-family="Times,serif" font-size="14.00">collection_path</text>
<text text-anchor="start" x="48.3639" y="-702.525" font-family="Times,serif" font-size="14.00">collection_url</text>
<text text-anchor="start" x="48.3639" y="-685.725" font-family="Times,serif" font-size="14.00">edit_parent_path</text>
<text text-anchor="start" x="48.3639" y="-668.925" font-family="Times,serif" font-size="14.00">edit_parent_url</text>
<text text-anchor="start" x="48.3639" y="-652.125" font-family="Times,serif" font-size="14.00">edit_resource_path</text>
<text text-anchor="start" x="48.3639" y="-635.325" font-family="Times,serif" font-size="14.00">edit_resource_url</text>
<text text-anchor="start" x="48.3639" y="-618.525" font-family="Times,serif" font-size="14.00">new_resource_path</text>
<text text-anchor="start" x="48.3639" y="-601.725" font-family="Times,serif" font-size="14.00">new_resource_url</text>
<text text-anchor="start" x="48.3639" y="-584.925" font-family="Times,serif" font-size="14.00">parent_path</text>
<text text-anchor="start" x="48.3639" y="-568.125" font-family="Times,serif" font-size="14.00">parent_url</text>
<text text-anchor="start" x="48.3639" y="-551.325" font-family="Times,serif" font-size="14.00">parents_symbols</text>
<text text-anchor="start" x="48.3639" y="-534.525" font-family="Times,serif" font-size="14.00">parents_symbols?</text>
<text text-anchor="start" x="48.3639" y="-517.725" font-family="Times,serif" font-size="14.00">resource_class</text>
<text text-anchor="start" x="48.3639" y="-500.925" font-family="Times,serif" font-size="14.00">resource_class?</text>
<text text-anchor="start" x="48.3639" y="-484.125" font-family="Times,serif" font-size="14.00">resource_path</text>
<text text-anchor="start" x="48.3639" y="-467.325" font-family="Times,serif" font-size="14.00">resource_url</text>
<text text-anchor="start" x="48.3639" y="-450.525" font-family="Times,serif" font-size="14.00">resources_configuration</text>
<text text-anchor="start" x="48.3639" y="-433.725" font-family="Times,serif" font-size="14.00">resources_configuration?</text>
<polyline fill="none" stroke="black" points="40.3639,-426.925 205.681,-426.925 "/>
<text text-anchor="start" x="48.3639" y="-408.925" font-family="Times,serif" font-size="14.00">_layout</text>
</g>
<!-- ApplicationController&#45;&gt;QuestionGroupsController -->
<g id="edge16" class="edge"><title>ApplicationController&#45;&gt;QuestionGroupsController</title>
<path fill="none" stroke="black" d="M668.405,-816.873C540.77,-764.743 323.99,-676.205 205.828,-627.945"/>
</g>
<!-- QuestionsController -->
<g id="node11" class="node"><title>QuestionsController</title>
<polyline fill="none" stroke="black" points="1331.16,-352.725 1463.9,-352.725 "/>
<path fill="none" stroke="black" d="M1463.9,-352.725C1469.9,-352.725 1475.9,-358.725 1475.9,-364.725"/>
<polyline fill="none" stroke="black" points="1475.9,-364.725 1475.9,-724.725 "/>
<path fill="none" stroke="black" d="M1475.9,-724.725C1475.9,-730.725 1469.9,-736.725 1463.9,-736.725"/>
<polyline fill="none" stroke="black" points="1463.9,-736.725 1331.16,-736.725 "/>
<path fill="none" stroke="black" d="M1331.16,-736.725C1325.16,-736.725 1319.16,-730.725 1319.16,-724.725"/>
<polyline fill="none" stroke="black" points="1319.16,-724.725 1319.16,-364.725 "/>
<path fill="none" stroke="black" d="M1319.16,-364.725C1319.16,-358.725 1325.16,-352.725 1331.16,-352.725"/>
<text text-anchor="middle" x="1397.53" y="-718.725" font-family="Times,serif" font-size="14.00">QuestionsController</text>
<polyline fill="none" stroke="black" points="1319.16,-711.925 1475.9,-711.925 "/>
<polyline fill="none" stroke="black" points="1319.16,-687.925 1475.9,-687.925 "/>
<text text-anchor="start" x="1327.16" y="-669.925" font-family="Times,serif" font-size="14.00">collection_path</text>
<text text-anchor="start" x="1327.16" y="-653.125" font-family="Times,serif" font-size="14.00">collection_url</text>
<text text-anchor="start" x="1327.16" y="-636.325" font-family="Times,serif" font-size="14.00">edit_parent_path</text>
<text text-anchor="start" x="1327.16" y="-619.525" font-family="Times,serif" font-size="14.00">edit_parent_url</text>
<text text-anchor="start" x="1327.16" y="-602.725" font-family="Times,serif" font-size="14.00">edit_resource_path</text>
<text text-anchor="start" x="1327.16" y="-585.925" font-family="Times,serif" font-size="14.00">edit_resource_url</text>
<text text-anchor="start" x="1327.16" y="-569.125" font-family="Times,serif" font-size="14.00">new_resource_path</text>
<text text-anchor="start" x="1327.16" y="-552.325" font-family="Times,serif" font-size="14.00">new_resource_url</text>
<text text-anchor="start" x="1327.16" y="-535.525" font-family="Times,serif" font-size="14.00">parent_path</text>
<text text-anchor="start" x="1327.16" y="-518.725" font-family="Times,serif" font-size="14.00">parent_url</text>
<text text-anchor="start" x="1327.16" y="-501.925" font-family="Times,serif" font-size="14.00">parents_symbols</text>
<text text-anchor="start" x="1327.16" y="-485.125" font-family="Times,serif" font-size="14.00">parents_symbols?</text>
<text text-anchor="start" x="1327.16" y="-468.325" font-family="Times,serif" font-size="14.00">resource_class</text>
<text text-anchor="start" x="1327.16" y="-451.525" font-family="Times,serif" font-size="14.00">resource_class?</text>
<text text-anchor="start" x="1327.16" y="-434.725" font-family="Times,serif" font-size="14.00">resource_path</text>
<text text-anchor="start" x="1327.16" y="-417.925" font-family="Times,serif" font-size="14.00">resource_url</text>
<text text-anchor="start" x="1327.16" y="-401.125" font-family="Times,serif" font-size="14.00">resources_configuration</text>
<text text-anchor="start" x="1327.16" y="-384.325" font-family="Times,serif" font-size="14.00">resources_configuration?</text>
<polyline fill="none" stroke="black" points="1319.16,-377.525 1475.9,-377.525 "/>
<text text-anchor="start" x="1327.16" y="-359.525" font-family="Times,serif" font-size="14.00">_layout</text>
</g>
<!-- ApplicationController&#45;&gt;QuestionsController -->
<g id="edge18" class="edge"><title>ApplicationController&#45;&gt;QuestionsController</title>
<path fill="none" stroke="black" d="M871.373,-807.565C996.286,-745.165 1205.66,-640.571 1318.97,-583.968"/>
</g>
<!-- SurveysController -->
<g id="node12" class="node"><title>SurveysController</title>
<polyline fill="none" stroke="black" points="1061.15,-63.19 1193.88,-63.19 "/>
<path fill="none" stroke="black" d="M1193.88,-63.19C1199.88,-63.19 1205.88,-69.19 1205.88,-75.19"/>
<polyline fill="none" stroke="black" points="1205.88,-75.19 1205.88,-435.19 "/>
<path fill="none" stroke="black" d="M1205.88,-435.19C1205.88,-441.19 1199.88,-447.19 1193.88,-447.19"/>
<polyline fill="none" stroke="black" points="1193.88,-447.19 1061.15,-447.19 "/>
<path fill="none" stroke="black" d="M1061.15,-447.19C1055.15,-447.19 1049.15,-441.19 1049.15,-435.19"/>
<polyline fill="none" stroke="black" points="1049.15,-435.19 1049.15,-75.19 "/>
<path fill="none" stroke="black" d="M1049.15,-75.19C1049.15,-69.19 1055.15,-63.19 1061.15,-63.19"/>
<text text-anchor="middle" x="1127.51" y="-429.19" font-family="Times,serif" font-size="14.00">SurveysController</text>
<polyline fill="none" stroke="black" points="1049.15,-422.39 1205.88,-422.39 "/>
<polyline fill="none" stroke="black" points="1049.15,-398.39 1205.88,-398.39 "/>
<text text-anchor="start" x="1057.15" y="-380.39" font-family="Times,serif" font-size="14.00">collection_path</text>
<text text-anchor="start" x="1057.15" y="-363.59" font-family="Times,serif" font-size="14.00">collection_url</text>
<text text-anchor="start" x="1057.15" y="-346.79" font-family="Times,serif" font-size="14.00">edit_parent_path</text>
<text text-anchor="start" x="1057.15" y="-329.99" font-family="Times,serif" font-size="14.00">edit_parent_url</text>
<text text-anchor="start" x="1057.15" y="-313.19" font-family="Times,serif" font-size="14.00">edit_resource_path</text>
<text text-anchor="start" x="1057.15" y="-296.39" font-family="Times,serif" font-size="14.00">edit_resource_url</text>
<text text-anchor="start" x="1057.15" y="-279.59" font-family="Times,serif" font-size="14.00">new_resource_path</text>
<text text-anchor="start" x="1057.15" y="-262.79" font-family="Times,serif" font-size="14.00">new_resource_url</text>
<text text-anchor="start" x="1057.15" y="-245.99" font-family="Times,serif" font-size="14.00">parent_path</text>
<text text-anchor="start" x="1057.15" y="-229.19" font-family="Times,serif" font-size="14.00">parent_url</text>
<text text-anchor="start" x="1057.15" y="-212.39" font-family="Times,serif" font-size="14.00">parents_symbols</text>
<text text-anchor="start" x="1057.15" y="-195.59" font-family="Times,serif" font-size="14.00">parents_symbols?</text>
<text text-anchor="start" x="1057.15" y="-178.79" font-family="Times,serif" font-size="14.00">resource_class</text>
<text text-anchor="start" x="1057.15" y="-161.99" font-family="Times,serif" font-size="14.00">resource_class?</text>
<text text-anchor="start" x="1057.15" y="-145.19" font-family="Times,serif" font-size="14.00">resource_path</text>
<text text-anchor="start" x="1057.15" y="-128.39" font-family="Times,serif" font-size="14.00">resource_url</text>
<text text-anchor="start" x="1057.15" y="-111.59" font-family="Times,serif" font-size="14.00">resources_configuration</text>
<text text-anchor="start" x="1057.15" y="-94.79" font-family="Times,serif" font-size="14.00">resources_configuration?</text>
<polyline fill="none" stroke="black" points="1049.15,-87.99 1205.88,-87.99 "/>
<text text-anchor="start" x="1057.15" y="-69.99" font-family="Times,serif" font-size="14.00">_layout</text>
</g>
<!-- ApplicationController&#45;&gt;SurveysController -->
<g id="edge20" class="edge"><title>ApplicationController&#45;&gt;SurveysController</title>
<path fill="none" stroke="black" d="M809.125,-792.026C866.61,-695.102 974.825,-512.639 1049,-387.57"/>
</g>
<!-- UsersController -->
<g id="node13" class="node"><title>UsersController</title>
<polyline fill="none" stroke="black" points="221.158,-1287.36 302.586,-1287.36 "/>
<path fill="none" stroke="black" d="M302.586,-1287.36C308.586,-1287.36 314.586,-1293.36 314.586,-1299.36"/>
<polyline fill="none" stroke="black" points="314.586,-1299.36 314.586,-1373.76 "/>
<path fill="none" stroke="black" d="M314.586,-1373.76C314.586,-1379.76 308.586,-1385.76 302.586,-1385.76"/>
<polyline fill="none" stroke="black" points="302.586,-1385.76 221.158,-1385.76 "/>
<path fill="none" stroke="black" d="M221.158,-1385.76C215.158,-1385.76 209.158,-1379.76 209.158,-1373.76"/>
<polyline fill="none" stroke="black" points="209.158,-1373.76 209.158,-1299.36 "/>
<path fill="none" stroke="black" d="M209.158,-1299.36C209.158,-1293.36 215.158,-1287.36 221.158,-1287.36"/>
<text text-anchor="middle" x="261.872" y="-1367.76" font-family="Times,serif" font-size="14.00">UsersController</text>
<polyline fill="none" stroke="black" points="209.158,-1360.96 314.586,-1360.96 "/>
<text text-anchor="start" x="217.158" y="-1342.96" font-family="Times,serif" font-size="14.00">data</text>
<polyline fill="none" stroke="black" points="209.158,-1336.16 314.586,-1336.16 "/>
<polyline fill="none" stroke="black" points="209.158,-1312.16 314.586,-1312.16 "/>
<text text-anchor="start" x="217.158" y="-1294.16" font-family="Times,serif" font-size="14.00">_layout</text>
</g>
<!-- ApplicationController&#45;&gt;UsersController -->
<g id="edge22" class="edge"><title>ApplicationController&#45;&gt;UsersController</title>
<path fill="none" stroke="black" d="M699.461,-924.544C596.23,-1021.74 406.054,-1200.81 314.217,-1287.28"/>
</g>
</g>
</svg>
