<?xml version="1.0" encoding="UTF-8" standalone="no"?>
<!DOCTYPE svg PUBLIC "-//W3C//DTD SVG 1.1//EN"
 "http://www.w3.org/Graphics/SVG/1.1/DTD/svg11.dtd">
<!-- Generated by graphviz version 2.28.0 (20130122.0304)
 -->
<!-- Title: models_diagram Pages: 1 -->
<svg width="1116pt" height="1452pt"
 viewBox="0.00 0.00 1116.00 1452.00" xmlns="http://www.w3.org/2000/svg" xmlns:xlink="http://www.w3.org/1999/xlink">
<g id="graph1" class="graph" transform="scale(1 1) rotate(0) translate(4 1448)">
<title>models_diagram</title>
<polygon fill="white" stroke="white" points="-4,5 -4,-1448 1113,-1448 1113,5 -4,5"/>
<!-- _diagram_info -->
<g id="node1" class="node"><title>_diagram_info</title>
<text text-anchor="start" x="148.312" y="-1427" font-family="Times,serif" font-size="13.00">Models diagram</text>
<text text-anchor="start" x="148.312" y="-1411.4" font-family="Times,serif" font-size="13.00">Date: Jun 16 2014 &#45; 20:18</text>
<text text-anchor="start" x="148.312" y="-1395.8" font-family="Times,serif" font-size="13.00">Migration version: 20140616212824</text>
<text text-anchor="start" x="148.312" y="-1380.2" font-family="Times,serif" font-size="13.00">Generated by RailRoady 1.1.0</text>
<text text-anchor="start" x="148.312" y="-1364.6" font-family="Times,serif" font-size="13.00">http://railroady.prestonlee.com</text>
</g>
<!-- Answer -->
<g id="node2" class="node"><title>Answer</title>
<polyline fill="none" stroke="black" points="523.939,-1 664.061,-1 "/>
<path fill="none" stroke="black" d="M664.061,-1C670.061,-1 676.061,-7 676.061,-13"/>
<polyline fill="none" stroke="black" points="676.061,-13 676.061,-173 "/>
<path fill="none" stroke="black" d="M676.061,-173C676.061,-179 670.061,-185 664.061,-185"/>
<polyline fill="none" stroke="black" points="664.061,-185 523.939,-185 "/>
<path fill="none" stroke="black" d="M523.939,-185C517.939,-185 511.939,-179 511.939,-173"/>
<polyline fill="none" stroke="black" points="511.939,-173 511.939,-13 "/>
<path fill="none" stroke="black" d="M511.939,-13C511.939,-7 517.939,-1 523.939,-1"/>
<text text-anchor="middle" x="594" y="-167" font-family="Times,serif" font-size="14.00">Answer</text>
<polyline fill="none" stroke="black" points="511.939,-160.2 676.061,-160.2 "/>
<text text-anchor="start" x="519.939" y="-142.2" font-family="Times,serif" font-size="14.00">id :integer</text>
<text text-anchor="start" x="519.939" y="-125.4" font-family="Times,serif" font-size="14.00">text_value :text</text>
<text text-anchor="start" x="519.939" y="-108.6" font-family="Times,serif" font-size="14.00">number_value :integer</text>
<text text-anchor="start" x="519.939" y="-91.8" font-family="Times,serif" font-size="14.00">boolean_value :boolean</text>
<text text-anchor="start" x="519.939" y="-75" font-family="Times,serif" font-size="14.00">not_applicable :boolean</text>
<text text-anchor="start" x="519.939" y="-58.2" font-family="Times,serif" font-size="14.00">question_id :integer</text>
<text text-anchor="start" x="519.939" y="-41.4" font-family="Times,serif" font-size="14.00">mentee_profile_id :integer</text>
<text text-anchor="start" x="519.939" y="-24.6" font-family="Times,serif" font-size="14.00">created_at :datetime</text>
<text text-anchor="start" x="519.939" y="-7.8" font-family="Times,serif" font-size="14.00">updated_at :datetime</text>
</g>
<!-- DevelopCategory -->
<g id="node3" class="node"><title>DevelopCategory</title>
<polyline fill="none" stroke="black" points="606.627,-646.8 697.373,-646.8 "/>
<path fill="none" stroke="black" d="M697.373,-646.8C703.373,-646.8 709.373,-652.8 709.373,-658.8"/>
<polyline fill="none" stroke="black" points="709.373,-658.8 709.373,-701.2 "/>
<path fill="none" stroke="black" d="M709.373,-701.2C709.373,-707.2 703.373,-713.2 697.373,-713.2"/>
<polyline fill="none" stroke="black" points="697.373,-713.2 606.627,-713.2 "/>
<path fill="none" stroke="black" d="M606.627,-713.2C600.627,-713.2 594.627,-707.2 594.627,-701.2"/>
<polyline fill="none" stroke="black" points="594.627,-701.2 594.627,-658.8 "/>
<path fill="none" stroke="black" d="M594.627,-658.8C594.627,-652.8 600.627,-646.8 606.627,-646.8"/>
<text text-anchor="middle" x="652" y="-695.2" font-family="Times,serif" font-size="14.00">DevelopCategory</text>
<polyline fill="none" stroke="black" points="594.627,-688.4 709.373,-688.4 "/>
<text text-anchor="start" x="602.627" y="-670.4" font-family="Times,serif" font-size="14.00">id :integer</text>
<text text-anchor="start" x="602.627" y="-653.6" font-family="Times,serif" font-size="14.00">title :string</text>
</g>
<!-- DevelopGoal -->
<g id="node5" class="node"><title>DevelopGoal</title>
<polyline fill="none" stroke="black" points="487.557,-431.6 656.443,-431.6 "/>
<path fill="none" stroke="black" d="M656.443,-431.6C662.443,-431.6 668.443,-437.6 668.443,-443.6"/>
<polyline fill="none" stroke="black" points="668.443,-443.6 668.443,-536.4 "/>
<path fill="none" stroke="black" d="M668.443,-536.4C668.443,-542.4 662.443,-548.4 656.443,-548.4"/>
<polyline fill="none" stroke="black" points="656.443,-548.4 487.557,-548.4 "/>
<path fill="none" stroke="black" d="M487.557,-548.4C481.557,-548.4 475.557,-542.4 475.557,-536.4"/>
<polyline fill="none" stroke="black" points="475.557,-536.4 475.557,-443.6 "/>
<path fill="none" stroke="black" d="M475.557,-443.6C475.557,-437.6 481.557,-431.6 487.557,-431.6"/>
<text text-anchor="middle" x="572" y="-530.4" font-family="Times,serif" font-size="14.00">DevelopGoal</text>
<polyline fill="none" stroke="black" points="475.557,-523.6 668.443,-523.6 "/>
<text text-anchor="start" x="483.557" y="-505.6" font-family="Times,serif" font-size="14.00">id :integer</text>
<text text-anchor="start" x="483.557" y="-488.8" font-family="Times,serif" font-size="14.00">develop_curriculum_id :integer</text>
<text text-anchor="start" x="483.557" y="-472" font-family="Times,serif" font-size="14.00">develop_category_id :integer</text>
<text text-anchor="start" x="483.557" y="-455.2" font-family="Times,serif" font-size="14.00">title :string</text>
<text text-anchor="start" x="483.557" y="-438.4" font-family="Times,serif" font-size="14.00">description :text</text>
</g>
<!-- DevelopCategory&#45;&gt;DevelopGoal -->
<g id="edge2" class="edge"><title>DevelopCategory&#45;&gt;DevelopGoal</title>
<path fill="none" stroke="#0483f2" d="M635.047,-639.16C625.038,-615.64 612.108,-585.253 600.564,-558.126"/>
<ellipse fill="none" stroke="#0483f2" cx="636.681" cy="-643.001" rx="4.00002" ry="4.00002"/>
<polygon fill="#0483f2" stroke="#0483f2" points="600.462,-557.885 600.687,-546.922 598.504,-553.285 596.546,-548.684 596.546,-548.684 596.546,-548.684 598.504,-553.285 592.406,-550.446 600.462,-557.885 600.462,-557.885"/>
</g>
<!-- DevelopCurriculum -->
<g id="node4" class="node"><title>DevelopCurriculum</title>
<polyline fill="none" stroke="black" points="378.014,-1359.4 481.986,-1359.4 "/>
<path fill="none" stroke="black" d="M481.986,-1359.4C487.986,-1359.4 493.986,-1365.4 493.986,-1371.4"/>
<polyline fill="none" stroke="black" points="493.986,-1371.4 493.986,-1430.6 "/>
<path fill="none" stroke="black" d="M493.986,-1430.6C493.986,-1436.6 487.986,-1442.6 481.986,-1442.6"/>
<polyline fill="none" stroke="black" points="481.986,-1442.6 378.014,-1442.6 "/>
<path fill="none" stroke="black" d="M378.014,-1442.6C372.014,-1442.6 366.014,-1436.6 366.014,-1430.6"/>
<polyline fill="none" stroke="black" points="366.014,-1430.6 366.014,-1371.4 "/>
<path fill="none" stroke="black" d="M366.014,-1371.4C366.014,-1365.4 372.014,-1359.4 378.014,-1359.4"/>
<text text-anchor="middle" x="430" y="-1424.6" font-family="Times,serif" font-size="14.00">DevelopCurriculum</text>
<polyline fill="none" stroke="black" points="366.014,-1417.8 493.986,-1417.8 "/>
<text text-anchor="start" x="374.014" y="-1399.8" font-family="Times,serif" font-size="14.00">id :integer</text>
<text text-anchor="start" x="374.014" y="-1383" font-family="Times,serif" font-size="14.00">type :string</text>
<text text-anchor="start" x="374.014" y="-1366.2" font-family="Times,serif" font-size="14.00">parent_id :integer</text>
</g>
<!-- DevelopGoalsCurriculum -->
<g id="node7" class="node"><title>DevelopGoalsCurriculum</title>
<polyline fill="none" stroke="black" points="431.683,-1152.4 568.317,-1152.4 "/>
<path fill="none" stroke="black" d="M568.317,-1152.4C574.317,-1152.4 580.317,-1158.4 580.317,-1164.4"/>
<polyline fill="none" stroke="black" points="580.317,-1164.4 580.317,-1223.6 "/>
<path fill="none" stroke="black" d="M580.317,-1223.6C580.317,-1229.6 574.317,-1235.6 568.317,-1235.6"/>
<polyline fill="none" stroke="black" points="568.317,-1235.6 431.683,-1235.6 "/>
<path fill="none" stroke="black" d="M431.683,-1235.6C425.683,-1235.6 419.683,-1229.6 419.683,-1223.6"/>
<polyline fill="none" stroke="black" points="419.683,-1223.6 419.683,-1164.4 "/>
<path fill="none" stroke="black" d="M419.683,-1164.4C419.683,-1158.4 425.683,-1152.4 431.683,-1152.4"/>
<text text-anchor="middle" x="500" y="-1217.6" font-family="Times,serif" font-size="14.00">DevelopGoalsCurriculum</text>
<polyline fill="none" stroke="black" points="419.683,-1210.8 580.317,-1210.8 "/>
<text text-anchor="start" x="427.683" y="-1192.8" font-family="Times,serif" font-size="14.00">id :integer</text>
<text text-anchor="start" x="427.683" y="-1176" font-family="Times,serif" font-size="14.00">type :string</text>
<text text-anchor="start" x="427.683" y="-1159.2" font-family="Times,serif" font-size="14.00">parent_id :integer</text>
</g>
<!-- DevelopCurriculum&#45;&gt;DevelopGoalsCurriculum -->
<g id="edge10" class="edge"><title>DevelopCurriculum&#45;&gt;DevelopGoalsCurriculum</title>
<path fill="none" stroke="black" d="M443.997,-1359.01C456.206,-1323.25 473.825,-1271.65 486.027,-1235.92"/>
</g>
<!-- DevelopItemsCurriculum -->
<g id="node10" class="node"><title>DevelopItemsCurriculum</title>
<polyline fill="none" stroke="black" points="254.462,-1152.4 389.538,-1152.4 "/>
<path fill="none" stroke="black" d="M389.538,-1152.4C395.538,-1152.4 401.538,-1158.4 401.538,-1164.4"/>
<polyline fill="none" stroke="black" points="401.538,-1164.4 401.538,-1223.6 "/>
<path fill="none" stroke="black" d="M401.538,-1223.6C401.538,-1229.6 395.538,-1235.6 389.538,-1235.6"/>
<polyline fill="none" stroke="black" points="389.538,-1235.6 254.462,-1235.6 "/>
<path fill="none" stroke="black" d="M254.462,-1235.6C248.462,-1235.6 242.462,-1229.6 242.462,-1223.6"/>
<polyline fill="none" stroke="black" points="242.462,-1223.6 242.462,-1164.4 "/>
<path fill="none" stroke="black" d="M242.462,-1164.4C242.462,-1158.4 248.462,-1152.4 254.462,-1152.4"/>
<text text-anchor="middle" x="322" y="-1217.6" font-family="Times,serif" font-size="14.00">DevelopItemsCurriculum</text>
<polyline fill="none" stroke="black" points="242.462,-1210.8 401.538,-1210.8 "/>
<text text-anchor="start" x="250.462" y="-1192.8" font-family="Times,serif" font-size="14.00">id :integer</text>
<text text-anchor="start" x="250.462" y="-1176" font-family="Times,serif" font-size="14.00">type :string</text>
<text text-anchor="start" x="250.462" y="-1159.2" font-family="Times,serif" font-size="14.00">parent_id :integer</text>
</g>
<!-- DevelopCurriculum&#45;&gt;DevelopItemsCurriculum -->
<g id="edge16" class="edge"><title>DevelopCurriculum&#45;&gt;DevelopItemsCurriculum</title>
<path fill="none" stroke="black" d="M408.404,-1359.01C389.568,-1323.25 362.384,-1271.65 343.558,-1235.92"/>
</g>
<!-- DevelopItem -->
<g id="node8" class="node"><title>DevelopItem</title>
<polyline fill="none" stroke="black" points="487.557,-233.2 656.443,-233.2 "/>
<path fill="none" stroke="black" d="M656.443,-233.2C662.443,-233.2 668.443,-239.2 668.443,-245.2"/>
<polyline fill="none" stroke="black" points="668.443,-245.2 668.443,-354.8 "/>
<path fill="none" stroke="black" d="M668.443,-354.8C668.443,-360.8 662.443,-366.8 656.443,-366.8"/>
<polyline fill="none" stroke="black" points="656.443,-366.8 487.557,-366.8 "/>
<path fill="none" stroke="black" d="M487.557,-366.8C481.557,-366.8 475.557,-360.8 475.557,-354.8"/>
<polyline fill="none" stroke="black" points="475.557,-354.8 475.557,-245.2 "/>
<path fill="none" stroke="black" d="M475.557,-245.2C475.557,-239.2 481.557,-233.2 487.557,-233.2"/>
<text text-anchor="middle" x="572" y="-348.8" font-family="Times,serif" font-size="14.00">DevelopItem</text>
<polyline fill="none" stroke="black" points="475.557,-342 668.443,-342 "/>
<text text-anchor="start" x="483.557" y="-324" font-family="Times,serif" font-size="14.00">id :integer</text>
<text text-anchor="start" x="483.557" y="-307.2" font-family="Times,serif" font-size="14.00">develop_curriculum_id :integer</text>
<text text-anchor="start" x="483.557" y="-290.4" font-family="Times,serif" font-size="14.00">develop_goal_id :integer</text>
<text text-anchor="start" x="483.557" y="-273.6" font-family="Times,serif" font-size="14.00">title :string</text>
<text text-anchor="start" x="483.557" y="-256.8" font-family="Times,serif" font-size="14.00">description :text</text>
<text text-anchor="start" x="483.557" y="-240" font-family="Times,serif" font-size="14.00">link_url :string</text>
</g>
<!-- DevelopGoal&#45;&gt;DevelopItem -->
<g id="edge4" class="edge"><title>DevelopGoal&#45;&gt;DevelopItem</title>
<path fill="none" stroke="#9d0d15" d="M572,-423.308C572,-408.477 572,-392.61 572,-377.383"/>
<ellipse fill="none" stroke="#9d0d15" cx="572" cy="-427.572" rx="4" ry="4"/>
<polygon fill="#9d0d15" stroke="#9d0d15" points="572,-376.964 576.5,-366.964 572,-371.964 572,-366.964 572,-366.964 572,-366.964 572,-371.964 567.5,-366.964 572,-376.964 572,-376.964"/>
</g>
<!-- DevelopGoalPick -->
<g id="node6" class="node"><title>DevelopGoalPick</title>
<polyline fill="none" stroke="black" points="773.939,-448.4 914.061,-448.4 "/>
<path fill="none" stroke="black" d="M914.061,-448.4C920.061,-448.4 926.061,-454.4 926.061,-460.4"/>
<polyline fill="none" stroke="black" points="926.061,-460.4 926.061,-519.6 "/>
<path fill="none" stroke="black" d="M926.061,-519.6C926.061,-525.6 920.061,-531.6 914.061,-531.6"/>
<polyline fill="none" stroke="black" points="914.061,-531.6 773.939,-531.6 "/>
<path fill="none" stroke="black" d="M773.939,-531.6C767.939,-531.6 761.939,-525.6 761.939,-519.6"/>
<polyline fill="none" stroke="black" points="761.939,-519.6 761.939,-460.4 "/>
<path fill="none" stroke="black" d="M761.939,-460.4C761.939,-454.4 767.939,-448.4 773.939,-448.4"/>
<text text-anchor="middle" x="844" y="-513.6" font-family="Times,serif" font-size="14.00">DevelopGoalPick</text>
<polyline fill="none" stroke="black" points="761.939,-506.8 926.061,-506.8 "/>
<text text-anchor="start" x="769.939" y="-488.8" font-family="Times,serif" font-size="14.00">id :integer</text>
<text text-anchor="start" x="769.939" y="-472" font-family="Times,serif" font-size="14.00">mentee_profile_id :integer</text>
<text text-anchor="start" x="769.939" y="-455.2" font-family="Times,serif" font-size="14.00">develop_goal_id :integer</text>
</g>
<!-- DevelopGoalsCurriculum&#45;&gt;DevelopGoal -->
<g id="edge6" class="edge"><title>DevelopGoalsCurriculum&#45;&gt;DevelopGoal</title>
<path fill="none" stroke="#6e4d3d" d="M517.331,-1144.18C527.887,-1112.15 540.546,-1069.11 547,-1030 574.684,-862.23 575.678,-661.392 573.913,-558.726"/>
<ellipse fill="none" stroke="#6e4d3d" cx="515.963" cy="-1148.28" rx="4.00001" ry="4.00001"/>
<polygon fill="#6e4d3d" stroke="#6e4d3d" points="573.909,-558.5 578.222,-548.417 573.816,-553.5 573.723,-548.501 573.723,-548.501 573.723,-548.501 573.816,-553.5 569.223,-548.585 573.909,-558.5 573.909,-558.5"/>
</g>
<!-- Edition -->
<g id="node11" class="node"><title>Edition</title>
<polyline fill="none" stroke="black" points="281.05,-811.2 526.95,-811.2 "/>
<path fill="none" stroke="black" d="M526.95,-811.2C532.95,-811.2 538.95,-817.2 538.95,-823.2"/>
<polyline fill="none" stroke="black" points="538.95,-823.2 538.95,-1016.8 "/>
<path fill="none" stroke="black" d="M538.95,-1016.8C538.95,-1022.8 532.95,-1028.8 526.95,-1028.8"/>
<polyline fill="none" stroke="black" points="526.95,-1028.8 281.05,-1028.8 "/>
<path fill="none" stroke="black" d="M281.05,-1028.8C275.05,-1028.8 269.05,-1022.8 269.05,-1016.8"/>
<polyline fill="none" stroke="black" points="269.05,-1016.8 269.05,-823.2 "/>
<path fill="none" stroke="black" d="M269.05,-823.2C269.05,-817.2 275.05,-811.2 281.05,-811.2"/>
<text text-anchor="middle" x="404" y="-1010.8" font-family="Times,serif" font-size="14.00">Edition</text>
<polyline fill="none" stroke="black" points="269.05,-1004 538.95,-1004 "/>
<text text-anchor="start" x="277.05" y="-986" font-family="Times,serif" font-size="14.00">id :integer</text>
<text text-anchor="start" x="277.05" y="-969.2" font-family="Times,serif" font-size="14.00">name :string</text>
<text text-anchor="start" x="277.05" y="-952.4" font-family="Times,serif" font-size="14.00">code :string</text>
<text text-anchor="start" x="277.05" y="-935.6" font-family="Times,serif" font-size="14.00">revision :integer</text>
<text text-anchor="start" x="277.05" y="-918.8" font-family="Times,serif" font-size="14.00">snapshot_self_assessment_survey_id :integer</text>
<text text-anchor="start" x="277.05" y="-902" font-family="Times,serif" font-size="14.00">snapshot_interactive_survey_id :integer</text>
<text text-anchor="start" x="277.05" y="-885.2" font-family="Times,serif" font-size="14.00">snapshot_observations_survey_id :integer</text>
<text text-anchor="start" x="277.05" y="-868.4" font-family="Times,serif" font-size="14.00">created_at :datetime</text>
<text text-anchor="start" x="277.05" y="-851.6" font-family="Times,serif" font-size="14.00">updated_at :datetime</text>
<text text-anchor="start" x="277.05" y="-834.8" font-family="Times,serif" font-size="14.00">develop_goals_curriculum_id :integer</text>
<text text-anchor="start" x="277.05" y="-818" font-family="Times,serif" font-size="14.00">develop_items_curriculum_id :integer</text>
</g>
<!-- DevelopGoalsCurriculum&#45;&gt;Edition -->
<g id="edge8" class="edge"><title>DevelopGoalsCurriculum&#45;&gt;Edition</title>
<path fill="none" stroke="#7f0ca0" d="M482.839,-1144.38C472.45,-1114.94 458.717,-1076.03 445.628,-1038.95"/>
<ellipse fill="none" stroke="#7f0ca0" cx="484.297" cy="-1148.51" rx="4.00001" ry="4.00001"/>
<polygon fill="#7f0ca0" stroke="#7f0ca0" points="445.466,-1038.49 446.381,-1027.56 443.802,-1033.77 442.138,-1029.06 442.138,-1029.06 442.138,-1029.06 443.802,-1033.77 437.894,-1030.55 445.466,-1038.49 445.466,-1038.49"/>
</g>
<!-- DevelopItemPick -->
<g id="node9" class="node"><title>DevelopItemPick</title>
<polyline fill="none" stroke="black" points="955.939,-448.4 1096.06,-448.4 "/>
<path fill="none" stroke="black" d="M1096.06,-448.4C1102.06,-448.4 1108.06,-454.4 1108.06,-460.4"/>
<polyline fill="none" stroke="black" points="1108.06,-460.4 1108.06,-519.6 "/>
<path fill="none" stroke="black" d="M1108.06,-519.6C1108.06,-525.6 1102.06,-531.6 1096.06,-531.6"/>
<polyline fill="none" stroke="black" points="1096.06,-531.6 955.939,-531.6 "/>
<path fill="none" stroke="black" d="M955.939,-531.6C949.939,-531.6 943.939,-525.6 943.939,-519.6"/>
<polyline fill="none" stroke="black" points="943.939,-519.6 943.939,-460.4 "/>
<path fill="none" stroke="black" d="M943.939,-460.4C943.939,-454.4 949.939,-448.4 955.939,-448.4"/>
<text text-anchor="middle" x="1026" y="-513.6" font-family="Times,serif" font-size="14.00">DevelopItemPick</text>
<polyline fill="none" stroke="black" points="943.939,-506.8 1108.06,-506.8 "/>
<text text-anchor="start" x="951.939" y="-488.8" font-family="Times,serif" font-size="14.00">id :integer</text>
<text text-anchor="start" x="951.939" y="-472" font-family="Times,serif" font-size="14.00">mentee_profile_id :integer</text>
<text text-anchor="start" x="951.939" y="-455.2" font-family="Times,serif" font-size="14.00">develop_item_id :integer</text>
</g>
<!-- DevelopItemsCurriculum&#45;&gt;DevelopItem -->
<g id="edge12" class="edge"><title>DevelopItemsCurriculum&#45;&gt;DevelopItem</title>
<path fill="none" stroke="#4ffce2" d="M298.463,-1144.9C274.548,-1091.52 241,-1002.18 241,-921 241,-921 241,-921 241,-489 241,-383.896 368.747,-336.825 465.517,-316.246"/>
<ellipse fill="none" stroke="#4ffce2" cx="300.117" cy="-1148.55" rx="4.00002" ry="4.00002"/>
<polygon fill="#4ffce2" stroke="#4ffce2" points="465.577,-316.234 476.278,-318.626 470.474,-315.226 475.371,-314.218 475.371,-314.218 475.371,-314.218 470.474,-315.226 474.464,-309.81 465.577,-316.234 465.577,-316.234"/>
</g>
<!-- DevelopItemsCurriculum&#45;&gt;Edition -->
<g id="edge14" class="edge"><title>DevelopItemsCurriculum&#45;&gt;Edition</title>
<path fill="none" stroke="#b1bfa5" d="M336.658,-1144.38C345.533,-1114.94 357.262,-1076.03 368.442,-1038.95"/>
<ellipse fill="none" stroke="#b1bfa5" cx="335.431" cy="-1148.45" rx="4.00001" ry="4.00001"/>
<polygon fill="#b1bfa5" stroke="#b1bfa5" points="368.537,-1038.63 375.732,-1030.36 369.981,-1033.84 371.424,-1029.06 371.424,-1029.06 371.424,-1029.06 369.981,-1033.84 367.115,-1027.76 368.537,-1038.63 368.537,-1038.63"/>
</g>
<!-- MenteeProfile -->
<g id="node14" class="node"><title>MenteeProfile</title>
<polyline fill="none" stroke="black" points="739.533,-604.8 852.467,-604.8 "/>
<path fill="none" stroke="black" d="M852.467,-604.8C858.467,-604.8 864.467,-610.8 864.467,-616.8"/>
<polyline fill="none" stroke="black" points="864.467,-616.8 864.467,-743.2 "/>
<path fill="none" stroke="black" d="M864.467,-743.2C864.467,-749.2 858.467,-755.2 852.467,-755.2"/>
<polyline fill="none" stroke="black" points="852.467,-755.2 739.533,-755.2 "/>
<path fill="none" stroke="black" d="M739.533,-755.2C733.533,-755.2 727.533,-749.2 727.533,-743.2"/>
<polyline fill="none" stroke="black" points="727.533,-743.2 727.533,-616.8 "/>
<path fill="none" stroke="black" d="M727.533,-616.8C727.533,-610.8 733.533,-604.8 739.533,-604.8"/>
<text text-anchor="middle" x="796" y="-737.2" font-family="Times,serif" font-size="14.00">MenteeProfile</text>
<polyline fill="none" stroke="black" points="727.533,-730.4 864.467,-730.4 "/>
<text text-anchor="start" x="735.533" y="-712.4" font-family="Times,serif" font-size="14.00">id :integer</text>
<text text-anchor="start" x="735.533" y="-695.6" font-family="Times,serif" font-size="14.00">edition_id :integer</text>
<text text-anchor="start" x="735.533" y="-678.8" font-family="Times,serif" font-size="14.00">mentee_id :integer</text>
<text text-anchor="start" x="735.533" y="-662" font-family="Times,serif" font-size="14.00">created_at :datetime</text>
<text text-anchor="start" x="735.533" y="-645.2" font-family="Times,serif" font-size="14.00">updated_at :datetime</text>
<text text-anchor="start" x="735.533" y="-628.4" font-family="Times,serif" font-size="14.00">snapshot_state :string</text>
<text text-anchor="start" x="735.533" y="-611.6" font-family="Times,serif" font-size="14.00">lifelist_state :string</text>
</g>
<!-- Edition&#45;&gt;MenteeProfile -->
<g id="edge20" class="edge"><title>Edition&#45;&gt;MenteeProfile</title>
<path fill="none" stroke="#53e98a" d="M546.605,-855.777C602.182,-828.414 665.103,-793.948 718,-756 718.382,-755.726 718.763,-755.451 719.145,-755.173"/>
<ellipse fill="none" stroke="#53e98a" cx="542.758" cy="-857.66" rx="4.00002" ry="4.00002"/>
<polygon fill="#53e98a" stroke="#53e98a" points="719.168,-755.156 729.856,-752.7 723.153,-752.135 727.137,-749.114 727.137,-749.114 727.137,-749.114 723.153,-752.135 724.419,-745.528 719.168,-755.156 719.168,-755.156"/>
</g>
<!-- Survey -->
<g id="node17" class="node"><title>Survey</title>
<polyline fill="none" stroke="black" points="11.4395,-621.6 200.561,-621.6 "/>
<path fill="none" stroke="black" d="M200.561,-621.6C206.561,-621.6 212.561,-627.6 212.561,-633.6"/>
<polyline fill="none" stroke="black" points="212.561,-633.6 212.561,-726.4 "/>
<path fill="none" stroke="black" d="M212.561,-726.4C212.561,-732.4 206.561,-738.4 200.561,-738.4"/>
<polyline fill="none" stroke="black" points="200.561,-738.4 11.4395,-738.4 "/>
<path fill="none" stroke="black" d="M11.4395,-738.4C5.43945,-738.4 -0.560547,-732.4 -0.560547,-726.4"/>
<polyline fill="none" stroke="black" points="-0.560547,-726.4 -0.560547,-633.6 "/>
<path fill="none" stroke="black" d="M-0.560547,-633.6C-0.560547,-627.6 5.43945,-621.6 11.4395,-621.6"/>
<text text-anchor="middle" x="106" y="-720.4" font-family="Times,serif" font-size="14.00">Survey</text>
<polyline fill="none" stroke="black" points="-0.560547,-713.6 212.561,-713.6 "/>
<text text-anchor="start" x="7.43945" y="-695.6" font-family="Times,serif" font-size="14.00">id :integer</text>
<text text-anchor="start" x="7.43945" y="-678.8" font-family="Times,serif" font-size="14.00">edition_id :integer</text>
<text text-anchor="start" x="7.43945" y="-662" font-family="Times,serif" font-size="14.00">default_question_group_id :integer</text>
<text text-anchor="start" x="7.43945" y="-645.2" font-family="Times,serif" font-size="14.00">created_at :datetime</text>
<text text-anchor="start" x="7.43945" y="-628.4" font-family="Times,serif" font-size="14.00">updated_at :datetime</text>
</g>
<!-- Edition&#45;&gt;Survey -->
<g id="edge18" class="edge"><title>Edition&#45;&gt;Survey</title>
<path fill="none" stroke="#85e22b" d="M262.346,-805.867C236.16,-784.953 209.671,-763.798 186.124,-744.992"/>
<ellipse fill="none" stroke="#85e22b" cx="265.825" cy="-808.645" rx="4.00002" ry="4.00002"/>
<polygon fill="#85e22b" stroke="#85e22b" points="186.07,-744.949 181.065,-735.192 182.163,-741.828 178.256,-738.708 178.256,-738.708 178.256,-738.708 182.163,-741.828 175.448,-742.224 186.07,-744.949 186.07,-744.949"/>
</g>
<!-- JournalEntry -->
<g id="node12" class="node"><title>JournalEntry</title>
<polyline fill="none" stroke="black" points="894.495,-613.2 1003.51,-613.2 "/>
<path fill="none" stroke="black" d="M1003.51,-613.2C1009.51,-613.2 1015.51,-619.2 1015.51,-625.2"/>
<polyline fill="none" stroke="black" points="1015.51,-625.2 1015.51,-734.8 "/>
<path fill="none" stroke="black" d="M1015.51,-734.8C1015.51,-740.8 1009.51,-746.8 1003.51,-746.8"/>
<polyline fill="none" stroke="black" points="1003.51,-746.8 894.495,-746.8 "/>
<path fill="none" stroke="black" d="M894.495,-746.8C888.495,-746.8 882.495,-740.8 882.495,-734.8"/>
<polyline fill="none" stroke="black" points="882.495,-734.8 882.495,-625.2 "/>
<path fill="none" stroke="black" d="M882.495,-625.2C882.495,-619.2 888.495,-613.2 894.495,-613.2"/>
<text text-anchor="middle" x="949" y="-728.8" font-family="Times,serif" font-size="14.00">JournalEntry</text>
<polyline fill="none" stroke="black" points="882.495,-722 1015.51,-722 "/>
<text text-anchor="start" x="890.495" y="-704" font-family="Times,serif" font-size="14.00">id :integer</text>
<text text-anchor="start" x="890.495" y="-687.2" font-family="Times,serif" font-size="14.00">body :text</text>
<text text-anchor="start" x="890.495" y="-670.4" font-family="Times,serif" font-size="14.00">mentee_id :integer</text>
<text text-anchor="start" x="890.495" y="-653.6" font-family="Times,serif" font-size="14.00">logged_at :datetime</text>
<text text-anchor="start" x="890.495" y="-636.8" font-family="Times,serif" font-size="14.00">created_at :datetime</text>
<text text-anchor="start" x="890.495" y="-620" font-family="Times,serif" font-size="14.00">updated_at :datetime</text>
</g>
<!-- Mentee -->
<g id="node13" class="node"><title>Mentee</title>
<polyline fill="none" stroke="black" points="774.495,-811.2 883.505,-811.2 "/>
<path fill="none" stroke="black" d="M883.505,-811.2C889.505,-811.2 895.505,-817.2 895.505,-823.2"/>
<polyline fill="none" stroke="black" points="895.505,-823.2 895.505,-1016.8 "/>
<path fill="none" stroke="black" d="M895.505,-1016.8C895.505,-1022.8 889.505,-1028.8 883.505,-1028.8"/>
<polyline fill="none" stroke="black" points="883.505,-1028.8 774.495,-1028.8 "/>
<path fill="none" stroke="black" d="M774.495,-1028.8C768.495,-1028.8 762.495,-1022.8 762.495,-1016.8"/>
<polyline fill="none" stroke="black" points="762.495,-1016.8 762.495,-823.2 "/>
<path fill="none" stroke="black" d="M762.495,-823.2C762.495,-817.2 768.495,-811.2 774.495,-811.2"/>
<text text-anchor="middle" x="829" y="-1010.8" font-family="Times,serif" font-size="14.00">Mentee</text>
<polyline fill="none" stroke="black" points="762.495,-1004 895.505,-1004 "/>
<text text-anchor="start" x="770.495" y="-986" font-family="Times,serif" font-size="14.00">id :integer</text>
<text text-anchor="start" x="770.495" y="-969.2" font-family="Times,serif" font-size="14.00">name :string</text>
<text text-anchor="start" x="770.495" y="-952.4" font-family="Times,serif" font-size="14.00">birth_date :date</text>
<text text-anchor="start" x="770.495" y="-935.6" font-family="Times,serif" font-size="14.00">major :string</text>
<text text-anchor="start" x="770.495" y="-918.8" font-family="Times,serif" font-size="14.00">phone :string</text>
<text text-anchor="start" x="770.495" y="-902" font-family="Times,serif" font-size="14.00">email :string</text>
<text text-anchor="start" x="770.495" y="-885.2" font-family="Times,serif" font-size="14.00">created_at :datetime</text>
<text text-anchor="start" x="770.495" y="-868.4" font-family="Times,serif" font-size="14.00">updated_at :datetime</text>
<text text-anchor="start" x="770.495" y="-851.6" font-family="Times,serif" font-size="14.00">mentor_id :integer</text>
<text text-anchor="start" x="770.495" y="-834.8" font-family="Times,serif" font-size="14.00">notes :text</text>
<text text-anchor="start" x="770.495" y="-818" font-family="Times,serif" font-size="14.00">avatar :string</text>
</g>
<!-- Mentee&#45;&gt;JournalEntry -->
<g id="edge22" class="edge"><title>Mentee&#45;&gt;JournalEntry</title>
<path fill="none" stroke="#67d24e" d="M887.011,-803.944C895.181,-787.742 903.399,-771.442 911.06,-756.248"/>
<ellipse fill="none" stroke="#67d24e" cx="885.183" cy="-807.57" rx="4.00002" ry="4.00002"/>
<polygon fill="#67d24e" stroke="#67d24e" points="911.25,-755.87 919.771,-748.967 913.501,-751.405 915.753,-746.941 915.753,-746.941 915.753,-746.941 913.501,-751.405 911.734,-744.915 911.25,-755.87 911.25,-755.87"/>
</g>
<!-- Mentee&#45;&gt;MenteeProfile -->
<g id="edge24" class="edge"><title>Mentee&#45;&gt;MenteeProfile</title>
<path fill="none" stroke="#acbe97" d="M811.516,-802.871C810.999,-799.206 810.493,-795.575 810,-792 808.815,-783.402 807.617,-774.424 806.447,-765.46"/>
<ellipse fill="none" stroke="#acbe97" cx="812.099" cy="-806.98" rx="4.00001" ry="4.00001"/>
<polygon fill="#acbe97" stroke="#acbe97" points="806.424,-765.284 809.602,-754.789 805.782,-760.326 805.139,-755.367 805.139,-755.367 805.139,-755.367 805.782,-760.326 800.677,-755.945 806.424,-765.284 806.424,-765.284"/>
</g>
<!-- Mentee&#45;&gt;MenteeProfile -->
<g id="edge26" class="edge"><title>Mentee&#45;&gt;MenteeProfile</title>
<path fill="none" stroke="#056903" d="M812.942,-803.186C811.096,-789.873 809.242,-776.506 807.474,-763.753"/>
<ellipse fill="none" stroke="#056903" cx="813.495" cy="-807.18" rx="4.00001" ry="4.00001"/>
<ellipse fill="#056903" stroke="#056903" cx="806.875" cy="-759.43" rx="4.00001" ry="4.00001"/>
<text text-anchor="middle" x="848.486" y="-777.4" font-family="Times,serif" font-size="14.00">active_profile</text>
</g>
<!-- MenteeProfile&#45;&gt;Answer -->
<g id="edge36" class="edge"><title>MenteeProfile&#45;&gt;Answer</title>
<path fill="none" stroke="#8270f7" d="M763.284,-597.207C759.585,-586.781 756.054,-576.193 753,-566 708.305,-416.845 736.694,-367.811 677,-224 672.874,-214.059 667.997,-204.035 662.707,-194.199"/>
<ellipse fill="none" stroke="#8270f7" cx="764.649" cy="-600.998" rx="4.00001" ry="4.00001"/>
<polygon fill="#8270f7" stroke="#8270f7" points="662.584,-193.977 661.68,-183.048 660.163,-189.602 657.743,-185.227 657.743,-185.227 657.743,-185.227 660.163,-189.602 653.805,-187.405 662.584,-193.977 662.584,-193.977"/>
</g>
<!-- MenteeProfile&#45;&gt;DevelopGoal -->
<g id="edge30" class="edge"><title>MenteeProfile&#45;&gt;DevelopGoal</title>
<path fill="none" stroke="#aaa99d" d="M719.492,-605.102C718.994,-604.732 718.497,-604.364 718,-604 704.526,-594.123 698.796,-595.422 685,-586 671.2,-576.575 657.099,-565.788 643.746,-554.945"/>
<polygon fill="#aaa99d" stroke="#aaa99d" points="719.625,-605.205 724.777,-614.886 723.579,-608.267 727.532,-611.328 727.532,-611.328 727.532,-611.328 723.579,-608.267 730.287,-607.769 719.625,-605.205 719.625,-605.205"/>
<polygon fill="#aaa99d" stroke="#aaa99d" points="643.705,-554.911 638.835,-545.086 639.842,-551.737 635.978,-548.564 635.978,-548.564 635.978,-548.564 639.842,-551.737 633.122,-552.041 643.705,-554.911 643.705,-554.911"/>
</g>
<!-- MenteeProfile&#45;&gt;DevelopGoalPick -->
<g id="edge28" class="edge"><title>MenteeProfile&#45;&gt;DevelopGoalPick</title>
<path fill="none" stroke="#e73aee" d="M816.992,-596.783C821.795,-577.968 826.762,-558.514 831.107,-541.499"/>
<ellipse fill="none" stroke="#e73aee" cx="815.96" cy="-600.822" rx="4.00001" ry="4.00001"/>
<polygon fill="#e73aee" stroke="#e73aee" points="831.113,-541.475 837.947,-532.899 832.35,-536.631 833.587,-531.786 833.587,-531.786 833.587,-531.786 832.35,-536.631 829.226,-530.673 831.113,-541.475 831.113,-541.475"/>
</g>
<!-- MenteeProfile&#45;&gt;DevelopItem -->
<g id="edge34" class="edge"><title>MenteeProfile&#45;&gt;DevelopItem</title>
<path fill="none" stroke="#68fde3" d="M725.459,-596.048C723.518,-592.721 721.689,-589.366 720,-586 684.661,-515.572 714.559,-483.27 677,-414 669.618,-400.385 660.212,-387.155 650.075,-374.83"/>
<polygon fill="#68fde3" stroke="#68fde3" points="725.594,-596.267 727.007,-607.141 728.216,-600.524 730.839,-604.781 730.839,-604.781 730.839,-604.781 728.216,-600.524 734.67,-602.421 725.594,-596.267 725.594,-596.267"/>
<polygon fill="#68fde3" stroke="#68fde3" points="649.789,-374.493 646.753,-363.956 646.555,-370.68 643.321,-366.867 643.321,-366.867 643.321,-366.867 646.555,-370.68 639.889,-369.778 649.789,-374.493 649.789,-374.493"/>
</g>
<!-- MenteeProfile&#45;&gt;DevelopItemPick -->
<g id="edge32" class="edge"><title>MenteeProfile&#45;&gt;DevelopItemPick</title>
<path fill="none" stroke="#f5e66f" d="M870.9,-605.649C871.6,-605.094 872.3,-604.544 873,-604 898.511,-584.158 908.688,-584.768 935,-566 947.053,-557.403 959.557,-547.679 971.296,-538.15"/>
<ellipse fill="none" stroke="#f5e66f" cx="867.698" cy="-608.252" rx="4.00002" ry="4.00002"/>
<polygon fill="#f5e66f" stroke="#f5e66f" points="971.553,-537.94 982.139,-535.081 975.42,-534.77 979.286,-531.6 979.286,-531.6 979.286,-531.6 975.42,-534.77 976.434,-528.12 971.553,-537.94 971.553,-537.94"/>
</g>
<!-- Question -->
<g id="node15" class="node"><title>Question</title>
<polyline fill="none" stroke="black" points="129.374,-224.8 272.626,-224.8 "/>
<path fill="none" stroke="black" d="M272.626,-224.8C278.626,-224.8 284.626,-230.8 284.626,-236.8"/>
<polyline fill="none" stroke="black" points="284.626,-236.8 284.626,-363.2 "/>
<path fill="none" stroke="black" d="M284.626,-363.2C284.626,-369.2 278.626,-375.2 272.626,-375.2"/>
<polyline fill="none" stroke="black" points="272.626,-375.2 129.374,-375.2 "/>
<path fill="none" stroke="black" d="M129.374,-375.2C123.374,-375.2 117.374,-369.2 117.374,-363.2"/>
<polyline fill="none" stroke="black" points="117.374,-363.2 117.374,-236.8 "/>
<path fill="none" stroke="black" d="M117.374,-236.8C117.374,-230.8 123.374,-224.8 129.374,-224.8"/>
<text text-anchor="middle" x="201" y="-357.2" font-family="Times,serif" font-size="14.00">Question</text>
<polyline fill="none" stroke="black" points="117.374,-350.4 284.626,-350.4 "/>
<text text-anchor="start" x="125.374" y="-332.4" font-family="Times,serif" font-size="14.00">id :integer</text>
<text text-anchor="start" x="125.374" y="-315.6" font-family="Times,serif" font-size="14.00">body :text</text>
<text text-anchor="start" x="125.374" y="-298.8" font-family="Times,serif" font-size="14.00">question_type :string</text>
<text text-anchor="start" x="125.374" y="-282" font-family="Times,serif" font-size="14.00">question_group_id :integer</text>
<text text-anchor="start" x="125.374" y="-265.2" font-family="Times,serif" font-size="14.00">position :integer</text>
<text text-anchor="start" x="125.374" y="-248.4" font-family="Times,serif" font-size="14.00">created_at :datetime</text>
<text text-anchor="start" x="125.374" y="-231.6" font-family="Times,serif" font-size="14.00">updated_at :datetime</text>
</g>
<!-- Question&#45;&gt;Answer -->
<g id="edge38" class="edge"><title>Question&#45;&gt;Answer</title>
<path fill="none" stroke="#0af8ab" d="M291.983,-251.541C355.198,-218.566 439.125,-174.787 502.461,-141.75"/>
<ellipse fill="none" stroke="#0af8ab" cx="288.373" cy="-253.424" rx="4.00002" ry="4.00002"/>
<polygon fill="#0af8ab" stroke="#0af8ab" points="502.785,-141.581 513.732,-140.946 507.218,-139.268 511.651,-136.956 511.651,-136.956 511.651,-136.956 507.218,-139.268 509.57,-132.966 502.785,-141.581 502.785,-141.581"/>
</g>
<!-- QuestionGroup -->
<g id="node16" class="node"><title>QuestionGroup</title>
<polyline fill="none" stroke="black" points="51.4946,-414.8 160.505,-414.8 "/>
<path fill="none" stroke="black" d="M160.505,-414.8C166.505,-414.8 172.505,-420.8 172.505,-426.8"/>
<polyline fill="none" stroke="black" points="172.505,-426.8 172.505,-553.2 "/>
<path fill="none" stroke="black" d="M172.505,-553.2C172.505,-559.2 166.505,-565.2 160.505,-565.2"/>
<polyline fill="none" stroke="black" points="160.505,-565.2 51.4946,-565.2 "/>
<path fill="none" stroke="black" d="M51.4946,-565.2C45.4946,-565.2 39.4946,-559.2 39.4946,-553.2"/>
<polyline fill="none" stroke="black" points="39.4946,-553.2 39.4946,-426.8 "/>
<path fill="none" stroke="black" d="M39.4946,-426.8C39.4946,-420.8 45.4946,-414.8 51.4946,-414.8"/>
<text text-anchor="middle" x="106" y="-547.2" font-family="Times,serif" font-size="14.00">QuestionGroup</text>
<polyline fill="none" stroke="black" points="39.4946,-540.4 172.505,-540.4 "/>
<text text-anchor="start" x="47.4946" y="-522.4" font-family="Times,serif" font-size="14.00">id :integer</text>
<text text-anchor="start" x="47.4946" y="-505.6" font-family="Times,serif" font-size="14.00">title :string</text>
<text text-anchor="start" x="47.4946" y="-488.8" font-family="Times,serif" font-size="14.00">virtual :boolean</text>
<text text-anchor="start" x="47.4946" y="-472" font-family="Times,serif" font-size="14.00">survey_id :integer</text>
<text text-anchor="start" x="47.4946" y="-455.2" font-family="Times,serif" font-size="14.00">position :integer</text>
<text text-anchor="start" x="47.4946" y="-438.4" font-family="Times,serif" font-size="14.00">created_at :datetime</text>
<text text-anchor="start" x="47.4946" y="-421.6" font-family="Times,serif" font-size="14.00">updated_at :datetime</text>
</g>
<!-- QuestionGroup&#45;&gt;Question -->
<g id="edge40" class="edge"><title>QuestionGroup&#45;&gt;Question</title>
<path fill="none" stroke="#7c039a" d="M147.247,-407.375C151.11,-399.73 155.029,-391.974 158.9,-384.314"/>
<ellipse fill="none" stroke="#7c039a" cx="145.351" cy="-411.127" rx="4.00002" ry="4.00002"/>
<polygon fill="#7c039a" stroke="#7c039a" points="158.905,-384.304 167.431,-377.408 161.16,-379.841 163.415,-375.379 163.415,-375.379 163.415,-375.379 161.16,-379.841 159.399,-373.349 158.905,-384.304 158.905,-384.304"/>
</g>
<!-- Survey&#45;&gt;Question -->
<g id="edge44" class="edge"><title>Survey&#45;&gt;Question</title>
<path fill="none" stroke="#9e08a9" d="M157.892,-612.827C167.084,-598.125 175.473,-582.104 181,-566 200.947,-507.887 205.553,-438.526 205.382,-385.344"/>
<polygon fill="#9e08a9" stroke="#9e08a9" points="157.83,-612.922 148.623,-618.878 155.116,-617.121 152.402,-621.321 152.402,-621.321 152.402,-621.321 155.116,-617.121 156.181,-623.763 157.83,-612.922 157.83,-612.922"/>
<polygon fill="#9e08a9" stroke="#9e08a9" points="205.381,-385.27 209.792,-375.23 205.337,-380.27 205.292,-375.271 205.292,-375.271 205.292,-375.271 205.337,-380.27 200.792,-375.311 205.381,-385.27 205.381,-385.27"/>
</g>
<!-- Survey&#45;&gt;QuestionGroup -->
<g id="edge42" class="edge"><title>Survey&#45;&gt;QuestionGroup</title>
<path fill="none" stroke="#856911" d="M106,-613.561C106,-601.298 106,-588.319 106,-575.574"/>
<ellipse fill="none" stroke="#856911" cx="106" cy="-617.572" rx="4" ry="4"/>
<polygon fill="#856911" stroke="#856911" points="106,-575.421 110.5,-565.421 106,-570.421 106,-565.421 106,-565.421 106,-565.421 106,-570.421 101.5,-565.421 106,-575.421 106,-575.421"/>
</g>
<!-- User -->
<g id="node18" class="node"><title>User</title>
<polyline fill="none" stroke="black" points="738.722,-1068.4 919.278,-1068.4 "/>
<path fill="none" stroke="black" d="M919.278,-1068.4C925.278,-1068.4 931.278,-1074.4 931.278,-1080.4"/>
<polyline fill="none" stroke="black" points="931.278,-1080.4 931.278,-1307.6 "/>
<path fill="none" stroke="black" d="M931.278,-1307.6C931.278,-1313.6 925.278,-1319.6 919.278,-1319.6"/>
<polyline fill="none" stroke="black" points="919.278,-1319.6 738.722,-1319.6 "/>
<path fill="none" stroke="black" d="M738.722,-1319.6C732.722,-1319.6 726.722,-1313.6 726.722,-1307.6"/>
<polyline fill="none" stroke="black" points="726.722,-1307.6 726.722,-1080.4 "/>
<path fill="none" stroke="black" d="M726.722,-1080.4C726.722,-1074.4 732.722,-1068.4 738.722,-1068.4"/>
<text text-anchor="middle" x="829" y="-1301.6" font-family="Times,serif" font-size="14.00">User</text>
<polyline fill="none" stroke="black" points="726.722,-1294.8 931.278,-1294.8 "/>
<text text-anchor="start" x="734.722" y="-1276.8" font-family="Times,serif" font-size="14.00">id :integer</text>
<text text-anchor="start" x="734.722" y="-1260" font-family="Times,serif" font-size="14.00">email :string</text>
<text text-anchor="start" x="734.722" y="-1243.2" font-family="Times,serif" font-size="14.00">encrypted_password :string</text>
<text text-anchor="start" x="734.722" y="-1226.4" font-family="Times,serif" font-size="14.00">reset_password_token :string</text>
<text text-anchor="start" x="734.722" y="-1209.6" font-family="Times,serif" font-size="14.00">reset_password_sent_at :datetime</text>
<text text-anchor="start" x="734.722" y="-1192.8" font-family="Times,serif" font-size="14.00">remember_created_at :datetime</text>
<text text-anchor="start" x="734.722" y="-1176" font-family="Times,serif" font-size="14.00">sign_in_count :integer</text>
<text text-anchor="start" x="734.722" y="-1159.2" font-family="Times,serif" font-size="14.00">current_sign_in_at :datetime</text>
<text text-anchor="start" x="734.722" y="-1142.4" font-family="Times,serif" font-size="14.00">last_sign_in_at :datetime</text>
<text text-anchor="start" x="734.722" y="-1125.6" font-family="Times,serif" font-size="14.00">current_sign_in_ip :string</text>
<text text-anchor="start" x="734.722" y="-1108.8" font-family="Times,serif" font-size="14.00">last_sign_in_ip :string</text>
<text text-anchor="start" x="734.722" y="-1092" font-family="Times,serif" font-size="14.00">created_at :datetime</text>
<text text-anchor="start" x="734.722" y="-1075.2" font-family="Times,serif" font-size="14.00">updated_at :datetime</text>
</g>
<!-- User&#45;&gt;Mentee -->
<g id="edge46" class="edge"><title>User&#45;&gt;Mentee</title>
<path fill="none" stroke="#7063b6" d="M829,-1060.13C829,-1053.08 829,-1046.03 829,-1039.03"/>
<ellipse fill="none" stroke="#7063b6" cx="829" cy="-1064.15" rx="4" ry="4"/>
<polygon fill="#7063b6" stroke="#7063b6" points="829,-1038.84 833.5,-1028.84 829,-1033.84 829,-1028.84 829,-1028.84 829,-1028.84 829,-1033.84 824.5,-1028.84 829,-1038.84 829,-1038.84"/>
</g>
</g>
</svg>
