<?xml version="1.0" encoding="UTF-8" standalone="no"?>
<!DOCTYPE svg PUBLIC "-//W3C//DTD SVG 1.1//EN"
 "http://www.w3.org/Graphics/SVG/1.1/DTD/svg11.dtd">
<!-- Generated by graphviz version 2.28.0 (20130122.0304)
 -->
<!-- Title: models_diagram Pages: 1 -->
<svg width="365pt" height="176pt"
 viewBox="0.00 0.00 365.00 176.00" xmlns="http://www.w3.org/2000/svg" xmlns:xlink="http://www.w3.org/1999/xlink">
<g id="graph1" class="graph" transform="scale(1 1) rotate(0) translate(4 172)">
<title>models_diagram</title>
<polygon fill="white" stroke="white" points="-4,5 -4,-172 362,-172 362,5 -4,5"/>
<!-- _diagram_info -->
<g id="node1" class="node"><title>_diagram_info</title>
<text text-anchor="start" x="7.31226" y="-110" font-family="Times,serif" font-size="13.00">Models diagram</text>
<text text-anchor="start" x="7.31226" y="-94.4" font-family="Times,serif" font-size="13.00">Date: Jan 21 2013 &#45; 21:07</text>
<text text-anchor="start" x="7.31226" y="-78.8" font-family="Times,serif" font-size="13.00">Migration version: 20121224042924</text>
<text text-anchor="start" x="7.31226" y="-63.2" font-family="Times,serif" font-size="13.00">Generated by RailRoady 1.1.0</text>
<text text-anchor="start" x="7.31226" y="-47.6" font-family="Times,serif" font-size="13.00">http://railroady.prestonlee.com</text>
</g>
<!-- Mentee -->
<g id="node2" class="node"><title>Mentee</title>
<polyline fill="none" stroke="black" points="236.495,-0.4 345.505,-0.4 "/>
<path fill="none" stroke="black" d="M345.505,-0.4C351.505,-0.4 357.505,-6.4 357.505,-12.4"/>
<polyline fill="none" stroke="black" points="357.505,-12.4 357.505,-155.6 "/>
<path fill="none" stroke="black" d="M357.505,-155.6C357.505,-161.6 351.505,-167.6 345.505,-167.6"/>
<polyline fill="none" stroke="black" points="345.505,-167.6 236.495,-167.6 "/>
<path fill="none" stroke="black" d="M236.495,-167.6C230.495,-167.6 224.495,-161.6 224.495,-155.6"/>
<polyline fill="none" stroke="black" points="224.495,-155.6 224.495,-12.4 "/>
<path fill="none" stroke="black" d="M224.495,-12.4C224.495,-6.4 230.495,-0.4 236.495,-0.4"/>
<text text-anchor="middle" x="291" y="-149.6" font-family="Times,serif" font-size="14.00">Mentee</text>
<polyline fill="none" stroke="black" points="224.495,-142.8 357.505,-142.8 "/>
<text text-anchor="start" x="232.495" y="-124.8" font-family="Times,serif" font-size="14.00">id :integer</text>
<text text-anchor="start" x="232.495" y="-108" font-family="Times,serif" font-size="14.00">name :string</text>
<text text-anchor="start" x="232.495" y="-91.2" font-family="Times,serif" font-size="14.00">birth_date :date</text>
<text text-anchor="start" x="232.495" y="-74.4" font-family="Times,serif" font-size="14.00">major :string</text>
<text text-anchor="start" x="232.495" y="-57.6" font-family="Times,serif" font-size="14.00">phone :string</text>
<text text-anchor="start" x="232.495" y="-40.8" font-family="Times,serif" font-size="14.00">email :string</text>
<text text-anchor="start" x="232.495" y="-24" font-family="Times,serif" font-size="14.00">created_at :datetime</text>
<text text-anchor="start" x="232.495" y="-7.2" font-family="Times,serif" font-size="14.00">updated_at :datetime</text>
</g>
</g>
</svg>
