<?xml version="1.0" encoding="UTF-8" standalone="no"?>
<!DOCTYPE svg PUBLIC "-//W3C//DTD SVG 1.1//EN"
 "http://www.w3.org/Graphics/SVG/1.1/DTD/svg11.dtd">
<!-- Generated by graphviz version 2.28.0 (20130122.0304)
 -->
<!-- Title: models_diagram Pages: 1 -->
<svg width="788pt" height="1344pt"
 viewBox="0.00 0.00 788.00 1344.00" xmlns="http://www.w3.org/2000/svg" xmlns:xlink="http://www.w3.org/1999/xlink">
<g id="graph1" class="graph" transform="scale(1 1) rotate(0) translate(4 1340)">
<title>models_diagram</title>
<polygon fill="white" stroke="white" points="-4,5 -4,-1340 785,-1340 785,5 -4,5"/>
<!-- _diagram_info -->
<g id="node1" class="node"><title>_diagram_info</title>
<text text-anchor="start" x="333.312" y="-1236" font-family="Times,serif" font-size="13.00">Models diagram</text>
<text text-anchor="start" x="333.312" y="-1220.4" font-family="Times,serif" font-size="13.00">Date: Jun 10 2014 &#45; 13:05</text>
<text text-anchor="start" x="333.312" y="-1204.8" font-family="Times,serif" font-size="13.00">Migration version: 20131030191750</text>
<text text-anchor="start" x="333.312" y="-1189.2" font-family="Times,serif" font-size="13.00">Generated by RailRoady 1.1.0</text>
<text text-anchor="start" x="333.312" y="-1173.6" font-family="Times,serif" font-size="13.00">http://railroady.prestonlee.com</text>
</g>
<!-- Answer -->
<g id="node2" class="node"><title>Answer</title>
<polyline fill="none" stroke="black" points="362.939,-1 503.061,-1 "/>
<path fill="none" stroke="black" d="M503.061,-1C509.061,-1 515.061,-7 515.061,-13"/>
<polyline fill="none" stroke="black" points="515.061,-13 515.061,-173 "/>
<path fill="none" stroke="black" d="M515.061,-173C515.061,-179 509.061,-185 503.061,-185"/>
<polyline fill="none" stroke="black" points="503.061,-185 362.939,-185 "/>
<path fill="none" stroke="black" d="M362.939,-185C356.939,-185 350.939,-179 350.939,-173"/>
<polyline fill="none" stroke="black" points="350.939,-173 350.939,-13 "/>
<path fill="none" stroke="black" d="M350.939,-13C350.939,-7 356.939,-1 362.939,-1"/>
<text text-anchor="middle" x="433" y="-167" font-family="Times,serif" font-size="14.00">Answer</text>
<polyline fill="none" stroke="black" points="350.939,-160.2 515.061,-160.2 "/>
<text text-anchor="start" x="358.939" y="-142.2" font-family="Times,serif" font-size="14.00">id :integer</text>
<text text-anchor="start" x="358.939" y="-125.4" font-family="Times,serif" font-size="14.00">text_value :text</text>
<text text-anchor="start" x="358.939" y="-108.6" font-family="Times,serif" font-size="14.00">number_value :integer</text>
<text text-anchor="start" x="358.939" y="-91.8" font-family="Times,serif" font-size="14.00">boolean_value :boolean</text>
<text text-anchor="start" x="358.939" y="-75" font-family="Times,serif" font-size="14.00">not_applicable :boolean</text>
<text text-anchor="start" x="358.939" y="-58.2" font-family="Times,serif" font-size="14.00">question_id :integer</text>
<text text-anchor="start" x="358.939" y="-41.4" font-family="Times,serif" font-size="14.00">mentee_profile_id :integer</text>
<text text-anchor="start" x="358.939" y="-24.6" font-family="Times,serif" font-size="14.00">created_at :datetime</text>
<text text-anchor="start" x="358.939" y="-7.8" font-family="Times,serif" font-size="14.00">updated_at :datetime</text>
</g>
<!-- Edition -->
<g id="node3" class="node"><title>Edition</title>
<polyline fill="none" stroke="black" points="167.05,-827.2 412.95,-827.2 "/>
<path fill="none" stroke="black" d="M412.95,-827.2C418.95,-827.2 424.95,-833.2 424.95,-839.2"/>
<polyline fill="none" stroke="black" points="424.95,-839.2 424.95,-1032.8 "/>
<path fill="none" stroke="black" d="M424.95,-1032.8C424.95,-1038.8 418.95,-1044.8 412.95,-1044.8"/>
<polyline fill="none" stroke="black" points="412.95,-1044.8 167.05,-1044.8 "/>
<path fill="none" stroke="black" d="M167.05,-1044.8C161.05,-1044.8 155.05,-1038.8 155.05,-1032.8"/>
<polyline fill="none" stroke="black" points="155.05,-1032.8 155.05,-839.2 "/>
<path fill="none" stroke="black" d="M155.05,-839.2C155.05,-833.2 161.05,-827.2 167.05,-827.2"/>
<text text-anchor="middle" x="290" y="-1026.8" font-family="Times,serif" font-size="14.00">Edition</text>
<polyline fill="none" stroke="black" points="155.05,-1020 424.95,-1020 "/>
<text text-anchor="start" x="163.05" y="-1002" font-family="Times,serif" font-size="14.00">id :integer</text>
<text text-anchor="start" x="163.05" y="-985.2" font-family="Times,serif" font-size="14.00">name :string</text>
<text text-anchor="start" x="163.05" y="-968.4" font-family="Times,serif" font-size="14.00">code :string</text>
<text text-anchor="start" x="163.05" y="-951.6" font-family="Times,serif" font-size="14.00">revision :integer</text>
<text text-anchor="start" x="163.05" y="-934.8" font-family="Times,serif" font-size="14.00">snapshot_self_assessment_survey_id :integer</text>
<text text-anchor="start" x="163.05" y="-918" font-family="Times,serif" font-size="14.00">snapshot_interactive_survey_id :integer</text>
<text text-anchor="start" x="163.05" y="-901.2" font-family="Times,serif" font-size="14.00">snapshot_observations_survey_id :integer</text>
<text text-anchor="start" x="163.05" y="-884.4" font-family="Times,serif" font-size="14.00">develop_survey_id :integer</text>
<text text-anchor="start" x="163.05" y="-867.6" font-family="Times,serif" font-size="14.00">life_list_id :integer</text>
<text text-anchor="start" x="163.05" y="-850.8" font-family="Times,serif" font-size="14.00">created_at :datetime</text>
<text text-anchor="start" x="163.05" y="-834" font-family="Times,serif" font-size="14.00">updated_at :datetime</text>
</g>
<!-- Lifelist -->
<g id="node5" class="node"><title>Lifelist</title>
<polyline fill="none" stroke="black" points="242.484,-654.8 337.516,-654.8 "/>
<path fill="none" stroke="black" d="M337.516,-654.8C343.516,-654.8 349.516,-660.8 349.516,-666.8"/>
<polyline fill="none" stroke="black" points="349.516,-666.8 349.516,-709.2 "/>
<path fill="none" stroke="black" d="M349.516,-709.2C349.516,-715.2 343.516,-721.2 337.516,-721.2"/>
<polyline fill="none" stroke="black" points="337.516,-721.2 242.484,-721.2 "/>
<path fill="none" stroke="black" d="M242.484,-721.2C236.484,-721.2 230.484,-715.2 230.484,-709.2"/>
<polyline fill="none" stroke="black" points="230.484,-709.2 230.484,-666.8 "/>
<path fill="none" stroke="black" d="M230.484,-666.8C230.484,-660.8 236.484,-654.8 242.484,-654.8"/>
<text text-anchor="middle" x="290" y="-703.2" font-family="Times,serif" font-size="14.00">Lifelist</text>
<polyline fill="none" stroke="black" points="230.484,-696.4 349.516,-696.4 "/>
<text text-anchor="start" x="238.484" y="-678.4" font-family="Times,serif" font-size="14.00">id :integer</text>
<text text-anchor="start" x="238.484" y="-661.6" font-family="Times,serif" font-size="14.00">edition_id :integer</text>
</g>
<!-- Edition&#45;&gt;Lifelist -->
<g id="edge2" class="edge"><title>Edition&#45;&gt;Lifelist</title>
<path fill="none" stroke="#32d004" d="M290,-818.989C290,-786.793 290,-753.956 290,-729.341"/>
<ellipse fill="none" stroke="#32d004" cx="290" cy="-823.101" rx="4" ry="4"/>
<ellipse fill="#32d004" stroke="#32d004" cx="290" cy="-725.321" rx="4" ry="4"/>
</g>
<!-- MenteeProfile -->
<g id="node10" class="node"><title>MenteeProfile</title>
<polyline fill="none" stroke="black" points="504.533,-604.4 617.467,-604.4 "/>
<path fill="none" stroke="black" d="M617.467,-604.4C623.467,-604.4 629.467,-610.4 629.467,-616.4"/>
<polyline fill="none" stroke="black" points="629.467,-616.4 629.467,-759.6 "/>
<path fill="none" stroke="black" d="M629.467,-759.6C629.467,-765.6 623.467,-771.6 617.467,-771.6"/>
<polyline fill="none" stroke="black" points="617.467,-771.6 504.533,-771.6 "/>
<path fill="none" stroke="black" d="M504.533,-771.6C498.533,-771.6 492.533,-765.6 492.533,-759.6"/>
<polyline fill="none" stroke="black" points="492.533,-759.6 492.533,-616.4 "/>
<path fill="none" stroke="black" d="M492.533,-616.4C492.533,-610.4 498.533,-604.4 504.533,-604.4"/>
<text text-anchor="middle" x="561" y="-753.6" font-family="Times,serif" font-size="14.00">MenteeProfile</text>
<polyline fill="none" stroke="black" points="492.533,-746.8 629.467,-746.8 "/>
<text text-anchor="start" x="500.533" y="-728.8" font-family="Times,serif" font-size="14.00">id :integer</text>
<text text-anchor="start" x="500.533" y="-712" font-family="Times,serif" font-size="14.00">edition_id :integer</text>
<text text-anchor="start" x="500.533" y="-695.2" font-family="Times,serif" font-size="14.00">mentee_id :integer</text>
<text text-anchor="start" x="500.533" y="-678.4" font-family="Times,serif" font-size="14.00">created_at :datetime</text>
<text text-anchor="start" x="500.533" y="-661.6" font-family="Times,serif" font-size="14.00">updated_at :datetime</text>
<text text-anchor="start" x="500.533" y="-644.8" font-family="Times,serif" font-size="14.00">snapshot_state :string</text>
<text text-anchor="start" x="500.533" y="-628" font-family="Times,serif" font-size="14.00">develop_state :string</text>
<text text-anchor="start" x="500.533" y="-611.2" font-family="Times,serif" font-size="14.00">lifelist_state :string</text>
</g>
<!-- Edition&#45;&gt;MenteeProfile -->
<g id="edge6" class="edge"><title>Edition&#45;&gt;MenteeProfile</title>
<path fill="none" stroke="#75e8db" d="M428.165,-821.659C446.895,-805.329 465.631,-788.472 483,-772 483.565,-771.464 484.131,-770.925 484.698,-770.383"/>
<ellipse fill="none" stroke="#75e8db" cx="424.835" cy="-824.552" rx="4.00002" ry="4.00002"/>
<polygon fill="#75e8db" stroke="#75e8db" points="484.93,-770.158 495.24,-766.421 488.518,-766.675 492.106,-763.192 492.106,-763.192 492.106,-763.192 488.518,-766.675 488.971,-759.964 484.93,-770.158 484.93,-770.158"/>
</g>
<!-- Survey -->
<g id="node13" class="node"><title>Survey</title>
<polyline fill="none" stroke="black" points="11.4395,-629.6 200.561,-629.6 "/>
<path fill="none" stroke="black" d="M200.561,-629.6C206.561,-629.6 212.561,-635.6 212.561,-641.6"/>
<polyline fill="none" stroke="black" points="212.561,-641.6 212.561,-734.4 "/>
<path fill="none" stroke="black" d="M212.561,-734.4C212.561,-740.4 206.561,-746.4 200.561,-746.4"/>
<polyline fill="none" stroke="black" points="200.561,-746.4 11.4395,-746.4 "/>
<path fill="none" stroke="black" d="M11.4395,-746.4C5.43945,-746.4 -0.560547,-740.4 -0.560547,-734.4"/>
<polyline fill="none" stroke="black" points="-0.560547,-734.4 -0.560547,-641.6 "/>
<path fill="none" stroke="black" d="M-0.560547,-641.6C-0.560547,-635.6 5.43945,-629.6 11.4395,-629.6"/>
<text text-anchor="middle" x="106" y="-728.4" font-family="Times,serif" font-size="14.00">Survey</text>
<polyline fill="none" stroke="black" points="-0.560547,-721.6 212.561,-721.6 "/>
<text text-anchor="start" x="7.43945" y="-703.6" font-family="Times,serif" font-size="14.00">id :integer</text>
<text text-anchor="start" x="7.43945" y="-686.8" font-family="Times,serif" font-size="14.00">edition_id :integer</text>
<text text-anchor="start" x="7.43945" y="-670" font-family="Times,serif" font-size="14.00">default_question_group_id :integer</text>
<text text-anchor="start" x="7.43945" y="-653.2" font-family="Times,serif" font-size="14.00">created_at :datetime</text>
<text text-anchor="start" x="7.43945" y="-636.4" font-family="Times,serif" font-size="14.00">updated_at :datetime</text>
</g>
<!-- Edition&#45;&gt;Survey -->
<g id="edge4" class="edge"><title>Edition&#45;&gt;Survey</title>
<path fill="none" stroke="#924dd6" d="M204.417,-820.579C187.519,-797.987 170.331,-775.007 155.147,-754.708"/>
<ellipse fill="none" stroke="#924dd6" cx="206.899" cy="-823.898" rx="4.00002" ry="4.00002"/>
<polygon fill="#924dd6" stroke="#924dd6" points="154.982,-754.486 152.595,-743.783 151.987,-750.482 148.992,-746.478 148.992,-746.478 148.992,-746.478 151.987,-750.482 145.388,-749.174 154.982,-754.486 154.982,-754.486"/>
</g>
<!-- JournalEntry -->
<g id="node4" class="node"><title>JournalEntry</title>
<polyline fill="none" stroke="black" points="659.495,-621.2 768.505,-621.2 "/>
<path fill="none" stroke="black" d="M768.505,-621.2C774.505,-621.2 780.505,-627.2 780.505,-633.2"/>
<polyline fill="none" stroke="black" points="780.505,-633.2 780.505,-742.8 "/>
<path fill="none" stroke="black" d="M780.505,-742.8C780.505,-748.8 774.505,-754.8 768.505,-754.8"/>
<polyline fill="none" stroke="black" points="768.505,-754.8 659.495,-754.8 "/>
<path fill="none" stroke="black" d="M659.495,-754.8C653.495,-754.8 647.495,-748.8 647.495,-742.8"/>
<polyline fill="none" stroke="black" points="647.495,-742.8 647.495,-633.2 "/>
<path fill="none" stroke="black" d="M647.495,-633.2C647.495,-627.2 653.495,-621.2 659.495,-621.2"/>
<text text-anchor="middle" x="714" y="-736.8" font-family="Times,serif" font-size="14.00">JournalEntry</text>
<polyline fill="none" stroke="black" points="647.495,-730 780.505,-730 "/>
<text text-anchor="start" x="655.495" y="-712" font-family="Times,serif" font-size="14.00">id :integer</text>
<text text-anchor="start" x="655.495" y="-695.2" font-family="Times,serif" font-size="14.00">body :text</text>
<text text-anchor="start" x="655.495" y="-678.4" font-family="Times,serif" font-size="14.00">mentee_id :integer</text>
<text text-anchor="start" x="655.495" y="-661.6" font-family="Times,serif" font-size="14.00">logged_at :datetime</text>
<text text-anchor="start" x="655.495" y="-644.8" font-family="Times,serif" font-size="14.00">created_at :datetime</text>
<text text-anchor="start" x="655.495" y="-628" font-family="Times,serif" font-size="14.00">updated_at :datetime</text>
</g>
<!-- LifelistItem -->
<g id="node7" class="node"><title>LifelistItem</title>
<polyline fill="none" stroke="black" points="331.443,-440 478.557,-440 "/>
<path fill="none" stroke="black" d="M478.557,-440C484.557,-440 490.557,-446 490.557,-452"/>
<polyline fill="none" stroke="black" points="490.557,-452 490.557,-528 "/>
<path fill="none" stroke="black" d="M490.557,-528C490.557,-534 484.557,-540 478.557,-540"/>
<polyline fill="none" stroke="black" points="478.557,-540 331.443,-540 "/>
<path fill="none" stroke="black" d="M331.443,-540C325.443,-540 319.443,-534 319.443,-528"/>
<polyline fill="none" stroke="black" points="319.443,-528 319.443,-452 "/>
<path fill="none" stroke="black" d="M319.443,-452C319.443,-446 325.443,-440 331.443,-440"/>
<text text-anchor="middle" x="405" y="-522" font-family="Times,serif" font-size="14.00">LifelistItem</text>
<polyline fill="none" stroke="black" points="319.443,-515.2 490.557,-515.2 "/>
<text text-anchor="start" x="327.443" y="-497.2" font-family="Times,serif" font-size="14.00">id :integer</text>
<text text-anchor="start" x="327.443" y="-480.4" font-family="Times,serif" font-size="14.00">title :string</text>
<text text-anchor="start" x="327.443" y="-463.6" font-family="Times,serif" font-size="14.00">lifelist_id :integer</text>
<text text-anchor="start" x="327.443" y="-446.8" font-family="Times,serif" font-size="14.00">lifelist_category_id :integer</text>
</g>
<!-- Lifelist&#45;&gt;LifelistItem -->
<g id="edge8" class="edge"><title>Lifelist&#45;&gt;LifelistItem</title>
<path fill="none" stroke="#3b4dd4" d="M313.204,-647.452C329.77,-619.218 352.321,-580.784 370.925,-549.076"/>
<ellipse fill="none" stroke="#3b4dd4" cx="311.014" cy="-651.185" rx="4.00002" ry="4.00002"/>
<polygon fill="#3b4dd4" stroke="#3b4dd4" points="370.999,-548.95 379.941,-542.602 373.529,-544.637 376.06,-540.325 376.06,-540.325 376.06,-540.325 373.529,-544.637 372.178,-538.047 370.999,-548.95 370.999,-548.95"/>
</g>
<!-- LifelistCategory -->
<g id="node6" class="node"><title>LifelistCategory</title>
<polyline fill="none" stroke="black" points="379.124,-654.8 462.876,-654.8 "/>
<path fill="none" stroke="black" d="M462.876,-654.8C468.876,-654.8 474.876,-660.8 474.876,-666.8"/>
<polyline fill="none" stroke="black" points="474.876,-666.8 474.876,-709.2 "/>
<path fill="none" stroke="black" d="M474.876,-709.2C474.876,-715.2 468.876,-721.2 462.876,-721.2"/>
<polyline fill="none" stroke="black" points="462.876,-721.2 379.124,-721.2 "/>
<path fill="none" stroke="black" d="M379.124,-721.2C373.124,-721.2 367.124,-715.2 367.124,-709.2"/>
<polyline fill="none" stroke="black" points="367.124,-709.2 367.124,-666.8 "/>
<path fill="none" stroke="black" d="M367.124,-666.8C367.124,-660.8 373.124,-654.8 379.124,-654.8"/>
<text text-anchor="middle" x="421" y="-703.2" font-family="Times,serif" font-size="14.00">LifelistCategory</text>
<polyline fill="none" stroke="black" points="367.124,-696.4 474.876,-696.4 "/>
<text text-anchor="start" x="375.124" y="-678.4" font-family="Times,serif" font-size="14.00">id :integer</text>
<text text-anchor="start" x="375.124" y="-661.6" font-family="Times,serif" font-size="14.00">title :string</text>
</g>
<!-- LifelistCategory&#45;&gt;LifelistItem -->
<g id="edge10" class="edge"><title>LifelistCategory&#45;&gt;LifelistItem</title>
<path fill="none" stroke="#b2690a" d="M417.675,-646.274C415.417,-618.602 412.391,-581.545 409.863,-550.573"/>
<ellipse fill="none" stroke="#b2690a" cx="418.032" cy="-650.648" rx="4" ry="4"/>
<polygon fill="#b2690a" stroke="#b2690a" points="409.84,-550.291 413.512,-539.958 409.433,-545.308 409.027,-540.325 409.027,-540.325 409.027,-540.325 409.433,-545.308 404.541,-540.691 409.84,-550.291 409.84,-550.291"/>
</g>
<!-- LifelistPick -->
<g id="node8" class="node"><title>LifelistPick</title>
<polyline fill="none" stroke="black" points="558.939,-448.4 699.061,-448.4 "/>
<path fill="none" stroke="black" d="M699.061,-448.4C705.061,-448.4 711.061,-454.4 711.061,-460.4"/>
<polyline fill="none" stroke="black" points="711.061,-460.4 711.061,-519.6 "/>
<path fill="none" stroke="black" d="M711.061,-519.6C711.061,-525.6 705.061,-531.6 699.061,-531.6"/>
<polyline fill="none" stroke="black" points="699.061,-531.6 558.939,-531.6 "/>
<path fill="none" stroke="black" d="M558.939,-531.6C552.939,-531.6 546.939,-525.6 546.939,-519.6"/>
<polyline fill="none" stroke="black" points="546.939,-519.6 546.939,-460.4 "/>
<path fill="none" stroke="black" d="M546.939,-460.4C546.939,-454.4 552.939,-448.4 558.939,-448.4"/>
<text text-anchor="middle" x="629" y="-513.6" font-family="Times,serif" font-size="14.00">LifelistPick</text>
<polyline fill="none" stroke="black" points="546.939,-506.8 711.061,-506.8 "/>
<text text-anchor="start" x="554.939" y="-488.8" font-family="Times,serif" font-size="14.00">id :integer</text>
<text text-anchor="start" x="554.939" y="-472" font-family="Times,serif" font-size="14.00">mentee_profile_id :integer</text>
<text text-anchor="start" x="554.939" y="-455.2" font-family="Times,serif" font-size="14.00">lifelist_item_id :integer</text>
</g>
<!-- Mentee -->
<g id="node9" class="node"><title>Mentee</title>
<polyline fill="none" stroke="black" points="598.495,-827.2 707.505,-827.2 "/>
<path fill="none" stroke="black" d="M707.505,-827.2C713.505,-827.2 719.505,-833.2 719.505,-839.2"/>
<polyline fill="none" stroke="black" points="719.505,-839.2 719.505,-1032.8 "/>
<path fill="none" stroke="black" d="M719.505,-1032.8C719.505,-1038.8 713.505,-1044.8 707.505,-1044.8"/>
<polyline fill="none" stroke="black" points="707.505,-1044.8 598.495,-1044.8 "/>
<path fill="none" stroke="black" d="M598.495,-1044.8C592.495,-1044.8 586.495,-1038.8 586.495,-1032.8"/>
<polyline fill="none" stroke="black" points="586.495,-1032.8 586.495,-839.2 "/>
<path fill="none" stroke="black" d="M586.495,-839.2C586.495,-833.2 592.495,-827.2 598.495,-827.2"/>
<text text-anchor="middle" x="653" y="-1026.8" font-family="Times,serif" font-size="14.00">Mentee</text>
<polyline fill="none" stroke="black" points="586.495,-1020 719.505,-1020 "/>
<text text-anchor="start" x="594.495" y="-1002" font-family="Times,serif" font-size="14.00">id :integer</text>
<text text-anchor="start" x="594.495" y="-985.2" font-family="Times,serif" font-size="14.00">name :string</text>
<text text-anchor="start" x="594.495" y="-968.4" font-family="Times,serif" font-size="14.00">birth_date :date</text>
<text text-anchor="start" x="594.495" y="-951.6" font-family="Times,serif" font-size="14.00">major :string</text>
<text text-anchor="start" x="594.495" y="-934.8" font-family="Times,serif" font-size="14.00">phone :string</text>
<text text-anchor="start" x="594.495" y="-918" font-family="Times,serif" font-size="14.00">email :string</text>
<text text-anchor="start" x="594.495" y="-901.2" font-family="Times,serif" font-size="14.00">created_at :datetime</text>
<text text-anchor="start" x="594.495" y="-884.4" font-family="Times,serif" font-size="14.00">updated_at :datetime</text>
<text text-anchor="start" x="594.495" y="-867.6" font-family="Times,serif" font-size="14.00">mentor_id :integer</text>
<text text-anchor="start" x="594.495" y="-850.8" font-family="Times,serif" font-size="14.00">notes :text</text>
<text text-anchor="start" x="594.495" y="-834" font-family="Times,serif" font-size="14.00">avatar :string</text>
</g>
<!-- Mentee&#45;&gt;JournalEntry -->
<g id="edge12" class="edge"><title>Mentee&#45;&gt;JournalEntry</title>
<path fill="none" stroke="#5c1bf3" d="M681.686,-819.317C686.257,-800.881 690.883,-782.224 695.151,-765.012"/>
<ellipse fill="none" stroke="#5c1bf3" cx="680.718" cy="-823.218" rx="4.00001" ry="4.00001"/>
<polygon fill="#5c1bf3" stroke="#5c1bf3" points="695.213,-764.763 701.988,-756.141 696.416,-759.91 697.62,-755.057 697.62,-755.057 697.62,-755.057 696.416,-759.91 693.252,-753.974 695.213,-764.763 695.213,-764.763"/>
</g>
<!-- Mentee&#45;&gt;MenteeProfile -->
<g id="edge14" class="edge"><title>Mentee&#45;&gt;MenteeProfile</title>
<path fill="none" stroke="#090f94" d="M647.711,-818.884C645.488,-808.942 642.636,-799.185 639,-790 637.551,-786.339 635.927,-782.699 634.159,-779.095"/>
<ellipse fill="none" stroke="#090f94" cx="648.554" cy="-822.971" rx="4.00001" ry="4.00001"/>
<polygon fill="#090f94" stroke="#090f94" points="634.146,-779.07 633.47,-768.125 631.817,-774.646 629.488,-770.221 629.488,-770.221 629.488,-770.221 631.817,-774.646 625.506,-772.317 634.146,-779.07 634.146,-779.07"/>
</g>
<!-- Mentee&#45;&gt;MenteeProfile -->
<g id="edge16" class="edge"><title>Mentee&#45;&gt;MenteeProfile</title>
<path fill="none" stroke="#aabbd8" d="M581.725,-855.262C571.997,-840.443 563.49,-824.425 558.027,-808 555.047,-799.038 553.225,-789.482 552.244,-779.832"/>
<ellipse fill="none" stroke="#aabbd8" cx="584.032" cy="-858.671" rx="4.00002" ry="4.00002"/>
<ellipse fill="#aabbd8" stroke="#aabbd8" cx="551.921" cy="-775.702" rx="4" ry="4"/>
<text text-anchor="middle" x="597.486" y="-793.4" font-family="Times,serif" font-size="14.00">active_profile</text>
</g>
<!-- MenteeProfile&#45;&gt;Answer -->
<g id="edge22" class="edge"><title>MenteeProfile&#45;&gt;Answer</title>
<path fill="none" stroke="#a27b73" d="M541.433,-596.349C518.096,-488.234 479.198,-308.024 454.884,-195.384"/>
<ellipse fill="none" stroke="#a27b73" cx="542.291" cy="-600.324" rx="4.00001" ry="4.00001"/>
<polygon fill="#a27b73" stroke="#a27b73" points="454.833,-195.148 457.122,-184.424 453.778,-190.261 452.723,-185.373 452.723,-185.373 452.723,-185.373 453.778,-190.261 448.324,-186.323 454.833,-195.148 454.833,-195.148"/>
</g>
<!-- MenteeProfile&#45;&gt;LifelistItem -->
<g id="edge20" class="edge"><title>MenteeProfile&#45;&gt;LifelistItem</title>
<path fill="none" stroke="#9646cd" d="M488.725,-596.193C475.728,-579.863 462.518,-563.266 450.549,-548.228"/>
<polygon fill="#9646cd" stroke="#9646cd" points="488.841,-596.338 491.547,-606.965 491.954,-600.25 495.068,-604.162 495.068,-604.162 495.068,-604.162 491.954,-600.25 498.589,-601.36 488.841,-596.338 488.841,-596.338"/>
<polygon fill="#9646cd" stroke="#9646cd" points="450.264,-547.87 447.557,-537.243 447.15,-543.958 444.036,-540.046 444.036,-540.046 444.036,-540.046 447.15,-543.958 440.515,-542.848 450.264,-547.87 450.264,-547.87"/>
</g>
<!-- MenteeProfile&#45;&gt;LifelistPick -->
<g id="edge18" class="edge"><title>MenteeProfile&#45;&gt;LifelistPick</title>
<path fill="none" stroke="#7d6576" d="M592.402,-596.488C598.989,-577.501 605.707,-558.137 611.559,-541.27"/>
<ellipse fill="none" stroke="#7d6576" cx="591.051" cy="-600.383" rx="4.00001" ry="4.00001"/>
<polygon fill="#7d6576" stroke="#7d6576" points="611.62,-541.096 619.149,-533.124 613.259,-536.372 614.897,-531.649 614.897,-531.649 614.897,-531.649 613.259,-536.372 610.646,-530.173 611.62,-541.096 611.62,-541.096"/>
</g>
<!-- Question -->
<g id="node11" class="node"><title>Question</title>
<polyline fill="none" stroke="black" points="129.374,-224.8 272.626,-224.8 "/>
<path fill="none" stroke="black" d="M272.626,-224.8C278.626,-224.8 284.626,-230.8 284.626,-236.8"/>
<polyline fill="none" stroke="black" points="284.626,-236.8 284.626,-363.2 "/>
<path fill="none" stroke="black" d="M284.626,-363.2C284.626,-369.2 278.626,-375.2 272.626,-375.2"/>
<polyline fill="none" stroke="black" points="272.626,-375.2 129.374,-375.2 "/>
<path fill="none" stroke="black" d="M129.374,-375.2C123.374,-375.2 117.374,-369.2 117.374,-363.2"/>
<polyline fill="none" stroke="black" points="117.374,-363.2 117.374,-236.8 "/>
<path fill="none" stroke="black" d="M117.374,-236.8C117.374,-230.8 123.374,-224.8 129.374,-224.8"/>
<text text-anchor="middle" x="201" y="-357.2" font-family="Times,serif" font-size="14.00">Question</text>
<polyline fill="none" stroke="black" points="117.374,-350.4 284.626,-350.4 "/>
<text text-anchor="start" x="125.374" y="-332.4" font-family="Times,serif" font-size="14.00">id :integer</text>
<text text-anchor="start" x="125.374" y="-315.6" font-family="Times,serif" font-size="14.00">body :text</text>
<text text-anchor="start" x="125.374" y="-298.8" font-family="Times,serif" font-size="14.00">question_type :string</text>
<text text-anchor="start" x="125.374" y="-282" font-family="Times,serif" font-size="14.00">question_group_id :integer</text>
<text text-anchor="start" x="125.374" y="-265.2" font-family="Times,serif" font-size="14.00">position :integer</text>
<text text-anchor="start" x="125.374" y="-248.4" font-family="Times,serif" font-size="14.00">created_at :datetime</text>
<text text-anchor="start" x="125.374" y="-231.6" font-family="Times,serif" font-size="14.00">updated_at :datetime</text>
</g>
<!-- Question&#45;&gt;Answer -->
<g id="edge24" class="edge"><title>Question&#45;&gt;Answer</title>
<path fill="none" stroke="#566e65" d="M290.857,-219.601C308.004,-204.449 325.955,-188.587 343.103,-173.435"/>
<ellipse fill="none" stroke="#566e65" cx="287.755" cy="-222.342" rx="4.00002" ry="4.00002"/>
<polygon fill="#566e65" stroke="#566e65" points="343.426,-173.149 353.9,-169.9 347.173,-169.839 350.92,-166.528 350.92,-166.528 350.92,-166.528 347.173,-169.839 347.94,-163.156 343.426,-173.149 343.426,-173.149"/>
</g>
<!-- QuestionGroup -->
<g id="node12" class="node"><title>QuestionGroup</title>
<polyline fill="none" stroke="black" points="51.4946,-414.8 160.505,-414.8 "/>
<path fill="none" stroke="black" d="M160.505,-414.8C166.505,-414.8 172.505,-420.8 172.505,-426.8"/>
<polyline fill="none" stroke="black" points="172.505,-426.8 172.505,-553.2 "/>
<path fill="none" stroke="black" d="M172.505,-553.2C172.505,-559.2 166.505,-565.2 160.505,-565.2"/>
<polyline fill="none" stroke="black" points="160.505,-565.2 51.4946,-565.2 "/>
<path fill="none" stroke="black" d="M51.4946,-565.2C45.4946,-565.2 39.4946,-559.2 39.4946,-553.2"/>
<polyline fill="none" stroke="black" points="39.4946,-553.2 39.4946,-426.8 "/>
<path fill="none" stroke="black" d="M39.4946,-426.8C39.4946,-420.8 45.4946,-414.8 51.4946,-414.8"/>
<text text-anchor="middle" x="106" y="-547.2" font-family="Times,serif" font-size="14.00">QuestionGroup</text>
<polyline fill="none" stroke="black" points="39.4946,-540.4 172.505,-540.4 "/>
<text text-anchor="start" x="47.4946" y="-522.4" font-family="Times,serif" font-size="14.00">id :integer</text>
<text text-anchor="start" x="47.4946" y="-505.6" font-family="Times,serif" font-size="14.00">title :string</text>
<text text-anchor="start" x="47.4946" y="-488.8" font-family="Times,serif" font-size="14.00">virtual :boolean</text>
<text text-anchor="start" x="47.4946" y="-472" font-family="Times,serif" font-size="14.00">survey_id :integer</text>
<text text-anchor="start" x="47.4946" y="-455.2" font-family="Times,serif" font-size="14.00">position :integer</text>
<text text-anchor="start" x="47.4946" y="-438.4" font-family="Times,serif" font-size="14.00">created_at :datetime</text>
<text text-anchor="start" x="47.4946" y="-421.6" font-family="Times,serif" font-size="14.00">updated_at :datetime</text>
</g>
<!-- QuestionGroup&#45;&gt;Question -->
<g id="edge26" class="edge"><title>QuestionGroup&#45;&gt;Question</title>
<path fill="none" stroke="#b2c13d" d="M147.247,-407.375C151.11,-399.73 155.029,-391.974 158.9,-384.314"/>
<ellipse fill="none" stroke="#b2c13d" cx="145.351" cy="-411.127" rx="4.00002" ry="4.00002"/>
<polygon fill="#b2c13d" stroke="#b2c13d" points="158.905,-384.304 167.431,-377.408 161.16,-379.841 163.415,-375.379 163.415,-375.379 163.415,-375.379 161.16,-379.841 159.399,-373.349 158.905,-384.304 158.905,-384.304"/>
</g>
<!-- Survey&#45;&gt;Question -->
<g id="edge30" class="edge"><title>Survey&#45;&gt;Question</title>
<path fill="none" stroke="#c12da6" d="M154.898,-620.75C165.239,-603.687 174.869,-584.81 181,-566 200.008,-507.688 204.668,-438.48 204.756,-385.416"/>
<polygon fill="#c12da6" stroke="#c12da6" points="154.734,-621.013 145.622,-627.115 152.087,-625.255 149.44,-629.497 149.44,-629.497 149.44,-629.497 152.087,-625.255 153.258,-631.879 154.734,-621.013 154.734,-621.013"/>
<polygon fill="#c12da6" stroke="#c12da6" points="204.756,-385.365 209.219,-375.348 204.737,-380.365 204.719,-375.365 204.719,-375.365 204.719,-375.365 204.737,-380.365 200.219,-375.382 204.756,-385.365 204.756,-385.365"/>
</g>
<!-- Survey&#45;&gt;QuestionGroup -->
<g id="edge28" class="edge"><title>Survey&#45;&gt;QuestionGroup</title>
<path fill="none" stroke="#13008b" d="M106,-621.371C106,-606.601 106,-590.725 106,-575.311"/>
<ellipse fill="none" stroke="#13008b" cx="106" cy="-625.518" rx="4" ry="4"/>
<polygon fill="#13008b" stroke="#13008b" points="106,-575.264 110.5,-565.264 106,-570.264 106,-565.264 106,-565.264 106,-565.264 106,-570.264 101.5,-565.264 106,-575.264 106,-575.264"/>
</g>
<!-- User -->
<g id="node14" class="node"><title>User</title>
<polyline fill="none" stroke="black" points="562.722,-1084.4 743.278,-1084.4 "/>
<path fill="none" stroke="black" d="M743.278,-1084.4C749.278,-1084.4 755.278,-1090.4 755.278,-1096.4"/>
<polyline fill="none" stroke="black" points="755.278,-1096.4 755.278,-1323.6 "/>
<path fill="none" stroke="black" d="M755.278,-1323.6C755.278,-1329.6 749.278,-1335.6 743.278,-1335.6"/>
<polyline fill="none" stroke="black" points="743.278,-1335.6 562.722,-1335.6 "/>
<path fill="none" stroke="black" d="M562.722,-1335.6C556.722,-1335.6 550.722,-1329.6 550.722,-1323.6"/>
<polyline fill="none" stroke="black" points="550.722,-1323.6 550.722,-1096.4 "/>
<path fill="none" stroke="black" d="M550.722,-1096.4C550.722,-1090.4 556.722,-1084.4 562.722,-1084.4"/>
<text text-anchor="middle" x="653" y="-1317.6" font-family="Times,serif" font-size="14.00">User</text>
<polyline fill="none" stroke="black" points="550.722,-1310.8 755.278,-1310.8 "/>
<text text-anchor="start" x="558.722" y="-1292.8" font-family="Times,serif" font-size="14.00">id :integer</text>
<text text-anchor="start" x="558.722" y="-1276" font-family="Times,serif" font-size="14.00">email :string</text>
<text text-anchor="start" x="558.722" y="-1259.2" font-family="Times,serif" font-size="14.00">encrypted_password :string</text>
<text text-anchor="start" x="558.722" y="-1242.4" font-family="Times,serif" font-size="14.00">reset_password_token :string</text>
<text text-anchor="start" x="558.722" y="-1225.6" font-family="Times,serif" font-size="14.00">reset_password_sent_at :datetime</text>
<text text-anchor="start" x="558.722" y="-1208.8" font-family="Times,serif" font-size="14.00">remember_created_at :datetime</text>
<text text-anchor="start" x="558.722" y="-1192" font-family="Times,serif" font-size="14.00">sign_in_count :integer</text>
<text text-anchor="start" x="558.722" y="-1175.2" font-family="Times,serif" font-size="14.00">current_sign_in_at :datetime</text>
<text text-anchor="start" x="558.722" y="-1158.4" font-family="Times,serif" font-size="14.00">last_sign_in_at :datetime</text>
<text text-anchor="start" x="558.722" y="-1141.6" font-family="Times,serif" font-size="14.00">current_sign_in_ip :string</text>
<text text-anchor="start" x="558.722" y="-1124.8" font-family="Times,serif" font-size="14.00">last_sign_in_ip :string</text>
<text text-anchor="start" x="558.722" y="-1108" font-family="Times,serif" font-size="14.00">created_at :datetime</text>
<text text-anchor="start" x="558.722" y="-1091.2" font-family="Times,serif" font-size="14.00">updated_at :datetime</text>
</g>
<!-- User&#45;&gt;Mentee -->
<g id="edge32" class="edge"><title>User&#45;&gt;Mentee</title>
<path fill="none" stroke="#d4044b" d="M653,-1076.13C653,-1069.08 653,-1062.03 653,-1055.03"/>
<ellipse fill="none" stroke="#d4044b" cx="653" cy="-1080.15" rx="4" ry="4"/>
<polygon fill="#d4044b" stroke="#d4044b" points="653,-1054.84 657.5,-1044.84 653,-1049.84 653,-1044.84 653,-1044.84 653,-1044.84 653,-1049.84 648.5,-1044.84 653,-1054.84 653,-1054.84"/>
</g>
</g>
</svg>
