<?xml version="1.0" encoding="UTF-8" standalone="no"?>
<!DOCTYPE svg PUBLIC "-//W3C//DTD SVG 1.1//EN"
 "http://www.w3.org/Graphics/SVG/1.1/DTD/svg11.dtd">
<!-- Generated by graphviz version 2.28.0 (20130122.0304)
 -->
<!-- Title: models_diagram Pages: 1 -->
<svg width="901pt" height="554pt"
 viewBox="0.00 0.00 901.00 554.00" xmlns="http://www.w3.org/2000/svg" xmlns:xlink="http://www.w3.org/1999/xlink">
<g id="graph1" class="graph" transform="scale(1 1) rotate(0) translate(4 550)">
<title>models_diagram</title>
<polygon fill="white" stroke="white" points="-4,5 -4,-550 898,-550 898,5 -4,5"/>
<!-- _diagram_info -->
<g id="node1" class="node"><title>_diagram_info</title>
<text text-anchor="start" x="7.31226" y="-529" font-family="Times,serif" font-size="13.00">Models diagram</text>
<text text-anchor="start" x="7.31226" y="-513.4" font-family="Times,serif" font-size="13.00">Date: Jun 16 2014 &#45; 20:18</text>
<text text-anchor="start" x="7.31226" y="-497.8" font-family="Times,serif" font-size="13.00">Migration version: 20140616212824</text>
<text text-anchor="start" x="7.31226" y="-482.2" font-family="Times,serif" font-size="13.00">Generated by RailRoady 1.1.0</text>
<text text-anchor="start" x="7.31226" y="-466.6" font-family="Times,serif" font-size="13.00">http://railroady.prestonlee.com</text>
</g>
<!-- Answer -->
<g id="node2" class="node"><title>Answer</title>
<ellipse fill="none" stroke="black" cx="437" cy="-18" rx="41.1096" ry="18"/>
<text text-anchor="middle" x="437" y="-12.4" font-family="Times,serif" font-size="14.00">Answer</text>
</g>
<!-- DevelopCategory -->
<g id="node3" class="node"><title>DevelopCategory</title>
<ellipse fill="none" stroke="black" cx="460" cy="-240" rx="79.2238" ry="18"/>
<text text-anchor="middle" x="460" y="-234.4" font-family="Times,serif" font-size="14.00">DevelopCategory</text>
</g>
<!-- DevelopGoal -->
<g id="node5" class="node"><title>DevelopGoal</title>
<ellipse fill="none" stroke="black" cx="402" cy="-166" rx="62.2843" ry="18"/>
<text text-anchor="middle" x="402" y="-160.4" font-family="Times,serif" font-size="14.00">DevelopGoal</text>
</g>
<!-- DevelopCategory&#45;&gt;DevelopGoal -->
<g id="edge2" class="edge"><title>DevelopCategory&#45;&gt;DevelopGoal</title>
<path fill="none" stroke="#db0f24" d="M441.024,-215.444C434.941,-207.893 428.188,-199.509 422.032,-191.867"/>
<ellipse fill="none" stroke="#db0f24" cx="443.745" cy="-218.822" rx="4.00002" ry="4.00002"/>
<polygon fill="#db0f24" stroke="#db0f24" points="421.92,-191.728 419.151,-181.118 418.783,-187.834 415.647,-183.941 415.647,-183.941 415.647,-183.941 418.783,-187.834 412.142,-186.764 421.92,-191.728 421.92,-191.728"/>
</g>
<!-- DevelopCurriculum -->
<g id="node4" class="node"><title>DevelopCurriculum</title>
<ellipse fill="none" stroke="black" cx="313" cy="-503" rx="87.9107" ry="18"/>
<text text-anchor="middle" x="313" y="-497.4" font-family="Times,serif" font-size="14.00">DevelopCurriculum</text>
</g>
<!-- DevelopGoalsCurriculum -->
<g id="node7" class="node"><title>DevelopGoalsCurriculum</title>
<ellipse fill="none" stroke="black" cx="406" cy="-404" rx="110.205" ry="18"/>
<text text-anchor="middle" x="406" y="-398.4" font-family="Times,serif" font-size="14.00">DevelopGoalsCurriculum</text>
</g>
<!-- DevelopCurriculum&#45;&gt;DevelopGoalsCurriculum -->
<g id="edge10" class="edge"><title>DevelopCurriculum&#45;&gt;DevelopGoalsCurriculum</title>
<path fill="none" stroke="black" d="M329.199,-485.104C346.165,-467.409 372.662,-439.772 389.674,-422.028"/>
</g>
<!-- DevelopItemsCurriculum -->
<g id="node10" class="node"><title>DevelopItemsCurriculum</title>
<ellipse fill="none" stroke="black" cx="167" cy="-404" rx="109.591" ry="18"/>
<text text-anchor="middle" x="167" y="-398.4" font-family="Times,serif" font-size="14.00">DevelopItemsCurriculum</text>
</g>
<!-- DevelopCurriculum&#45;&gt;DevelopItemsCurriculum -->
<g id="edge16" class="edge"><title>DevelopCurriculum&#45;&gt;DevelopItemsCurriculum</title>
<path fill="none" stroke="black" d="M288.233,-485.545C261.385,-467.708 218.783,-439.404 191.888,-421.535"/>
</g>
<!-- DevelopItem -->
<g id="node8" class="node"><title>DevelopItem</title>
<ellipse fill="none" stroke="black" cx="402" cy="-92" rx="61.172" ry="18"/>
<text text-anchor="middle" x="402" y="-86.4" font-family="Times,serif" font-size="14.00">DevelopItem</text>
</g>
<!-- DevelopGoal&#45;&gt;DevelopItem -->
<g id="edge4" class="edge"><title>DevelopGoal&#45;&gt;DevelopItem</title>
<path fill="none" stroke="#c5dc15" d="M402,-139.792C402,-133.58 402,-126.896 402,-120.579"/>
<ellipse fill="none" stroke="#c5dc15" cx="402" cy="-143.937" rx="4" ry="4"/>
<polygon fill="#c5dc15" stroke="#c5dc15" points="402,-120.441 406.5,-110.441 402,-115.441 402,-110.441 402,-110.441 402,-110.441 402,-115.441 397.5,-110.441 402,-120.441 402,-120.441"/>
</g>
<!-- DevelopGoalPick -->
<g id="node6" class="node"><title>DevelopGoalPick</title>
<ellipse fill="none" stroke="black" cx="639" cy="-166" rx="79.5367" ry="18"/>
<text text-anchor="middle" x="639" y="-160.4" font-family="Times,serif" font-size="14.00">DevelopGoalPick</text>
</g>
<!-- DevelopGoalsCurriculum&#45;&gt;DevelopGoal -->
<g id="edge6" class="edge"><title>DevelopGoalsCurriculum&#45;&gt;DevelopGoal</title>
<path fill="none" stroke="#a77731" d="M394.661,-378.484C379.992,-343.482 357.898,-277.303 372,-222 374.593,-211.831 379.493,-201.515 384.592,-192.607"/>
<ellipse fill="none" stroke="#a77731" cx="396.261" cy="-382.198" rx="4.00002" ry="4.00002"/>
<polygon fill="#a77731" stroke="#a77731" points="384.693,-192.441 393.735,-186.237 387.292,-188.17 389.891,-183.898 389.891,-183.898 389.891,-183.898 387.292,-188.17 386.046,-181.559 384.693,-192.441 384.693,-192.441"/>
</g>
<!-- Edition -->
<g id="node11" class="node"><title>Edition</title>
<ellipse fill="none" stroke="black" cx="286" cy="-330" rx="39.2049" ry="18"/>
<text text-anchor="middle" x="286" y="-324.4" font-family="Times,serif" font-size="14.00">Edition</text>
</g>
<!-- DevelopGoalsCurriculum&#45;&gt;Edition -->
<g id="edge8" class="edge"><title>DevelopGoalsCurriculum&#45;&gt;Edition</title>
<path fill="none" stroke="#227c11" d="M365.501,-382.91C356.649,-378.225 347.414,-373.106 339,-368 330.687,-362.955 321.928,-357.086 313.979,-351.529"/>
<ellipse fill="none" stroke="#227c11" cx="369.276" cy="-384.881" rx="4.00002" ry="4.00002"/>
<polygon fill="#227c11" stroke="#227c11" points="313.886,-351.462 308.335,-342.005 309.808,-348.569 305.73,-345.675 305.73,-345.675 305.73,-345.675 309.808,-348.569 303.126,-349.345 313.886,-351.462 313.886,-351.462"/>
</g>
<!-- DevelopItemPick -->
<g id="node9" class="node"><title>DevelopItemPick</title>
<ellipse fill="none" stroke="black" cx="815" cy="-166" rx="78.4241" ry="18"/>
<text text-anchor="middle" x="815" y="-160.4" font-family="Times,serif" font-size="14.00">DevelopItemPick</text>
</g>
<!-- DevelopItemsCurriculum&#45;&gt;DevelopItem -->
<g id="edge12" class="edge"><title>DevelopItemsCurriculum&#45;&gt;DevelopItem</title>
<path fill="none" stroke="#050651" d="M194.216,-380.566C206.798,-367.612 219,-350.121 219,-331 219,-331 219,-331 219,-165 219,-138.058 288.557,-116.969 341.905,-104.758"/>
<ellipse fill="none" stroke="#050651" cx="191.314" cy="-383.395" rx="4.00002" ry="4.00002"/>
<polygon fill="#050651" stroke="#050651" points="342.234,-104.684 352.974,-106.9 347.114,-103.596 351.994,-102.508 351.994,-102.508 351.994,-102.508 347.114,-103.596 351.015,-98.1158 342.234,-104.684 342.234,-104.684"/>
</g>
<!-- DevelopItemsCurriculum&#45;&gt;Edition -->
<g id="edge14" class="edge"><title>DevelopItemsCurriculum&#45;&gt;Edition</title>
<path fill="none" stroke="#18c0fa" d="M206.877,-382.859C215.598,-378.176 224.7,-373.072 233,-368 241.298,-362.929 250.051,-357.052 258,-351.495"/>
<ellipse fill="none" stroke="#18c0fa" cx="203.201" cy="-384.808" rx="4.00002" ry="4.00002"/>
<polygon fill="#18c0fa" stroke="#18c0fa" points="258.094,-351.429 268.854,-349.315 262.172,-348.537 266.251,-345.644 266.251,-345.644 266.251,-345.644 262.172,-348.537 263.648,-341.974 258.094,-351.429 258.094,-351.429"/>
</g>
<!-- MenteeProfile -->
<g id="node14" class="node"><title>MenteeProfile</title>
<ellipse fill="none" stroke="black" cx="623" cy="-240" rx="65.6218" ry="18"/>
<text text-anchor="middle" x="623" y="-234.4" font-family="Times,serif" font-size="14.00">MenteeProfile</text>
</g>
<!-- Edition&#45;&gt;MenteeProfile -->
<g id="edge20" class="edge"><title>Edition&#45;&gt;MenteeProfile</title>
<path fill="none" stroke="#d2827b" d="M327.027,-318.287C387.202,-302.573 499.565,-273.232 567.198,-255.571"/>
<ellipse fill="none" stroke="#d2827b" cx="323.105" cy="-319.311" rx="4.00001" ry="4.00001"/>
<polygon fill="#d2827b" stroke="#d2827b" points="567.572,-255.474 578.384,-257.301 572.41,-254.211 577.247,-252.947 577.247,-252.947 577.247,-252.947 572.41,-254.211 576.11,-248.593 567.572,-255.474 567.572,-255.474"/>
</g>
<!-- Survey -->
<g id="node17" class="node"><title>Survey</title>
<ellipse fill="none" stroke="black" cx="153" cy="-240" rx="38.0929" ry="18"/>
<text text-anchor="middle" x="153" y="-234.4" font-family="Times,serif" font-size="14.00">Survey</text>
</g>
<!-- Edition&#45;&gt;Survey -->
<g id="edge18" class="edge"><title>Edition&#45;&gt;Survey</title>
<path fill="none" stroke="#9fe47e" d="M257.901,-310.408C235.86,-295.825 205.257,-275.576 182.792,-260.712"/>
<ellipse fill="none" stroke="#9fe47e" cx="261.295" cy="-312.654" rx="4.00002" ry="4.00002"/>
<polygon fill="#9fe47e" stroke="#9fe47e" points="182.655,-260.622 176.799,-251.351 178.486,-257.863 174.316,-255.104 174.316,-255.104 174.316,-255.104 178.486,-257.863 171.833,-258.857 182.655,-260.622 182.655,-260.622"/>
</g>
<!-- JournalEntry -->
<g id="node12" class="node"><title>JournalEntry</title>
<ellipse fill="none" stroke="black" cx="768" cy="-240" rx="60.3803" ry="18"/>
<text text-anchor="middle" x="768" y="-234.4" font-family="Times,serif" font-size="14.00">JournalEntry</text>
</g>
<!-- Mentee -->
<g id="node13" class="node"><title>Mentee</title>
<ellipse fill="none" stroke="black" cx="656" cy="-330" rx="39.4899" ry="18"/>
<text text-anchor="middle" x="656" y="-324.4" font-family="Times,serif" font-size="14.00">Mentee</text>
</g>
<!-- Mentee&#45;&gt;JournalEntry -->
<g id="edge22" class="edge"><title>Mentee&#45;&gt;JournalEntry</title>
<path fill="none" stroke="#4940dc" d="M691.147,-313.408C701.574,-307.997 712.688,-301.405 722,-294 732.179,-285.906 741.866,-275.349 749.702,-265.788"/>
<ellipse fill="none" stroke="#4940dc" cx="687.287" cy="-315.343" rx="4.00002" ry="4.00002"/>
<polygon fill="#4940dc" stroke="#4940dc" points="749.873,-265.573 759.607,-260.523 752.975,-261.652 756.078,-257.731 756.078,-257.731 756.078,-257.731 752.975,-261.652 752.549,-254.938 749.873,-265.573 749.873,-265.573"/>
</g>
<!-- Mentee&#45;&gt;MenteeProfile -->
<g id="edge24" class="edge"><title>Mentee&#45;&gt;MenteeProfile</title>
<path fill="none" stroke="#e9f96a" d="M642.042,-305.073C640.202,-301.43 638.454,-297.663 637,-294 633.706,-285.699 630.945,-276.361 628.77,-267.863"/>
<ellipse fill="none" stroke="#e9f96a" cx="644.005" cy="-308.771" rx="4.00002" ry="4.00002"/>
<polygon fill="#e9f96a" stroke="#e9f96a" points="628.746,-267.763 630.786,-256.989 627.578,-262.901 626.41,-258.04 626.41,-258.04 626.41,-258.04 627.578,-262.901 622.035,-259.091 628.746,-267.763 628.746,-267.763"/>
</g>
<!-- Mentee&#45;&gt;MenteeProfile -->
<g id="edge26" class="edge"><title>Mentee&#45;&gt;MenteeProfile</title>
<path fill="none" stroke="#e0410a" d="M646.716,-304.244C642.167,-292.111 636.705,-277.546 632.17,-265.454"/>
<ellipse fill="none" stroke="#e0410a" cx="648.233" cy="-308.287" rx="4.00001" ry="4.00001"/>
<ellipse fill="#e0410a" stroke="#e0410a" cx="630.748" cy="-261.661" rx="4.00001" ry="4.00001"/>
<text text-anchor="middle" x="680.486" y="-279.4" font-family="Times,serif" font-size="14.00">active_profile</text>
</g>
<!-- MenteeProfile&#45;&gt;Answer -->
<g id="edge36" class="edge"><title>MenteeProfile&#45;&gt;Answer</title>
<path fill="none" stroke="#a2a5f1" d="M591.186,-218.451C577.664,-208.885 562.231,-196.797 550,-184 538.634,-172.108 482.166,-87.3937 453.604,-44.1968"/>
<ellipse fill="none" stroke="#a2a5f1" cx="594.769" cy="-220.936" rx="4.00002" ry="4.00002"/>
<polygon fill="#a2a5f1" stroke="#a2a5f1" points="453.471,-43.9946 451.714,-33.1703 450.715,-39.8225 447.959,-35.6504 447.959,-35.6504 447.959,-35.6504 450.715,-39.8225 444.204,-38.1305 453.471,-43.9946 453.471,-43.9946"/>
</g>
<!-- MenteeProfile&#45;&gt;DevelopGoal -->
<g id="edge30" class="edge"><title>MenteeProfile&#45;&gt;DevelopGoal</title>
<path fill="none" stroke="#fdea44" d="M564.018,-225.541C532.551,-218.125 497.243,-209.362 482,-204 468.061,-199.097 453.255,-192.628 440.22,-186.473"/>
<polygon fill="#fdea44" stroke="#fdea44" points="564.334,-225.614 573.044,-232.276 569.202,-226.755 574.07,-227.895 574.07,-227.895 574.07,-227.895 569.202,-226.755 575.096,-223.513 564.334,-225.614 564.334,-225.614"/>
<polygon fill="#fdea44" stroke="#fdea44" points="440.089,-186.41 433.03,-178.018 435.584,-184.241 431.079,-182.073 431.079,-182.073 431.079,-182.073 435.584,-184.241 429.127,-186.128 440.089,-186.41 440.089,-186.41"/>
</g>
<!-- MenteeProfile&#45;&gt;DevelopGoalPick -->
<g id="edge28" class="edge"><title>MenteeProfile&#45;&gt;DevelopGoalPick</title>
<path fill="none" stroke="#3129ec" d="M628.536,-214.086C629.961,-207.674 631.502,-200.742 632.951,-194.219"/>
<ellipse fill="none" stroke="#3129ec" cx="627.66" cy="-218.032" rx="4.00001" ry="4.00001"/>
<polygon fill="#3129ec" stroke="#3129ec" points="632.955,-194.203 639.517,-185.417 634.04,-189.322 635.124,-184.441 635.124,-184.441 635.124,-184.441 634.04,-189.322 630.731,-183.464 632.955,-194.203 632.955,-194.203"/>
</g>
<!-- MenteeProfile&#45;&gt;DevelopItem -->
<g id="edge34" class="edge"><title>MenteeProfile&#45;&gt;DevelopItem</title>
<path fill="none" stroke="#c0f76e" d="M562.282,-225.657C546.656,-220.48 530.466,-213.449 517,-204 491.09,-185.819 495.459,-170.305 473,-148 460.93,-136.013 446.252,-124.253 433.382,-114.705"/>
<polygon fill="#c0f76e" stroke="#c0f76e" points="562.36,-225.681 570.576,-232.944 567.135,-227.164 571.91,-228.647 571.91,-228.647 571.91,-228.647 567.135,-227.164 573.245,-224.349 562.36,-225.681 562.36,-225.681"/>
<polygon fill="#c0f76e" stroke="#c0f76e" points="433.315,-114.656 427.88,-105.131 429.273,-111.712 425.231,-108.769 425.231,-108.769 425.231,-108.769 429.273,-111.712 422.582,-112.407 433.315,-114.656 433.315,-114.656"/>
</g>
<!-- MenteeProfile&#45;&gt;DevelopItemPick -->
<g id="edge32" class="edge"><title>MenteeProfile&#45;&gt;DevelopItemPick</title>
<path fill="none" stroke="#1597d6" d="M667.662,-222.252C697.197,-211.176 735.918,-196.656 766.252,-185.28"/>
<ellipse fill="none" stroke="#1597d6" cx="663.765" cy="-223.713" rx="4.00001" ry="4.00001"/>
<polygon fill="#1597d6" stroke="#1597d6" points="766.421,-185.217 777.364,-185.919 771.102,-183.462 775.784,-181.706 775.784,-181.706 775.784,-181.706 771.102,-183.462 774.204,-177.492 766.421,-185.217 766.421,-185.217"/>
</g>
<!-- Question -->
<g id="node15" class="node"><title>Question</title>
<ellipse fill="none" stroke="black" cx="181" cy="-92" rx="45.3604" ry="18"/>
<text text-anchor="middle" x="181" y="-86.4" font-family="Times,serif" font-size="14.00">Question</text>
</g>
<!-- Question&#45;&gt;Answer -->
<g id="edge38" class="edge"><title>Question&#45;&gt;Answer</title>
<path fill="none" stroke="#ad89b4" d="M224.705,-78.708C271.85,-65.4486 346.465,-44.4629 393.522,-31.2283"/>
<ellipse fill="none" stroke="#ad89b4" cx="220.716" cy="-79.8299" rx="4.00001" ry="4.00001"/>
<polygon fill="#ad89b4" stroke="#ad89b4" points="393.787,-31.1538 404.632,-32.7782 398.6,-29.8 403.413,-28.4463 403.413,-28.4463 403.413,-28.4463 398.6,-29.8 402.195,-24.1143 393.787,-31.1538 393.787,-31.1538"/>
</g>
<!-- QuestionGroup -->
<g id="node16" class="node"><title>QuestionGroup</title>
<ellipse fill="none" stroke="black" cx="82" cy="-166" rx="70.3718" ry="18"/>
<text text-anchor="middle" x="82" y="-160.4" font-family="Times,serif" font-size="14.00">QuestionGroup</text>
</g>
<!-- QuestionGroup&#45;&gt;Question -->
<g id="edge40" class="edge"><title>QuestionGroup&#45;&gt;Question</title>
<path fill="none" stroke="#df8623" d="M111.01,-143.902C123.982,-134.468 139.233,-123.376 152.182,-113.958"/>
<ellipse fill="none" stroke="#df8623" cx="107.7" cy="-146.309" rx="4.00002" ry="4.00002"/>
<polygon fill="#df8623" stroke="#df8623" points="152.225,-113.927 162.959,-111.685 156.269,-110.986 160.312,-108.046 160.312,-108.046 160.312,-108.046 156.269,-110.986 157.665,-104.406 152.225,-113.927 152.225,-113.927"/>
</g>
<!-- Survey&#45;&gt;Question -->
<g id="edge44" class="edge"><title>Survey&#45;&gt;Question</title>
<path fill="none" stroke="#d1e328" d="M158.203,-211.872C163.206,-185.785 170.729,-146.557 175.748,-120.384"/>
<polygon fill="#d1e328" stroke="#d1e328" points="158.15,-212.145 151.847,-221.119 157.209,-217.056 156.267,-221.966 156.267,-221.966 156.267,-221.966 157.209,-217.056 160.686,-222.814 158.15,-212.145 158.15,-212.145"/>
<polygon fill="#d1e328" stroke="#d1e328" points="175.784,-120.199 182.087,-111.225 176.725,-115.288 177.667,-110.378 177.667,-110.378 177.667,-110.378 176.725,-115.288 173.248,-109.53 175.784,-120.199 175.784,-120.199"/>
</g>
<!-- Survey&#45;&gt;QuestionGroup -->
<g id="edge42" class="edge"><title>Survey&#45;&gt;QuestionGroup</title>
<path fill="none" stroke="#60e762" d="M131.885,-217.587C123.59,-209.176 114.034,-199.486 105.52,-190.851"/>
<ellipse fill="none" stroke="#60e762" cx="134.785" cy="-220.529" rx="4.00002" ry="4.00002"/>
<polygon fill="#60e762" stroke="#60e762" points="105.386,-190.715 101.568,-180.435 101.875,-187.155 98.364,-183.595 98.364,-183.595 98.364,-183.595 101.875,-187.155 95.1599,-186.754 105.386,-190.715 105.386,-190.715"/>
</g>
<!-- User -->
<g id="node18" class="node"><title>User</title>
<ellipse fill="none" stroke="black" cx="656" cy="-404" rx="28.9087" ry="18"/>
<text text-anchor="middle" x="656" y="-398.4" font-family="Times,serif" font-size="14.00">User</text>
</g>
<!-- User&#45;&gt;Mentee -->
<g id="edge46" class="edge"><title>User&#45;&gt;Mentee</title>
<path fill="none" stroke="#c705ac" d="M656,-377.792C656,-371.58 656,-364.896 656,-358.579"/>
<ellipse fill="none" stroke="#c705ac" cx="656" cy="-381.937" rx="4" ry="4"/>
<polygon fill="#c705ac" stroke="#c705ac" points="656,-358.441 660.5,-348.441 656,-353.441 656,-348.441 656,-348.441 656,-348.441 656,-353.441 651.5,-348.441 656,-358.441 656,-358.441"/>
</g>
</g>
</svg>
