<?xml version="1.0" encoding="UTF-8" standalone="no"?>
<!DOCTYPE svg PUBLIC "-//W3C//DTD SVG 1.1//EN"
 "http://www.w3.org/Graphics/SVG/1.1/DTD/svg11.dtd">
<!-- Generated by graphviz version 2.28.0 (20130122.0304)
 -->
<!-- Title: models_diagram Pages: 1 -->
<svg width="500pt" height="238pt"
 viewBox="0.00 0.00 500.00 238.00" xmlns="http://www.w3.org/2000/svg" xmlns:xlink="http://www.w3.org/1999/xlink">
<g id="graph1" class="graph" transform="scale(1 1) rotate(0) translate(4 234)">
<title>models_diagram</title>
<polygon fill="white" stroke="white" points="-4,5 -4,-234 497,-234 497,5 -4,5"/>
<!-- _diagram_info -->
<g id="node1" class="node"><title>_diagram_info</title>
<text text-anchor="start" x="7.31226" y="-213" font-family="Times,serif" font-size="13.00">Models diagram</text>
<text text-anchor="start" x="7.31226" y="-197.4" font-family="Times,serif" font-size="13.00">Date: Jun 02 2013 &#45; 17:32</text>
<text text-anchor="start" x="7.31226" y="-181.8" font-family="Times,serif" font-size="13.00">Migration version: 20130310054420</text>
<text text-anchor="start" x="7.31226" y="-166.2" font-family="Times,serif" font-size="13.00">Generated by RailRoady 1.1.0</text>
<text text-anchor="start" x="7.31226" y="-150.6" font-family="Times,serif" font-size="13.00">http://railroady.prestonlee.com</text>
</g>
<!-- Answer -->
<g id="node2" class="node"><title>Answer</title>
<ellipse fill="none" stroke="black" cx="266" cy="-187" rx="41.1096" ry="18"/>
<text text-anchor="middle" x="266" y="-181.4" font-family="Times,serif" font-size="14.00">Answer</text>
</g>
<!-- JournalEntry -->
<g id="node3" class="node"><title>JournalEntry</title>
<ellipse fill="none" stroke="black" cx="354" cy="-18" rx="60.3803" ry="18"/>
<text text-anchor="middle" x="354" y="-12.4" font-family="Times,serif" font-size="14.00">JournalEntry</text>
</g>
<!-- Mentee -->
<g id="node4" class="node"><title>Mentee</title>
<ellipse fill="none" stroke="black" cx="354" cy="-90" rx="39.4899" ry="18"/>
<text text-anchor="middle" x="354" y="-84.4" font-family="Times,serif" font-size="14.00">Mentee</text>
</g>
<!-- Mentee&#45;&gt;JournalEntry -->
<g id="edge2" class="edge"><title>Mentee&#45;&gt;JournalEntry</title>
<path fill="none" stroke="#253362" d="M354,-63.6398C354,-58.0629 354,-52.1319 354,-46.4761"/>
<ellipse fill="none" stroke="#253362" cx="354" cy="-67.6966" rx="4" ry="4"/>
<polygon fill="#253362" stroke="#253362" points="354,-46.1043 358.5,-36.1043 354,-41.1043 354,-36.1043 354,-36.1043 354,-36.1043 354,-41.1043 349.5,-36.1044 354,-46.1043 354,-46.1043"/>
</g>
<!-- Question -->
<g id="node5" class="node"><title>Question</title>
<ellipse fill="none" stroke="black" cx="447" cy="-187" rx="45.3604" ry="18"/>
<text text-anchor="middle" x="447" y="-181.4" font-family="Times,serif" font-size="14.00">Question</text>
</g>
<!-- User -->
<g id="node6" class="node"><title>User</title>
<ellipse fill="none" stroke="black" cx="354" cy="-187" rx="28.9087" ry="18"/>
<text text-anchor="middle" x="354" y="-181.4" font-family="Times,serif" font-size="14.00">User</text>
</g>
<!-- User&#45;&gt;Mentee -->
<g id="edge4" class="edge"><title>User&#45;&gt;Mentee</title>
<path fill="none" stroke="#f8333a" d="M354,-160.414C354,-147.518 354,-131.862 354,-118.685"/>
<ellipse fill="none" stroke="#f8333a" cx="354" cy="-164.576" rx="4" ry="4"/>
<polygon fill="#f8333a" stroke="#f8333a" points="354,-118.314 358.5,-108.314 354,-113.314 354,-108.314 354,-108.314 354,-108.314 354,-113.314 349.5,-108.314 354,-118.314 354,-118.314"/>
</g>
</g>
</svg>
