<?xml version="1.0" encoding="UTF-8" standalone="no"?>
<!DOCTYPE svg PUBLIC "-//W3C//DTD SVG 1.1//EN"
 "http://www.w3.org/Graphics/SVG/1.1/DTD/svg11.dtd">
<!-- Generated by graphviz version 2.28.0 (20130122.0304)
 -->
<!-- Title: models_diagram Pages: 1 -->
<svg width="677pt" height="1182pt"
 viewBox="0.00 0.00 677.00 1182.00" xmlns="http://www.w3.org/2000/svg" xmlns:xlink="http://www.w3.org/1999/xlink">
<g id="graph1" class="graph" transform="scale(1 1) rotate(0) translate(4 1178)">
<title>models_diagram</title>
<polygon fill="white" stroke="white" points="-4,5 -4,-1178 674,-1178 674,5 -4,5"/>
<!-- _diagram_info -->
<g id="node1" class="node"><title>_diagram_info</title>
<text text-anchor="start" x="7.31226" y="-1090" font-family="Times,serif" font-size="13.00">Models diagram</text>
<text text-anchor="start" x="7.31226" y="-1074.4" font-family="Times,serif" font-size="13.00">Date: Jul 12 2013 &#45; 18:43</text>
<text text-anchor="start" x="7.31226" y="-1058.8" font-family="Times,serif" font-size="13.00">Migration version: 20130712100000</text>
<text text-anchor="start" x="7.31226" y="-1043.2" font-family="Times,serif" font-size="13.00">Generated by RailRoady 1.1.0</text>
<text text-anchor="start" x="7.31226" y="-1027.6" font-family="Times,serif" font-size="13.00">http://railroady.prestonlee.com</text>
</g>
<!-- Answer -->
<g id="node2" class="node"><title>Answer</title>
<polyline fill="none" stroke="black" points="280.939,-1 421.061,-1 "/>
<path fill="none" stroke="black" d="M421.061,-1C427.061,-1 433.061,-7 433.061,-13"/>
<polyline fill="none" stroke="black" points="433.061,-13 433.061,-173 "/>
<path fill="none" stroke="black" d="M433.061,-173C433.061,-179 427.061,-185 421.061,-185"/>
<polyline fill="none" stroke="black" points="421.061,-185 280.939,-185 "/>
<path fill="none" stroke="black" d="M280.939,-185C274.939,-185 268.939,-179 268.939,-173"/>
<polyline fill="none" stroke="black" points="268.939,-173 268.939,-13 "/>
<path fill="none" stroke="black" d="M268.939,-13C268.939,-7 274.939,-1 280.939,-1"/>
<text text-anchor="middle" x="351" y="-167" font-family="Times,serif" font-size="14.00">Answer</text>
<polyline fill="none" stroke="black" points="268.939,-160.2 433.061,-160.2 "/>
<text text-anchor="start" x="276.939" y="-142.2" font-family="Times,serif" font-size="14.00">id :integer</text>
<text text-anchor="start" x="276.939" y="-125.4" font-family="Times,serif" font-size="14.00">text_value :text</text>
<text text-anchor="start" x="276.939" y="-108.6" font-family="Times,serif" font-size="14.00">number_value :integer</text>
<text text-anchor="start" x="276.939" y="-91.8" font-family="Times,serif" font-size="14.00">boolean_value :boolean</text>
<text text-anchor="start" x="276.939" y="-75" font-family="Times,serif" font-size="14.00">not_applicable :boolean</text>
<text text-anchor="start" x="276.939" y="-58.2" font-family="Times,serif" font-size="14.00">question_id :integer</text>
<text text-anchor="start" x="276.939" y="-41.4" font-family="Times,serif" font-size="14.00">mentee_profile_id :integer</text>
<text text-anchor="start" x="276.939" y="-24.6" font-family="Times,serif" font-size="14.00">created_at :datetime</text>
<text text-anchor="start" x="276.939" y="-7.8" font-family="Times,serif" font-size="14.00">updated_at :datetime</text>
</g>
<!-- Edition -->
<g id="node3" class="node"><title>Edition</title>
<polyline fill="none" stroke="black" points="237.05,-955.2 482.95,-955.2 "/>
<path fill="none" stroke="black" d="M482.95,-955.2C488.95,-955.2 494.95,-961.2 494.95,-967.2"/>
<polyline fill="none" stroke="black" points="494.95,-967.2 494.95,-1160.8 "/>
<path fill="none" stroke="black" d="M494.95,-1160.8C494.95,-1166.8 488.95,-1172.8 482.95,-1172.8"/>
<polyline fill="none" stroke="black" points="482.95,-1172.8 237.05,-1172.8 "/>
<path fill="none" stroke="black" d="M237.05,-1172.8C231.05,-1172.8 225.05,-1166.8 225.05,-1160.8"/>
<polyline fill="none" stroke="black" points="225.05,-1160.8 225.05,-967.2 "/>
<path fill="none" stroke="black" d="M225.05,-967.2C225.05,-961.2 231.05,-955.2 237.05,-955.2"/>
<text text-anchor="middle" x="360" y="-1154.8" font-family="Times,serif" font-size="14.00">Edition</text>
<polyline fill="none" stroke="black" points="225.05,-1148 494.95,-1148 "/>
<text text-anchor="start" x="233.05" y="-1130" font-family="Times,serif" font-size="14.00">id :integer</text>
<text text-anchor="start" x="233.05" y="-1113.2" font-family="Times,serif" font-size="14.00">name :string</text>
<text text-anchor="start" x="233.05" y="-1096.4" font-family="Times,serif" font-size="14.00">code :string</text>
<text text-anchor="start" x="233.05" y="-1079.6" font-family="Times,serif" font-size="14.00">revision :integer</text>
<text text-anchor="start" x="233.05" y="-1062.8" font-family="Times,serif" font-size="14.00">snapshot_self_assessment_survey_id :integer</text>
<text text-anchor="start" x="233.05" y="-1046" font-family="Times,serif" font-size="14.00">snapshot_interactive_survey_id :integer</text>
<text text-anchor="start" x="233.05" y="-1029.2" font-family="Times,serif" font-size="14.00">snapshot_observations_survey_id :integer</text>
<text text-anchor="start" x="233.05" y="-1012.4" font-family="Times,serif" font-size="14.00">develop_survey_id :integer</text>
<text text-anchor="start" x="233.05" y="-995.6" font-family="Times,serif" font-size="14.00">life_list_id :integer</text>
<text text-anchor="start" x="233.05" y="-978.8" font-family="Times,serif" font-size="14.00">created_at :datetime</text>
<text text-anchor="start" x="233.05" y="-962" font-family="Times,serif" font-size="14.00">updated_at :datetime</text>
</g>
<!-- MenteeProfile -->
<g id="node6" class="node"><title>MenteeProfile</title>
<polyline fill="none" stroke="black" points="372.495,-239.6 481.505,-239.6 "/>
<path fill="none" stroke="black" d="M481.505,-239.6C487.505,-239.6 493.505,-245.6 493.505,-251.6"/>
<polyline fill="none" stroke="black" points="493.505,-251.6 493.505,-344.4 "/>
<path fill="none" stroke="black" d="M493.505,-344.4C493.505,-350.4 487.505,-356.4 481.505,-356.4"/>
<polyline fill="none" stroke="black" points="481.505,-356.4 372.495,-356.4 "/>
<path fill="none" stroke="black" d="M372.495,-356.4C366.495,-356.4 360.495,-350.4 360.495,-344.4"/>
<polyline fill="none" stroke="black" points="360.495,-344.4 360.495,-251.6 "/>
<path fill="none" stroke="black" d="M360.495,-251.6C360.495,-245.6 366.495,-239.6 372.495,-239.6"/>
<text text-anchor="middle" x="427" y="-338.4" font-family="Times,serif" font-size="14.00">MenteeProfile</text>
<polyline fill="none" stroke="black" points="360.495,-331.6 493.505,-331.6 "/>
<text text-anchor="start" x="368.495" y="-313.6" font-family="Times,serif" font-size="14.00">id :integer</text>
<text text-anchor="start" x="368.495" y="-296.8" font-family="Times,serif" font-size="14.00">edition_id :integer</text>
<text text-anchor="start" x="368.495" y="-280" font-family="Times,serif" font-size="14.00">mentee_id :integer</text>
<text text-anchor="start" x="368.495" y="-263.2" font-family="Times,serif" font-size="14.00">created_at :datetime</text>
<text text-anchor="start" x="368.495" y="-246.4" font-family="Times,serif" font-size="14.00">updated_at :datetime</text>
</g>
<!-- Edition&#45;&gt;MenteeProfile -->
<g id="edge4" class="edge"><title>Edition&#45;&gt;MenteeProfile</title>
<path fill="none" stroke="#687a45" d="M400.703,-947.141C403.173,-937.367 405.33,-927.565 407,-918 441.56,-720.08 436.324,-481.297 430.974,-366.754"/>
<ellipse fill="none" stroke="#687a45" cx="399.669" cy="-951.098" rx="4.00001" ry="4.00001"/>
<polygon fill="#687a45" stroke="#687a45" points="430.972,-366.716 434.985,-356.51 430.732,-361.721 430.491,-356.727 430.491,-356.727 430.491,-356.727 430.732,-361.721 425.996,-356.944 430.972,-366.716 430.972,-366.716"/>
</g>
<!-- Survey -->
<g id="node9" class="node"><title>Survey</title>
<polyline fill="none" stroke="black" points="197.439,-733.6 386.561,-733.6 "/>
<path fill="none" stroke="black" d="M386.561,-733.6C392.561,-733.6 398.561,-739.6 398.561,-745.6"/>
<polyline fill="none" stroke="black" points="398.561,-745.6 398.561,-838.4 "/>
<path fill="none" stroke="black" d="M398.561,-838.4C398.561,-844.4 392.561,-850.4 386.561,-850.4"/>
<polyline fill="none" stroke="black" points="386.561,-850.4 197.439,-850.4 "/>
<path fill="none" stroke="black" d="M197.439,-850.4C191.439,-850.4 185.439,-844.4 185.439,-838.4"/>
<polyline fill="none" stroke="black" points="185.439,-838.4 185.439,-745.6 "/>
<path fill="none" stroke="black" d="M185.439,-745.6C185.439,-739.6 191.439,-733.6 197.439,-733.6"/>
<text text-anchor="middle" x="292" y="-832.4" font-family="Times,serif" font-size="14.00">Survey</text>
<polyline fill="none" stroke="black" points="185.439,-825.6 398.561,-825.6 "/>
<text text-anchor="start" x="193.439" y="-807.6" font-family="Times,serif" font-size="14.00">id :integer</text>
<text text-anchor="start" x="193.439" y="-790.8" font-family="Times,serif" font-size="14.00">edition_id :integer</text>
<text text-anchor="start" x="193.439" y="-774" font-family="Times,serif" font-size="14.00">default_question_group_id :integer</text>
<text text-anchor="start" x="193.439" y="-757.2" font-family="Times,serif" font-size="14.00">created_at :datetime</text>
<text text-anchor="start" x="193.439" y="-740.4" font-family="Times,serif" font-size="14.00">updated_at :datetime</text>
</g>
<!-- Edition&#45;&gt;Survey -->
<g id="edge2" class="edge"><title>Edition&#45;&gt;Survey</title>
<path fill="none" stroke="#5e6f92" d="M330.82,-947.138C323.372,-917.564 315.608,-886.738 308.999,-860.495"/>
<ellipse fill="none" stroke="#5e6f92" cx="331.854" cy="-951.246" rx="4.00001" ry="4.00001"/>
<polygon fill="#5e6f92" stroke="#5e6f92" points="308.968,-860.371 310.889,-849.575 307.746,-855.523 306.525,-850.674 306.525,-850.674 306.525,-850.674 307.746,-855.523 302.162,-851.773 308.968,-860.371 308.968,-860.371"/>
</g>
<!-- JournalEntry -->
<g id="node4" class="node"><title>JournalEntry</title>
<polyline fill="none" stroke="black" points="523.495,-231.2 632.505,-231.2 "/>
<path fill="none" stroke="black" d="M632.505,-231.2C638.505,-231.2 644.505,-237.2 644.505,-243.2"/>
<polyline fill="none" stroke="black" points="644.505,-243.2 644.505,-352.8 "/>
<path fill="none" stroke="black" d="M644.505,-352.8C644.505,-358.8 638.505,-364.8 632.505,-364.8"/>
<polyline fill="none" stroke="black" points="632.505,-364.8 523.495,-364.8 "/>
<path fill="none" stroke="black" d="M523.495,-364.8C517.495,-364.8 511.495,-358.8 511.495,-352.8"/>
<polyline fill="none" stroke="black" points="511.495,-352.8 511.495,-243.2 "/>
<path fill="none" stroke="black" d="M511.495,-243.2C511.495,-237.2 517.495,-231.2 523.495,-231.2"/>
<text text-anchor="middle" x="578" y="-346.8" font-family="Times,serif" font-size="14.00">JournalEntry</text>
<polyline fill="none" stroke="black" points="511.495,-340 644.505,-340 "/>
<text text-anchor="start" x="519.495" y="-322" font-family="Times,serif" font-size="14.00">id :integer</text>
<text text-anchor="start" x="519.495" y="-305.2" font-family="Times,serif" font-size="14.00">body :text</text>
<text text-anchor="start" x="519.495" y="-288.4" font-family="Times,serif" font-size="14.00">mentee_id :integer</text>
<text text-anchor="start" x="519.495" y="-271.6" font-family="Times,serif" font-size="14.00">logged_at :datetime</text>
<text text-anchor="start" x="519.495" y="-254.8" font-family="Times,serif" font-size="14.00">created_at :datetime</text>
<text text-anchor="start" x="519.495" y="-238" font-family="Times,serif" font-size="14.00">updated_at :datetime</text>
</g>
<!-- Mentee -->
<g id="node5" class="node"><title>Mentee</title>
<polyline fill="none" stroke="black" points="512.495,-411.2 621.505,-411.2 "/>
<path fill="none" stroke="black" d="M621.505,-411.2C627.505,-411.2 633.505,-417.2 633.505,-423.2"/>
<polyline fill="none" stroke="black" points="633.505,-423.2 633.505,-616.8 "/>
<path fill="none" stroke="black" d="M633.505,-616.8C633.505,-622.8 627.505,-628.8 621.505,-628.8"/>
<polyline fill="none" stroke="black" points="621.505,-628.8 512.495,-628.8 "/>
<path fill="none" stroke="black" d="M512.495,-628.8C506.495,-628.8 500.495,-622.8 500.495,-616.8"/>
<polyline fill="none" stroke="black" points="500.495,-616.8 500.495,-423.2 "/>
<path fill="none" stroke="black" d="M500.495,-423.2C500.495,-417.2 506.495,-411.2 512.495,-411.2"/>
<text text-anchor="middle" x="567" y="-610.8" font-family="Times,serif" font-size="14.00">Mentee</text>
<polyline fill="none" stroke="black" points="500.495,-604 633.505,-604 "/>
<text text-anchor="start" x="508.495" y="-586" font-family="Times,serif" font-size="14.00">id :integer</text>
<text text-anchor="start" x="508.495" y="-569.2" font-family="Times,serif" font-size="14.00">name :string</text>
<text text-anchor="start" x="508.495" y="-552.4" font-family="Times,serif" font-size="14.00">birth_date :date</text>
<text text-anchor="start" x="508.495" y="-535.6" font-family="Times,serif" font-size="14.00">major :string</text>
<text text-anchor="start" x="508.495" y="-518.8" font-family="Times,serif" font-size="14.00">phone :string</text>
<text text-anchor="start" x="508.495" y="-502" font-family="Times,serif" font-size="14.00">email :string</text>
<text text-anchor="start" x="508.495" y="-485.2" font-family="Times,serif" font-size="14.00">created_at :datetime</text>
<text text-anchor="start" x="508.495" y="-468.4" font-family="Times,serif" font-size="14.00">updated_at :datetime</text>
<text text-anchor="start" x="508.495" y="-451.6" font-family="Times,serif" font-size="14.00">mentor_id :integer</text>
<text text-anchor="start" x="508.495" y="-434.8" font-family="Times,serif" font-size="14.00">notes :text</text>
<text text-anchor="start" x="508.495" y="-418" font-family="Times,serif" font-size="14.00">avatar :string</text>
</g>
<!-- Mentee&#45;&gt;JournalEntry -->
<g id="edge6" class="edge"><title>Mentee&#45;&gt;JournalEntry</title>
<path fill="none" stroke="#aa93dd" d="M572.807,-402.867C573.277,-393.464 573.744,-384.12 574.194,-375.113"/>
<ellipse fill="none" stroke="#aa93dd" cx="572.603" cy="-406.938" rx="4" ry="4"/>
<polygon fill="#aa93dd" stroke="#aa93dd" points="574.196,-375.088 579.189,-365.325 574.445,-370.094 574.695,-365.1 574.695,-365.1 574.695,-365.1 574.445,-370.094 570.201,-364.876 574.196,-375.088 574.196,-375.088"/>
</g>
<!-- Mentee&#45;&gt;MenteeProfile -->
<g id="edge8" class="edge"><title>Mentee&#45;&gt;MenteeProfile</title>
<path fill="none" stroke="#3e468f" d="M496.017,-407.455C486.811,-392.989 477.628,-378.558 469.104,-365.164"/>
<ellipse fill="none" stroke="#3e468f" cx="498.338" cy="-411.102" rx="4.00002" ry="4.00002"/>
<polygon fill="#3e468f" stroke="#3e468f" points="468.974,-364.958 467.401,-354.106 466.289,-360.74 463.605,-356.522 463.605,-356.522 463.605,-356.522 466.289,-360.74 459.808,-358.938 468.974,-364.958 468.974,-364.958"/>
</g>
<!-- MenteeProfile&#45;&gt;Answer -->
<g id="edge10" class="edge"><title>MenteeProfile&#45;&gt;Answer</title>
<path fill="none" stroke="#7f278d" d="M402.564,-231.73C398.138,-219.909 393.43,-207.333 388.728,-194.772"/>
<ellipse fill="none" stroke="#7f278d" cx="404.022" cy="-235.625" rx="4.00001" ry="4.00001"/>
<polygon fill="#7f278d" stroke="#7f278d" points="388.644,-194.548 389.352,-183.605 386.89,-189.865 385.137,-185.182 385.137,-185.182 385.137,-185.182 386.89,-189.865 380.923,-186.76 388.644,-194.548 388.644,-194.548"/>
</g>
<!-- Question -->
<g id="node7" class="node"><title>Question</title>
<polyline fill="none" stroke="black" points="221.088,-222.8 330.912,-222.8 "/>
<path fill="none" stroke="black" d="M330.912,-222.8C336.912,-222.8 342.912,-228.8 342.912,-234.8"/>
<polyline fill="none" stroke="black" points="342.912,-234.8 342.912,-361.2 "/>
<path fill="none" stroke="black" d="M342.912,-361.2C342.912,-367.2 336.912,-373.2 330.912,-373.2"/>
<polyline fill="none" stroke="black" points="330.912,-373.2 221.088,-373.2 "/>
<path fill="none" stroke="black" d="M221.088,-373.2C215.088,-373.2 209.088,-367.2 209.088,-361.2"/>
<polyline fill="none" stroke="black" points="209.088,-361.2 209.088,-234.8 "/>
<path fill="none" stroke="black" d="M209.088,-234.8C209.088,-228.8 215.088,-222.8 221.088,-222.8"/>
<text text-anchor="middle" x="276" y="-355.2" font-family="Times,serif" font-size="14.00">Question</text>
<polyline fill="none" stroke="black" points="209.088,-348.4 342.912,-348.4 "/>
<text text-anchor="start" x="217.088" y="-330.4" font-family="Times,serif" font-size="14.00">id :integer</text>
<text text-anchor="start" x="217.088" y="-313.6" font-family="Times,serif" font-size="14.00">body :text</text>
<text text-anchor="start" x="217.088" y="-296.8" font-family="Times,serif" font-size="14.00">question_type :string</text>
<text text-anchor="start" x="217.088" y="-280" font-family="Times,serif" font-size="14.00">group_id :integer</text>
<text text-anchor="start" x="217.088" y="-263.2" font-family="Times,serif" font-size="14.00">position :integer</text>
<text text-anchor="start" x="217.088" y="-246.4" font-family="Times,serif" font-size="14.00">created_at :datetime</text>
<text text-anchor="start" x="217.088" y="-229.6" font-family="Times,serif" font-size="14.00">updated_at :datetime</text>
</g>
<!-- Question&#45;&gt;Answer -->
<g id="edge12" class="edge"><title>Question&#45;&gt;Answer</title>
<path fill="none" stroke="#c4ca98" d="M306.357,-214.834C308.768,-208.309 311.219,-201.674 313.67,-195.041"/>
<ellipse fill="none" stroke="#c4ca98" cx="304.888" cy="-218.811" rx="4.00001" ry="4.00001"/>
<polygon fill="#c4ca98" stroke="#c4ca98" points="313.789,-194.718 321.476,-186.897 315.522,-190.028 317.255,-185.337 317.255,-185.337 317.255,-185.337 315.522,-190.028 313.034,-183.778 313.789,-194.718 313.789,-194.718"/>
</g>
<!-- QuestionGroup -->
<g id="node8" class="node"><title>QuestionGroup</title>
<polyline fill="none" stroke="black" points="182.495,-444.8 291.505,-444.8 "/>
<path fill="none" stroke="black" d="M291.505,-444.8C297.505,-444.8 303.505,-450.8 303.505,-456.8"/>
<polyline fill="none" stroke="black" points="303.505,-456.8 303.505,-583.2 "/>
<path fill="none" stroke="black" d="M303.505,-583.2C303.505,-589.2 297.505,-595.2 291.505,-595.2"/>
<polyline fill="none" stroke="black" points="291.505,-595.2 182.495,-595.2 "/>
<path fill="none" stroke="black" d="M182.495,-595.2C176.495,-595.2 170.495,-589.2 170.495,-583.2"/>
<polyline fill="none" stroke="black" points="170.495,-583.2 170.495,-456.8 "/>
<path fill="none" stroke="black" d="M170.495,-456.8C170.495,-450.8 176.495,-444.8 182.495,-444.8"/>
<text text-anchor="middle" x="237" y="-577.2" font-family="Times,serif" font-size="14.00">QuestionGroup</text>
<polyline fill="none" stroke="black" points="170.495,-570.4 303.505,-570.4 "/>
<text text-anchor="start" x="178.495" y="-552.4" font-family="Times,serif" font-size="14.00">id :integer</text>
<text text-anchor="start" x="178.495" y="-535.6" font-family="Times,serif" font-size="14.00">title :string</text>
<text text-anchor="start" x="178.495" y="-518.8" font-family="Times,serif" font-size="14.00">virtual :boolean</text>
<text text-anchor="start" x="178.495" y="-502" font-family="Times,serif" font-size="14.00">survey_id :integer</text>
<text text-anchor="start" x="178.495" y="-485.2" font-family="Times,serif" font-size="14.00">position :integer</text>
<text text-anchor="start" x="178.495" y="-468.4" font-family="Times,serif" font-size="14.00">created_at :datetime</text>
<text text-anchor="start" x="178.495" y="-451.6" font-family="Times,serif" font-size="14.00">updated_at :datetime</text>
</g>
<!-- QuestionGroup&#45;&gt;Question -->
<g id="edge14" class="edge"><title>QuestionGroup&#45;&gt;Question</title>
<path fill="none" stroke="#887b96" d="M251.649,-436.367C254.712,-419.088 257.945,-400.847 261.02,-383.501"/>
<ellipse fill="none" stroke="#887b96" cx="250.902" cy="-440.579" rx="4.00001" ry="4.00001"/>
<polygon fill="#887b96" stroke="#887b96" points="261.064,-383.252 267.241,-374.191 261.937,-378.329 262.81,-373.405 262.81,-373.405 262.81,-373.405 261.937,-378.329 258.379,-372.62 261.064,-383.252 261.064,-383.252"/>
</g>
<!-- Survey&#45;&gt;Question -->
<g id="edge18" class="edge"><title>Survey&#45;&gt;Question</title>
<path fill="none" stroke="#457b7f" d="M303.985,-723.502C315.618,-647 329.201,-518.79 312,-410 310.606,-401.183 308.625,-392.113 306.301,-383.137"/>
<polygon fill="#457b7f" stroke="#457b7f" points="303.969,-723.606 297.986,-732.796 303.201,-728.546 302.433,-733.487 302.433,-733.487 302.433,-733.487 303.201,-728.546 306.879,-734.178 303.969,-723.606 303.969,-723.606"/>
<polygon fill="#457b7f" stroke="#457b7f" points="306.291,-383.099 307.997,-372.267 304.973,-378.276 303.656,-373.452 303.656,-373.452 303.656,-373.452 304.973,-378.276 299.315,-374.638 306.291,-383.099 306.291,-383.099"/>
</g>
<!-- Survey&#45;&gt;QuestionGroup -->
<g id="edge16" class="edge"><title>Survey&#45;&gt;QuestionGroup</title>
<path fill="none" stroke="#9a9c62" d="M278.595,-725.195C271.248,-689.126 262.061,-644.026 254.191,-605.392"/>
<ellipse fill="none" stroke="#9a9c62" cx="279.47" cy="-729.49" rx="4.00001" ry="4.00001"/>
<polygon fill="#9a9c62" stroke="#9a9c62" points="254.111,-604.999 256.524,-594.302 253.113,-600.1 252.115,-595.2 252.115,-595.2 252.115,-595.2 253.113,-600.1 247.705,-596.099 254.111,-604.999 254.111,-604.999"/>
</g>
<!-- User -->
<g id="node10" class="node"><title>User</title>
<polyline fill="none" stroke="black" points="476.722,-666.4 657.278,-666.4 "/>
<path fill="none" stroke="black" d="M657.278,-666.4C663.278,-666.4 669.278,-672.4 669.278,-678.4"/>
<polyline fill="none" stroke="black" points="669.278,-678.4 669.278,-905.6 "/>
<path fill="none" stroke="black" d="M669.278,-905.6C669.278,-911.6 663.278,-917.6 657.278,-917.6"/>
<polyline fill="none" stroke="black" points="657.278,-917.6 476.722,-917.6 "/>
<path fill="none" stroke="black" d="M476.722,-917.6C470.722,-917.6 464.722,-911.6 464.722,-905.6"/>
<polyline fill="none" stroke="black" points="464.722,-905.6 464.722,-678.4 "/>
<path fill="none" stroke="black" d="M464.722,-678.4C464.722,-672.4 470.722,-666.4 476.722,-666.4"/>
<text text-anchor="middle" x="567" y="-899.6" font-family="Times,serif" font-size="14.00">User</text>
<polyline fill="none" stroke="black" points="464.722,-892.8 669.278,-892.8 "/>
<text text-anchor="start" x="472.722" y="-874.8" font-family="Times,serif" font-size="14.00">id :integer</text>
<text text-anchor="start" x="472.722" y="-858" font-family="Times,serif" font-size="14.00">email :string</text>
<text text-anchor="start" x="472.722" y="-841.2" font-family="Times,serif" font-size="14.00">encrypted_password :string</text>
<text text-anchor="start" x="472.722" y="-824.4" font-family="Times,serif" font-size="14.00">reset_password_token :string</text>
<text text-anchor="start" x="472.722" y="-807.6" font-family="Times,serif" font-size="14.00">reset_password_sent_at :datetime</text>
<text text-anchor="start" x="472.722" y="-790.8" font-family="Times,serif" font-size="14.00">remember_created_at :datetime</text>
<text text-anchor="start" x="472.722" y="-774" font-family="Times,serif" font-size="14.00">sign_in_count :integer</text>
<text text-anchor="start" x="472.722" y="-757.2" font-family="Times,serif" font-size="14.00">current_sign_in_at :datetime</text>
<text text-anchor="start" x="472.722" y="-740.4" font-family="Times,serif" font-size="14.00">last_sign_in_at :datetime</text>
<text text-anchor="start" x="472.722" y="-723.6" font-family="Times,serif" font-size="14.00">current_sign_in_ip :string</text>
<text text-anchor="start" x="472.722" y="-706.8" font-family="Times,serif" font-size="14.00">last_sign_in_ip :string</text>
<text text-anchor="start" x="472.722" y="-690" font-family="Times,serif" font-size="14.00">created_at :datetime</text>
<text text-anchor="start" x="472.722" y="-673.2" font-family="Times,serif" font-size="14.00">updated_at :datetime</text>
</g>
<!-- User&#45;&gt;Mentee -->
<g id="edge20" class="edge"><title>User&#45;&gt;Mentee</title>
<path fill="none" stroke="#0b39ed" d="M567,-658.101C567,-651.862 567,-645.617 567,-639.419"/>
<ellipse fill="none" stroke="#0b39ed" cx="567" cy="-662.274" rx="4" ry="4"/>
<polygon fill="#0b39ed" stroke="#0b39ed" points="567,-639.042 571.5,-629.042 567,-634.042 567,-629.042 567,-629.042 567,-629.042 567,-634.042 562.5,-629.042 567,-639.042 567,-639.042"/>
</g>
</g>
</svg>
