<?xml version="1.0" encoding="UTF-8" standalone="no"?>
<!DOCTYPE svg PUBLIC "-//W3C//DTD SVG 1.1//EN"
 "http://www.w3.org/Graphics/SVG/1.1/DTD/svg11.dtd">
<!-- Generated by graphviz version 2.28.0 (20130122.0304)
 -->
<!-- Title: models_diagram Pages: 1 -->
<svg width="667pt" height="480pt"
 viewBox="0.00 0.00 667.00 480.00" xmlns="http://www.w3.org/2000/svg" xmlns:xlink="http://www.w3.org/1999/xlink">
<g id="graph1" class="graph" transform="scale(1 1) rotate(0) translate(4 476)">
<title>models_diagram</title>
<polygon fill="white" stroke="white" points="-4,5 -4,-476 664,-476 664,5 -4,5"/>
<!-- _diagram_info -->
<g id="node1" class="node"><title>_diagram_info</title>
<text text-anchor="start" x="299.312" y="-455" font-family="Times,serif" font-size="13.00">Models diagram</text>
<text text-anchor="start" x="299.312" y="-439.4" font-family="Times,serif" font-size="13.00">Date: Jun 10 2014 &#45; 13:05</text>
<text text-anchor="start" x="299.312" y="-423.8" font-family="Times,serif" font-size="13.00">Migration version: 20131030191750</text>
<text text-anchor="start" x="299.312" y="-408.2" font-family="Times,serif" font-size="13.00">Generated by RailRoady 1.1.0</text>
<text text-anchor="start" x="299.312" y="-392.6" font-family="Times,serif" font-size="13.00">http://railroady.prestonlee.com</text>
</g>
<!-- Answer -->
<g id="node2" class="node"><title>Answer</title>
<ellipse fill="none" stroke="black" cx="317" cy="-18" rx="41.1096" ry="18"/>
<text text-anchor="middle" x="317" y="-12.4" font-family="Times,serif" font-size="14.00">Answer</text>
</g>
<!-- Edition -->
<g id="node3" class="node"><title>Edition</title>
<ellipse fill="none" stroke="black" cx="165" cy="-330" rx="39.2049" ry="18"/>
<text text-anchor="middle" x="165" y="-324.4" font-family="Times,serif" font-size="14.00">Edition</text>
</g>
<!-- Lifelist -->
<g id="node5" class="node"><title>Lifelist</title>
<ellipse fill="none" stroke="black" cx="165" cy="-240" rx="38.3923" ry="18"/>
<text text-anchor="middle" x="165" y="-234.4" font-family="Times,serif" font-size="14.00">Lifelist</text>
</g>
<!-- Edition&#45;&gt;Lifelist -->
<g id="edge2" class="edge"><title>Edition&#45;&gt;Lifelist</title>
<path fill="none" stroke="#206e73" d="M165,-303.462C165,-291.712 165,-277.816 165,-266.118"/>
<ellipse fill="none" stroke="#206e73" cx="165" cy="-307.614" rx="4" ry="4"/>
<ellipse fill="#206e73" stroke="#206e73" cx="165" cy="-262.05" rx="4" ry="4"/>
</g>
<!-- MenteeProfile -->
<g id="node10" class="node"><title>MenteeProfile</title>
<ellipse fill="none" stroke="black" cx="454" cy="-240" rx="65.6218" ry="18"/>
<text text-anchor="middle" x="454" y="-234.4" font-family="Times,serif" font-size="14.00">MenteeProfile</text>
</g>
<!-- Edition&#45;&gt;MenteeProfile -->
<g id="edge6" class="edge"><title>Edition&#45;&gt;MenteeProfile</title>
<path fill="none" stroke="#521e40" d="M204.449,-316.988C255.711,-301.379 345.352,-274.083 402.09,-256.806"/>
<ellipse fill="none" stroke="#521e40" cx="200.581" cy="-318.166" rx="4.00001" ry="4.00001"/>
<polygon fill="#521e40" stroke="#521e40" points="402.373,-256.721 413.25,-258.112 407.156,-255.264 411.939,-253.808 411.939,-253.808 411.939,-253.808 407.156,-255.264 410.628,-249.503 402.373,-256.721 402.373,-256.721"/>
</g>
<!-- Survey -->
<g id="node13" class="node"><title>Survey</title>
<ellipse fill="none" stroke="black" cx="70" cy="-240" rx="38.0929" ry="18"/>
<text text-anchor="middle" x="70" y="-234.4" font-family="Times,serif" font-size="14.00">Survey</text>
</g>
<!-- Edition&#45;&gt;Survey -->
<g id="edge4" class="edge"><title>Edition&#45;&gt;Survey</title>
<path fill="none" stroke="#6969f1" d="M142.442,-308.104C127.859,-294.596 108.898,-277.032 94.0324,-263.262"/>
<ellipse fill="none" stroke="#6969f1" cx="145.518" cy="-310.953" rx="4.00002" ry="4.00002"/>
<polygon fill="#6969f1" stroke="#6969f1" points="94.0131,-263.244 89.7349,-253.147 90.345,-259.846 86.6769,-256.448 86.6769,-256.448 86.6769,-256.448 90.345,-259.846 83.6188,-259.749 94.0131,-263.244 94.0131,-263.244"/>
</g>
<!-- JournalEntry -->
<g id="node4" class="node"><title>JournalEntry</title>
<ellipse fill="none" stroke="black" cx="599" cy="-240" rx="60.3803" ry="18"/>
<text text-anchor="middle" x="599" y="-234.4" font-family="Times,serif" font-size="14.00">JournalEntry</text>
</g>
<!-- LifelistItem -->
<g id="node7" class="node"><title>LifelistItem</title>
<ellipse fill="none" stroke="black" cx="290" cy="-166" rx="56.4357" ry="18"/>
<text text-anchor="middle" x="290" y="-160.4" font-family="Times,serif" font-size="14.00">LifelistItem</text>
</g>
<!-- Lifelist&#45;&gt;LifelistItem -->
<g id="edge8" class="edge"><title>Lifelist&#45;&gt;LifelistItem</title>
<path fill="none" stroke="#46bc61" d="M195.333,-221.528C213.348,-211.151 236.265,-197.951 255.038,-187.138"/>
<ellipse fill="none" stroke="#46bc61" cx="191.685" cy="-223.63" rx="4.00002" ry="4.00002"/>
<polygon fill="#46bc61" stroke="#46bc61" points="255.216,-187.036 266.128,-185.944 259.549,-184.54 263.882,-182.044 263.882,-182.044 263.882,-182.044 259.549,-184.54 261.635,-178.145 255.216,-187.036 255.216,-187.036"/>
</g>
<!-- LifelistCategory -->
<g id="node6" class="node"><title>LifelistCategory</title>
<ellipse fill="none" stroke="black" cx="296" cy="-240" rx="73.9888" ry="18"/>
<text text-anchor="middle" x="296" y="-234.4" font-family="Times,serif" font-size="14.00">LifelistCategory</text>
</g>
<!-- LifelistCategory&#45;&gt;LifelistItem -->
<g id="edge10" class="edge"><title>LifelistCategory&#45;&gt;LifelistItem</title>
<path fill="none" stroke="#687a15" d="M293.899,-213.792C293.382,-207.58 292.825,-200.896 292.298,-194.579"/>
<ellipse fill="none" stroke="#687a15" cx="294.246" cy="-217.951" rx="4" ry="4"/>
<polygon fill="#687a15" stroke="#687a15" points="292.284,-194.406 295.938,-184.067 291.869,-189.423 291.453,-184.441 291.453,-184.441 291.453,-184.441 291.869,-189.423 286.969,-184.814 292.284,-194.406 292.284,-194.406"/>
</g>
<!-- LifelistPick -->
<g id="node8" class="node"><title>LifelistPick</title>
<ellipse fill="none" stroke="black" cx="459" cy="-166" rx="56.144" ry="18"/>
<text text-anchor="middle" x="459" y="-160.4" font-family="Times,serif" font-size="14.00">LifelistPick</text>
</g>
<!-- Mentee -->
<g id="node9" class="node"><title>Mentee</title>
<ellipse fill="none" stroke="black" cx="546" cy="-330" rx="39.4899" ry="18"/>
<text text-anchor="middle" x="546" y="-324.4" font-family="Times,serif" font-size="14.00">Mentee</text>
</g>
<!-- Mentee&#45;&gt;JournalEntry -->
<g id="edge12" class="edge"><title>Mentee&#45;&gt;JournalEntry</title>
<path fill="none" stroke="#966eda" d="M560.19,-305.438C567.406,-293.457 576.188,-278.877 583.571,-266.618"/>
<ellipse fill="none" stroke="#966eda" cx="558.033" cy="-309.021" rx="4.00002" ry="4.00002"/>
<polygon fill="#966eda" stroke="#966eda" points="583.736,-266.343 592.75,-260.099 586.316,-262.06 588.896,-257.777 588.896,-257.777 588.896,-257.777 586.316,-262.06 585.041,-255.455 583.736,-266.343 583.736,-266.343"/>
</g>
<!-- Mentee&#45;&gt;MenteeProfile -->
<g id="edge14" class="edge"><title>Mentee&#45;&gt;MenteeProfile</title>
<path fill="none" stroke="#3dcf23" d="M543.975,-303.856C542.098,-294.245 538.572,-283.745 532,-276 525.518,-268.361 517.031,-262.317 508.048,-257.558"/>
<ellipse fill="none" stroke="#3dcf23" cx="544.622" cy="-308.029" rx="4.00001" ry="4.00001"/>
<polygon fill="#3dcf23" stroke="#3dcf23" points="507.979,-257.525 500.894,-249.155 503.467,-255.37 498.955,-253.216 498.955,-253.216 498.955,-253.216 503.467,-255.37 497.016,-257.277 507.979,-257.525 507.979,-257.525"/>
</g>
<!-- Mentee&#45;&gt;MenteeProfile -->
<g id="edge16" class="edge"><title>Mentee&#45;&gt;MenteeProfile</title>
<path fill="none" stroke="#8076d6" d="M499.416,-323.322C481.218,-318.569 462.096,-309.875 451.027,-294 445.483,-286.048 444.997,-275.683 446.348,-266.23"/>
<ellipse fill="none" stroke="#8076d6" cx="503.784" cy="-324.336" rx="4.00001" ry="4.00001"/>
<ellipse fill="#8076d6" stroke="#8076d6" cx="447.152" cy="-262.166" rx="4.00001" ry="4.00001"/>
<text text-anchor="middle" x="489.486" y="-279.4" font-family="Times,serif" font-size="14.00">active_profile</text>
</g>
<!-- MenteeProfile&#45;&gt;Answer -->
<g id="edge22" class="edge"><title>MenteeProfile&#45;&gt;Answer</title>
<path fill="none" stroke="#fe4f56" d="M426.28,-217.623C415.264,-208.164 403.081,-196.384 394,-184 361.642,-139.875 337.839,-79.9862 325.816,-45.8236"/>
<ellipse fill="none" stroke="#fe4f56" cx="429.53" cy="-220.343" rx="4.00002" ry="4.00002"/>
<polygon fill="#fe4f56" stroke="#fe4f56" points="325.721,-45.5487 326.721,-34.6285 324.093,-40.821 322.466,-36.0933 322.466,-36.0933 322.466,-36.0933 324.093,-40.821 318.211,-37.5581 325.721,-45.5487 325.721,-45.5487"/>
</g>
<!-- MenteeProfile&#45;&gt;LifelistItem -->
<g id="edge20" class="edge"><title>MenteeProfile&#45;&gt;LifelistItem</title>
<path fill="none" stroke="#b5e66d" d="M404.982,-221.813C390.661,-216.453 375.077,-210.29 361,-204 349.4,-198.817 337.032,-192.618 325.923,-186.79"/>
<polygon fill="#b5e66d" stroke="#b5e66d" points="405.281,-221.923 413.104,-229.608 409.972,-223.655 414.662,-225.386 414.662,-225.386 414.662,-225.386 409.972,-223.655 416.221,-221.165 405.281,-221.923 405.281,-221.923"/>
<polygon fill="#b5e66d" stroke="#b5e66d" points="325.763,-186.705 319.045,-178.038 321.348,-184.358 316.933,-182.012 316.933,-182.012 316.933,-182.012 321.348,-184.358 314.821,-185.985 325.763,-186.705 325.763,-186.705"/>
</g>
<!-- MenteeProfile&#45;&gt;LifelistPick -->
<g id="edge18" class="edge"><title>MenteeProfile&#45;&gt;LifelistPick</title>
<path fill="none" stroke="#419aec" d="M455.751,-213.792C456.182,-207.58 456.646,-200.896 457.085,-194.579"/>
<ellipse fill="none" stroke="#419aec" cx="455.462" cy="-217.947" rx="4" ry="4"/>
<polygon fill="#419aec" stroke="#419aec" points="457.096,-194.417 462.278,-184.752 457.442,-189.429 457.789,-184.441 457.789,-184.441 457.789,-184.441 457.442,-189.429 453.3,-184.129 457.096,-194.417 457.096,-194.417"/>
</g>
<!-- Question -->
<g id="node11" class="node"><title>Question</title>
<ellipse fill="none" stroke="black" cx="169" cy="-92" rx="45.3604" ry="18"/>
<text text-anchor="middle" x="169" y="-86.4" font-family="Times,serif" font-size="14.00">Question</text>
</g>
<!-- Question&#45;&gt;Answer -->
<g id="edge24" class="edge"><title>Question&#45;&gt;Answer</title>
<path fill="none" stroke="#5fac57" d="M203.719,-74.1099C227.084,-62.7431 257.806,-47.7969 281.361,-36.3377"/>
<ellipse fill="none" stroke="#5fac57" cx="200.088" cy="-75.8762" rx="4.00002" ry="4.00002"/>
<polygon fill="#5fac57" stroke="#5fac57" points="281.659,-36.193 292.62,-35.8649 286.155,-34.0057 290.651,-31.8183 290.651,-31.8183 290.651,-31.8183 286.155,-34.0057 288.683,-27.7718 281.659,-36.193 281.659,-36.193"/>
</g>
<!-- QuestionGroup -->
<g id="node12" class="node"><title>QuestionGroup</title>
<ellipse fill="none" stroke="black" cx="70" cy="-166" rx="70.3718" ry="18"/>
<text text-anchor="middle" x="70" y="-160.4" font-family="Times,serif" font-size="14.00">QuestionGroup</text>
</g>
<!-- QuestionGroup&#45;&gt;Question -->
<g id="edge26" class="edge"><title>QuestionGroup&#45;&gt;Question</title>
<path fill="none" stroke="#c6ea6d" d="M99.0101,-143.902C111.982,-134.468 127.233,-123.376 140.182,-113.958"/>
<ellipse fill="none" stroke="#c6ea6d" cx="95.6996" cy="-146.309" rx="4.00002" ry="4.00002"/>
<polygon fill="#c6ea6d" stroke="#c6ea6d" points="140.225,-113.927 150.959,-111.685 144.269,-110.986 148.312,-108.046 148.312,-108.046 148.312,-108.046 144.269,-110.986 145.665,-104.406 140.225,-113.927 140.225,-113.927"/>
</g>
<!-- Survey&#45;&gt;Question -->
<g id="edge30" class="edge"><title>Survey&#45;&gt;Question</title>
<path fill="none" stroke="#dcf24d" d="M105.628,-221.949C121.182,-212.776 138.282,-200.025 149,-184 161.612,-165.142 166.408,-139.633 168.166,-120.421"/>
<polygon fill="#dcf24d" stroke="#dcf24d" points="105.437,-222.056 94.5129,-223.007 101.073,-224.495 96.7085,-226.935 96.7085,-226.935 96.7085,-226.935 101.073,-224.495 98.9041,-230.863 105.437,-222.056 105.437,-222.056"/>
<polygon fill="#dcf24d" stroke="#dcf24d" points="168.183,-120.183 173.363,-110.518 168.529,-115.195 168.874,-110.207 168.874,-110.207 168.874,-110.207 168.529,-115.195 164.385,-109.896 168.183,-120.183 168.183,-120.183"/>
</g>
<!-- Survey&#45;&gt;QuestionGroup -->
<g id="edge28" class="edge"><title>Survey&#45;&gt;QuestionGroup</title>
<path fill="none" stroke="#12a2eb" d="M70,-213.792C70,-207.58 70,-200.896 70,-194.579"/>
<ellipse fill="none" stroke="#12a2eb" cx="70" cy="-217.937" rx="4" ry="4"/>
<polygon fill="#12a2eb" stroke="#12a2eb" points="70.0001,-194.441 74.5,-184.441 70,-189.441 70,-184.441 70,-184.441 70,-184.441 70,-189.441 65.5,-184.441 70.0001,-194.441 70.0001,-194.441"/>
</g>
<!-- User -->
<g id="node14" class="node"><title>User</title>
<ellipse fill="none" stroke="black" cx="546" cy="-429" rx="28.9087" ry="18"/>
<text text-anchor="middle" x="546" y="-423.4" font-family="Times,serif" font-size="14.00">User</text>
</g>
<!-- User&#45;&gt;Mentee -->
<g id="edge32" class="edge"><title>User&#45;&gt;Mentee</title>
<path fill="none" stroke="#09e21d" d="M546,-402.227C546,-388.741 546,-372.227 546,-358.496"/>
<ellipse fill="none" stroke="#09e21d" cx="546" cy="-406.658" rx="4" ry="4"/>
<polygon fill="#09e21d" stroke="#09e21d" points="546,-358.192 550.5,-348.191 546,-353.192 546,-348.192 546,-348.192 546,-348.192 546,-353.192 541.5,-348.192 546,-358.192 546,-358.192"/>
</g>
</g>
</svg>
