<?xml version="1.0" encoding="UTF-8" standalone="no"?>
<!DOCTYPE svg PUBLIC "-//W3C//DTD SVG 1.1//EN"
 "http://www.w3.org/Graphics/SVG/1.1/DTD/svg11.dtd">
<!-- Generated by graphviz version 2.28.0 (20130122.0304)
 -->
<!-- Title: models_diagram Pages: 1 -->
<svg width="777pt" height="670pt"
 viewBox="0.00 0.00 777.00 670.00" xmlns="http://www.w3.org/2000/svg" xmlns:xlink="http://www.w3.org/1999/xlink">
<g id="graph1" class="graph" transform="scale(1 1) rotate(0) translate(4 666)">
<title>models_diagram</title>
<polygon fill="white" stroke="white" points="-4,5 -4,-666 774,-666 774,5 -4,5"/>
<!-- _diagram_info -->
<g id="node1" class="node"><title>_diagram_info</title>
<text text-anchor="start" x="7.31226" y="-562" font-family="Times,serif" font-size="13.00">Models diagram</text>
<text text-anchor="start" x="7.31226" y="-546.4" font-family="Times,serif" font-size="13.00">Date: Jun 02 2013 &#45; 17:32</text>
<text text-anchor="start" x="7.31226" y="-530.8" font-family="Times,serif" font-size="13.00">Migration version: 20130310054420</text>
<text text-anchor="start" x="7.31226" y="-515.2" font-family="Times,serif" font-size="13.00">Generated by RailRoady 1.1.0</text>
<text text-anchor="start" x="7.31226" y="-499.6" font-family="Times,serif" font-size="13.00">http://railroady.prestonlee.com</text>
</g>
<!-- Answer -->
<g id="node2" class="node"><title>Answer</title>
<polyline fill="none" stroke="black" points="236.329,-452.4 361.671,-452.4 "/>
<path fill="none" stroke="black" d="M361.671,-452.4C367.671,-452.4 373.671,-458.4 373.671,-464.4"/>
<polyline fill="none" stroke="black" points="373.671,-464.4 373.671,-607.6 "/>
<path fill="none" stroke="black" d="M373.671,-607.6C373.671,-613.6 367.671,-619.6 361.671,-619.6"/>
<polyline fill="none" stroke="black" points="361.671,-619.6 236.329,-619.6 "/>
<path fill="none" stroke="black" d="M236.329,-619.6C230.329,-619.6 224.329,-613.6 224.329,-607.6"/>
<polyline fill="none" stroke="black" points="224.329,-607.6 224.329,-464.4 "/>
<path fill="none" stroke="black" d="M224.329,-464.4C224.329,-458.4 230.329,-452.4 236.329,-452.4"/>
<text text-anchor="middle" x="299" y="-601.6" font-family="Times,serif" font-size="14.00">Answer</text>
<polyline fill="none" stroke="black" points="224.329,-594.8 373.671,-594.8 "/>
<text text-anchor="start" x="232.329" y="-576.8" font-family="Times,serif" font-size="14.00">id :integer</text>
<text text-anchor="start" x="232.329" y="-560" font-family="Times,serif" font-size="14.00">text_value :text</text>
<text text-anchor="start" x="232.329" y="-543.2" font-family="Times,serif" font-size="14.00">number_value :integer</text>
<text text-anchor="start" x="232.329" y="-526.4" font-family="Times,serif" font-size="14.00">boolean_value :boolean</text>
<text text-anchor="start" x="232.329" y="-509.6" font-family="Times,serif" font-size="14.00">question_id :integer</text>
<text text-anchor="start" x="232.329" y="-492.8" font-family="Times,serif" font-size="14.00">mentee_id :integer</text>
<text text-anchor="start" x="232.329" y="-476" font-family="Times,serif" font-size="14.00">created_at :datetime</text>
<text text-anchor="start" x="232.329" y="-459.2" font-family="Times,serif" font-size="14.00">updated_at :datetime</text>
</g>
<!-- JournalEntry -->
<g id="node3" class="node"><title>JournalEntry</title>
<polyline fill="none" stroke="black" points="439.495,-0.6 548.505,-0.6 "/>
<path fill="none" stroke="black" d="M548.505,-0.6C554.505,-0.6 560.505,-6.6 560.505,-12.6"/>
<polyline fill="none" stroke="black" points="560.505,-12.6 560.505,-105.4 "/>
<path fill="none" stroke="black" d="M560.505,-105.4C560.505,-111.4 554.505,-117.4 548.505,-117.4"/>
<polyline fill="none" stroke="black" points="548.505,-117.4 439.495,-117.4 "/>
<path fill="none" stroke="black" d="M439.495,-117.4C433.495,-117.4 427.495,-111.4 427.495,-105.4"/>
<polyline fill="none" stroke="black" points="427.495,-105.4 427.495,-12.6 "/>
<path fill="none" stroke="black" d="M427.495,-12.6C427.495,-6.6 433.495,-0.6 439.495,-0.6"/>
<text text-anchor="middle" x="494" y="-99.4" font-family="Times,serif" font-size="14.00">JournalEntry</text>
<polyline fill="none" stroke="black" points="427.495,-92.6 560.505,-92.6 "/>
<text text-anchor="start" x="435.495" y="-74.6" font-family="Times,serif" font-size="14.00">id :integer</text>
<text text-anchor="start" x="435.495" y="-57.8" font-family="Times,serif" font-size="14.00">body :text</text>
<text text-anchor="start" x="435.495" y="-41" font-family="Times,serif" font-size="14.00">mentee_id :integer</text>
<text text-anchor="start" x="435.495" y="-24.2" font-family="Times,serif" font-size="14.00">created_at :datetime</text>
<text text-anchor="start" x="435.495" y="-7.4" font-family="Times,serif" font-size="14.00">updated_at :datetime</text>
</g>
<!-- Mentee -->
<g id="node4" class="node"><title>Mentee</title>
<polyline fill="none" stroke="black" points="439.495,-155.2 548.505,-155.2 "/>
<path fill="none" stroke="black" d="M548.505,-155.2C554.505,-155.2 560.505,-161.2 560.505,-167.2"/>
<polyline fill="none" stroke="black" points="560.505,-167.2 560.505,-360.8 "/>
<path fill="none" stroke="black" d="M560.505,-360.8C560.505,-366.8 554.505,-372.8 548.505,-372.8"/>
<polyline fill="none" stroke="black" points="548.505,-372.8 439.495,-372.8 "/>
<path fill="none" stroke="black" d="M439.495,-372.8C433.495,-372.8 427.495,-366.8 427.495,-360.8"/>
<polyline fill="none" stroke="black" points="427.495,-360.8 427.495,-167.2 "/>
<path fill="none" stroke="black" d="M427.495,-167.2C427.495,-161.2 433.495,-155.2 439.495,-155.2"/>
<text text-anchor="middle" x="494" y="-354.8" font-family="Times,serif" font-size="14.00">Mentee</text>
<polyline fill="none" stroke="black" points="427.495,-348 560.505,-348 "/>
<text text-anchor="start" x="435.495" y="-330" font-family="Times,serif" font-size="14.00">id :integer</text>
<text text-anchor="start" x="435.495" y="-313.2" font-family="Times,serif" font-size="14.00">name :string</text>
<text text-anchor="start" x="435.495" y="-296.4" font-family="Times,serif" font-size="14.00">birth_date :date</text>
<text text-anchor="start" x="435.495" y="-279.6" font-family="Times,serif" font-size="14.00">major :string</text>
<text text-anchor="start" x="435.495" y="-262.8" font-family="Times,serif" font-size="14.00">phone :string</text>
<text text-anchor="start" x="435.495" y="-246" font-family="Times,serif" font-size="14.00">email :string</text>
<text text-anchor="start" x="435.495" y="-229.2" font-family="Times,serif" font-size="14.00">created_at :datetime</text>
<text text-anchor="start" x="435.495" y="-212.4" font-family="Times,serif" font-size="14.00">updated_at :datetime</text>
<text text-anchor="start" x="435.495" y="-195.6" font-family="Times,serif" font-size="14.00">mentor_id :integer</text>
<text text-anchor="start" x="435.495" y="-178.8" font-family="Times,serif" font-size="14.00">notes :text</text>
<text text-anchor="start" x="435.495" y="-162" font-family="Times,serif" font-size="14.00">avatar :string</text>
</g>
<!-- Mentee&#45;&gt;JournalEntry -->
<g id="edge2" class="edge"><title>Mentee&#45;&gt;JournalEntry</title>
<path fill="none" stroke="#3d7824" d="M494,-146.84C494,-140.379 494,-133.999 494,-127.808"/>
<ellipse fill="none" stroke="#3d7824" cx="494" cy="-150.962" rx="4" ry="4"/>
<polygon fill="#3d7824" stroke="#3d7824" points="494,-127.586 498.5,-117.586 494,-122.586 494,-117.586 494,-117.586 494,-117.586 494,-122.586 489.5,-117.586 494,-127.586 494,-127.586"/>
</g>
<!-- Question -->
<g id="node5" class="node"><title>Question</title>
<polyline fill="none" stroke="black" points="626.605,-469.2 757.395,-469.2 "/>
<path fill="none" stroke="black" d="M757.395,-469.2C763.395,-469.2 769.395,-475.2 769.395,-481.2"/>
<polyline fill="none" stroke="black" points="769.395,-481.2 769.395,-590.8 "/>
<path fill="none" stroke="black" d="M769.395,-590.8C769.395,-596.8 763.395,-602.8 757.395,-602.8"/>
<polyline fill="none" stroke="black" points="757.395,-602.8 626.605,-602.8 "/>
<path fill="none" stroke="black" d="M626.605,-602.8C620.605,-602.8 614.605,-596.8 614.605,-590.8"/>
<polyline fill="none" stroke="black" points="614.605,-590.8 614.605,-481.2 "/>
<path fill="none" stroke="black" d="M614.605,-481.2C614.605,-475.2 620.605,-469.2 626.605,-469.2"/>
<text text-anchor="middle" x="692" y="-584.8" font-family="Times,serif" font-size="14.00">Question</text>
<polyline fill="none" stroke="black" points="614.605,-578 769.395,-578 "/>
<text text-anchor="start" x="622.605" y="-560" font-family="Times,serif" font-size="14.00">id :integer</text>
<text text-anchor="start" x="622.605" y="-543.2" font-family="Times,serif" font-size="14.00">body :text</text>
<text text-anchor="start" x="622.605" y="-526.4" font-family="Times,serif" font-size="14.00">develop_category :string</text>
<text text-anchor="start" x="622.605" y="-509.6" font-family="Times,serif" font-size="14.00">answer_type :string</text>
<text text-anchor="start" x="622.605" y="-492.8" font-family="Times,serif" font-size="14.00">created_at :datetime</text>
<text text-anchor="start" x="622.605" y="-476" font-family="Times,serif" font-size="14.00">updated_at :datetime</text>
</g>
<!-- User -->
<g id="node6" class="node"><title>User</title>
<polyline fill="none" stroke="black" points="403.722,-410.4 584.278,-410.4 "/>
<path fill="none" stroke="black" d="M584.278,-410.4C590.278,-410.4 596.278,-416.4 596.278,-422.4"/>
<polyline fill="none" stroke="black" points="596.278,-422.4 596.278,-649.6 "/>
<path fill="none" stroke="black" d="M596.278,-649.6C596.278,-655.6 590.278,-661.6 584.278,-661.6"/>
<polyline fill="none" stroke="black" points="584.278,-661.6 403.722,-661.6 "/>
<path fill="none" stroke="black" d="M403.722,-661.6C397.722,-661.6 391.722,-655.6 391.722,-649.6"/>
<polyline fill="none" stroke="black" points="391.722,-649.6 391.722,-422.4 "/>
<path fill="none" stroke="black" d="M391.722,-422.4C391.722,-416.4 397.722,-410.4 403.722,-410.4"/>
<text text-anchor="middle" x="494" y="-643.6" font-family="Times,serif" font-size="14.00">User</text>
<polyline fill="none" stroke="black" points="391.722,-636.8 596.278,-636.8 "/>
<text text-anchor="start" x="399.722" y="-618.8" font-family="Times,serif" font-size="14.00">id :integer</text>
<text text-anchor="start" x="399.722" y="-602" font-family="Times,serif" font-size="14.00">email :string</text>
<text text-anchor="start" x="399.722" y="-585.2" font-family="Times,serif" font-size="14.00">encrypted_password :string</text>
<text text-anchor="start" x="399.722" y="-568.4" font-family="Times,serif" font-size="14.00">reset_password_token :string</text>
<text text-anchor="start" x="399.722" y="-551.6" font-family="Times,serif" font-size="14.00">reset_password_sent_at :datetime</text>
<text text-anchor="start" x="399.722" y="-534.8" font-family="Times,serif" font-size="14.00">remember_created_at :datetime</text>
<text text-anchor="start" x="399.722" y="-518" font-family="Times,serif" font-size="14.00">sign_in_count :integer</text>
<text text-anchor="start" x="399.722" y="-501.2" font-family="Times,serif" font-size="14.00">current_sign_in_at :datetime</text>
<text text-anchor="start" x="399.722" y="-484.4" font-family="Times,serif" font-size="14.00">last_sign_in_at :datetime</text>
<text text-anchor="start" x="399.722" y="-467.6" font-family="Times,serif" font-size="14.00">current_sign_in_ip :string</text>
<text text-anchor="start" x="399.722" y="-450.8" font-family="Times,serif" font-size="14.00">last_sign_in_ip :string</text>
<text text-anchor="start" x="399.722" y="-434" font-family="Times,serif" font-size="14.00">created_at :datetime</text>
<text text-anchor="start" x="399.722" y="-417.2" font-family="Times,serif" font-size="14.00">updated_at :datetime</text>
</g>
<!-- User&#45;&gt;Mentee -->
<g id="edge4" class="edge"><title>User&#45;&gt;Mentee</title>
<path fill="none" stroke="#d591ab" d="M494,-402.101C494,-395.862 494,-389.617 494,-383.419"/>
<ellipse fill="none" stroke="#d591ab" cx="494" cy="-406.274" rx="4" ry="4"/>
<polygon fill="#d591ab" stroke="#d591ab" points="494,-383.042 498.5,-373.042 494,-378.042 494,-373.042 494,-373.042 494,-373.042 494,-378.042 489.5,-373.042 494,-383.042 494,-383.042"/>
</g>
</g>
</svg>
